<svg xmlns="http://www.w3.org/2000/svg" xmlns:xlink="http://www.w3.org/1999/xlink" version="1.1" class="marks" width="817" height="547" viewBox="0 0 817 547"><rect width="817" height="547" fill="white"/><g fill="none" stroke-miterlimit="10" transform="translate(47,10)"><g class="mark-group role-frame root" role="graphics-object" aria-roledescription="group mark container"><g transform="translate(0,0)"><path class="background" aria-hidden="true" d="M0.5,0.5h700v500h-700Z" stroke="#ddd"/><g><g class="mark-group role-axis" aria-hidden="true"><g transform="translate(0.5,500.5)"><path class="background" aria-hidden="true" d="M0,0h0v0h0Z" pointer-events="none"/><g><g class="mark-rule role-axis-grid" pointer-events="none"><line transform="translate(0,-500)" x2="0" y2="500" stroke="#ddd" stroke-width="1" opacity="1"/><line transform="translate(35,-500)" x2="0" y2="500" stroke="#ddd" stroke-width="1" opacity="1"/><line transform="translate(70,-500)" x2="0" y2="500" stroke="#ddd" stroke-width="1" opacity="1"/><line transform="translate(105,-500)" x2="0" y2="500" stroke="#ddd" stroke-width="1" opacity="1"/><line transform="translate(140,-500)" x2="0" y2="500" stroke="#ddd" stroke-width="1" opacity="1"/><line transform="translate(175,-500)" x2="0" y2="500" stroke="#ddd" stroke-width="1" opacity="1"/><line transform="translate(210,-500)" x2="0" y2="500" stroke="#ddd" stroke-width="1" opacity="1"/><line transform="translate(245,-500)" x2="0" y2="500" stroke="#ddd" stroke-width="1" opacity="1"/><line transform="translate(280,-500)" x2="0" y2="500" stroke="#ddd" stroke-width="1" opacity="1"/><line transform="translate(315,-500)" x2="0" y2="500" stroke="#ddd" stroke-width="1" opacity="1"/><line transform="translate(350,-500)" x2="0" y2="500" stroke="#ddd" stroke-width="1" opacity="1"/><line transform="translate(385,-500)" x2="0" y2="500" stroke="#ddd" stroke-width="1" opacity="1"/><line transform="translate(420,-500)" x2="0" y2="500" stroke="#ddd" stroke-width="1" opacity="1"/><line transform="translate(455,-500)" x2="0" y2="500" stroke="#ddd" stroke-width="1" opacity="1"/><line transform="translate(490,-500)" x2="0" y2="500" stroke="#ddd" stroke-width="1" opacity="1"/><line transform="translate(525,-500)" x2="0" y2="500" stroke="#ddd" stroke-width="1" opacity="1"/><line transform="translate(560,-500)" x2="0" y2="500" stroke="#ddd" stroke-width="1" opacity="1"/><line transform="translate(595,-500)" x2="0" y2="500" stroke="#ddd" stroke-width="1" opacity="1"/><line transform="translate(630,-500)" x2="0" y2="500" stroke="#ddd" stroke-width="1" opacity="1"/><line transform="translate(665,-500)" x2="0" y2="500" stroke="#ddd" stroke-width="1" opacity="1"/><line transform="translate(700,-500)" x2="0" y2="500" stroke="#ddd" stroke-width="1" opacity="1"/></g></g><path class="foreground" aria-hidden="true" d="" pointer-events="none" display="none"/></g></g><g class="mark-group role-axis" aria-hidden="true"><g transform="translate(0.5,0.5)"><path class="background" aria-hidden="true" d="M0,0h0v0h0Z" pointer-events="none"/><g><g class="mark-rule role-axis-grid" pointer-events="none"><line transform="translate(0,500)" x2="700" y2="0" stroke="#ddd" stroke-width="1" opacity="1"/><line transform="translate(0,450)" x2="700" y2="0" stroke="#ddd" stroke-width="1" opacity="1"/><line transform="translate(0,400)" x2="700" y2="0" stroke="#ddd" stroke-width="1" opacity="1"/><line transform="translate(0,350)" x2="700" y2="0" stroke="#ddd" stroke-width="1" opacity="1"/><line transform="translate(0,300)" x2="700" y2="0" stroke="#ddd" stroke-width="1" opacity="1"/><line transform="translate(0,250)" x2="700" y2="0" stroke="#ddd" stroke-width="1" opacity="1"/><line transform="translate(0,200)" x2="700" y2="0" stroke="#ddd" stroke-width="1" opacity="1"/><line transform="translate(0,150)" x2="700" y2="0" stroke="#ddd" stroke-width="1" opacity="1"/><line transform="translate(0,100)" x2="700" y2="0" stroke="#ddd" stroke-width="1" opacity="1"/><line transform="translate(0,50)" x2="700" y2="0" stroke="#ddd" stroke-width="1" opacity="1"/><line transform="translate(0,0)" x2="700" y2="0" stroke="#ddd" stroke-width="1" opacity="1"/></g></g><path class="foreground" aria-hidden="true" d="" pointer-events="none" display="none"/></g></g><g class="mark-group role-axis" role="graphics-symbol" aria-roledescription="axis" aria-label="X-axis titled 'x' for a linear scale with values from −1.0 to 1.0"><g transform="translate(0.5,500.5)"><path class="background" aria-hidden="true" d="M0,0h0v0h0Z" pointer-events="none"/><g><g class="mark-rule role-axis-tick" pointer-events="none"><line transform="translate(0,0)" x2="0" y2="5" stroke="#888" stroke-width="1" opacity="1"/><line transform="translate(35,0)" x2="0" y2="5" stroke="#888" stroke-width="1" opacity="1"/><line transform="translate(70,0)" x2="0" y2="5" stroke="#888" stroke-width="1" opacity="1"/><line transform="translate(105,0)" x2="0" y2="5" stroke="#888" stroke-width="1" opacity="1"/><line transform="translate(140,0)" x2="0" y2="5" stroke="#888" stroke-width="1" opacity="1"/><line transform="translate(175,0)" x2="0" y2="5" stroke="#888" stroke-width="1" opacity="1"/><line transform="translate(210,0)" x2="0" y2="5" stroke="#888" stroke-width="1" opacity="1"/><line transform="translate(245,0)" x2="0" y2="5" stroke="#888" stroke-width="1" opacity="1"/><line transform="translate(280,0)" x2="0" y2="5" stroke="#888" stroke-width="1" opacity="1"/><line transform="translate(315,0)" x2="0" y2="5" stroke="#888" stroke-width="1" opacity="1"/><line transform="translate(350,0)" x2="0" y2="5" stroke="#888" stroke-width="1" opacity="1"/><line transform="translate(385,0)" x2="0" y2="5" stroke="#888" stroke-width="1" opacity="1"/><line transform="translate(420,0)" x2="0" y2="5" stroke="#888" stroke-width="1" opacity="1"/><line transform="translate(455,0)" x2="0" y2="5" stroke="#888" stroke-width="1" opacity="1"/><line transform="translate(490,0)" x2="0" y2="5" stroke="#888" stroke-width="1" opacity="1"/><line transform="translate(525,0)" x2="0" y2="5" stroke="#888" stroke-width="1" opacity="1"/><line transform="translate(560,0)" x2="0" y2="5" stroke="#888" stroke-width="1" opacity="1"/><line transform="translate(595,0)" x2="0" y2="5" stroke="#888" stroke-width="1" opacity="1"/><line transform="translate(630,0)" x2="0" y2="5" stroke="#888" stroke-width="1" opacity="1"/><line transform="translate(665,0)" x2="0" y2="5" stroke="#888" stroke-width="1" opacity="1"/><line transform="translate(700,0)" x2="0" y2="5" stroke="#888" stroke-width="1" opacity="1"/></g><g class="mark-text role-axis-label" pointer-events="none"><text text-anchor="start" transform="translate(0,15)" font-family="sans-serif" font-size="10px" fill="#000" opacity="1">−1.0</text><text text-anchor="middle" transform="translate(34.99999999999999,15)" font-family="sans-serif" font-size="10px" fill="#000" opacity="1">−0.9</text><text text-anchor="middle" transform="translate(69.99999999999999,15)" font-family="sans-serif" font-size="10px" fill="#000" opacity="1">−0.8</text><text text-anchor="middle" transform="translate(105.00000000000001,15)" font-family="sans-serif" font-size="10px" fill="#000" opacity="1">−0.7</text><text text-anchor="middle" transform="translate(140,15)" font-family="sans-serif" font-size="10px" fill="#000" opacity="1">−0.6</text><text text-anchor="middle" transform="translate(175,15)" font-family="sans-serif" font-size="10px" fill="#000" opacity="1">−0.5</text><text text-anchor="middle" transform="translate(210,15)" font-family="sans-serif" font-size="10px" fill="#000" opacity="1">−0.4</text><text text-anchor="middle" transform="translate(244.99999999999997,15)" font-family="sans-serif" font-size="10px" fill="#000" opacity="1">−0.3</text><text text-anchor="middle" transform="translate(280,15)" font-family="sans-serif" font-size="10px" fill="#000" opacity="1">−0.2</text><text text-anchor="middle" transform="translate(315,15)" font-family="sans-serif" font-size="10px" fill="#000" opacity="1">−0.1</text><text text-anchor="middle" transform="translate(350,15)" font-family="sans-serif" font-size="10px" fill="#000" opacity="1">0.0</text><text text-anchor="middle" transform="translate(385.00000000000006,15)" font-family="sans-serif" font-size="10px" fill="#000" opacity="1">0.1</text><text text-anchor="middle" transform="translate(420,15)" font-family="sans-serif" font-size="10px" fill="#000" opacity="1">0.2</text><text text-anchor="middle" transform="translate(455,15)" font-family="sans-serif" font-size="10px" fill="#000" opacity="1">0.3</text><text text-anchor="middle" transform="translate(489.99999999999994,15)" font-family="sans-serif" font-size="10px" fill="#000" opacity="1">0.4</text><text text-anchor="middle" transform="translate(525,15)" font-family="sans-serif" font-size="10px" fill="#000" opacity="1">0.5</text><text text-anchor="middle" transform="translate(560,15)" font-family="sans-serif" font-size="10px" fill="#000" opacity="1">0.6</text><text text-anchor="middle" transform="translate(595,15)" font-family="sans-serif" font-size="10px" fill="#000" opacity="1">0.7</text><text text-anchor="middle" transform="translate(630,15)" font-family="sans-serif" font-size="10px" fill="#000" opacity="1">0.8</text><text text-anchor="middle" transform="translate(665,15)" font-family="sans-serif" font-size="10px" fill="#000" opacity="1">0.9</text><text text-anchor="end" transform="translate(700,15)" font-family="sans-serif" font-size="10px" fill="#000" opacity="1">1.0</text></g><g class="mark-rule role-axis-domain" pointer-events="none"><line transform="translate(0,0)" x2="700" y2="0" stroke="#888" stroke-width="1" opacity="1"/></g><g class="mark-text role-axis-title" pointer-events="none"><text text-anchor="middle" transform="translate(350,30)" font-family="sans-serif" font-size="11px" font-weight="bold" fill="#000" opacity="1">x</text></g></g><path class="foreground" aria-hidden="true" d="" pointer-events="none" display="none"/></g></g><g class="mark-group role-axis" role="graphics-symbol" aria-roledescription="axis" aria-label="Y-axis titled 'y' for a linear scale with values from −1.0 to 0.0"><g transform="translate(0.5,0.5)"><path class="background" aria-hidden="true" d="M0,0h0v0h0Z" pointer-events="none"/><g><g class="mark-rule role-axis-tick" pointer-events="none"><line transform="translate(0,500)" x2="-5" y2="0" stroke="#888" stroke-width="1" opacity="1"/><line transform="translate(0,450)" x2="-5" y2="0" stroke="#888" stroke-width="1" opacity="1"/><line transform="translate(0,400)" x2="-5" y2="0" stroke="#888" stroke-width="1" opacity="1"/><line transform="translate(0,350)" x2="-5" y2="0" stroke="#888" stroke-width="1" opacity="1"/><line transform="translate(0,300)" x2="-5" y2="0" stroke="#888" stroke-width="1" opacity="1"/><line transform="translate(0,250)" x2="-5" y2="0" stroke="#888" stroke-width="1" opacity="1"/><line transform="translate(0,200)" x2="-5" y2="0" stroke="#888" stroke-width="1" opacity="1"/><line transform="translate(0,150)" x2="-5" y2="0" stroke="#888" stroke-width="1" opacity="1"/><line transform="translate(0,100)" x2="-5" y2="0" stroke="#888" stroke-width="1" opacity="1"/><line transform="translate(0,50)" x2="-5" y2="0" stroke="#888" stroke-width="1" opacity="1"/><line transform="translate(0,0)" x2="-5" y2="0" stroke="#888" stroke-width="1" opacity="1"/></g><g class="mark-text role-axis-label" pointer-events="none"><text text-anchor="end" transform="translate(-7,503)" font-family="sans-serif" font-size="10px" fill="#000" opacity="1">−1.0</text><text text-anchor="end" transform="translate(-7,453)" font-family="sans-serif" font-size="10px" fill="#000" opacity="1">−0.9</text><text text-anchor="end" transform="translate(-7,403)" font-family="sans-serif" font-size="10px" fill="#000" opacity="1">−0.8</text><text text-anchor="end" transform="translate(-7,353)" font-family="sans-serif" font-size="10px" fill="#000" opacity="1">−0.7</text><text text-anchor="end" transform="translate(-7,303)" font-family="sans-serif" font-size="10px" fill="#000" opacity="1">−0.6</text><text text-anchor="end" transform="translate(-7,253)" font-family="sans-serif" font-size="10px" fill="#000" opacity="1">−0.5</text><text text-anchor="end" transform="translate(-7,203)" font-family="sans-serif" font-size="10px" fill="#000" opacity="1">−0.4</text><text text-anchor="end" transform="translate(-7,153.00000000000003)" font-family="sans-serif" font-size="10px" fill="#000" opacity="1">−0.3</text><text text-anchor="end" transform="translate(-7,102.99999999999997)" font-family="sans-serif" font-size="10px" fill="#000" opacity="1">−0.2</text><text text-anchor="end" transform="translate(-7,52.999999999999986)" font-family="sans-serif" font-size="10px" fill="#000" opacity="1">−0.1</text><text text-anchor="end" transform="translate(-7,3)" font-family="sans-serif" font-size="10px" fill="#000" opacity="1">0.0</text></g><g class="mark-rule role-axis-domain" pointer-events="none"><line transform="translate(0,500)" x2="0" y2="-500" stroke="#888" stroke-width="1" opacity="1"/></g><g class="mark-text role-axis-title" pointer-events="none"><text text-anchor="middle" transform="translate(-30.7412109375,250) rotate(-90) translate(0,-2)" font-family="sans-serif" font-size="11px" font-weight="bold" fill="#000" opacity="1">y</text></g></g><path class="foreground" aria-hidden="true" d="" pointer-events="none" display="none"/></g></g><g class="mark-symbol role-mark marks" role="graphics-object" aria-roledescription="symbol mark container"><path aria-label="x: 0; y: −1; type: Input" role="graphics-symbol" aria-roledescription="point" transform="translate(350,500)" d="M2.7386127875258306,0A2.7386127875258306,2.7386127875258306,0,1,1,-2.7386127875258306,0A2.7386127875258306,2.7386127875258306,0,1,1,2.7386127875258306,0" stroke="#4c78a8" stroke-width="2" opacity="0.7"/><path aria-label="x: −0.00000299465538561; y: −0.999968502026; type: Output" role="graphics-symbol" aria-roledescription="point" transform="translate(349.99895187061503,499.9842510128429)" d="M2.7386127875258306,0A2.7386127875258306,2.7386127875258306,0,1,1,-2.7386127875258306,0A2.7386127875258306,2.7386127875258306,0,1,1,2.7386127875258306,0" stroke="#f58518" stroke-width="2" opacity="0.7"/><path aria-label="x: 0.01; y: −0.99; type: Input" role="graphics-symbol" aria-roledescription="point" transform="translate(353.5,495)" d="M2.7386127875258306,0A2.7386127875258306,2.7386127875258306,0,1,1,-2.7386127875258306,0A2.7386127875258306,2.7386127875258306,0,1,1,2.7386127875258306,0" stroke="#4c78a8" stroke-width="2" opacity="0.7"/><path aria-label="x: −0.0100038164063; y: −0.989968626319; type: Output" role="graphics-symbol" aria-roledescription="point" transform="translate(346.49866425778424,494.9843131594104)" d="M2.7386127875258306,0A2.7386127875258306,2.7386127875258306,0,1,1,-2.7386127875258306,0A2.7386127875258306,2.7386127875258306,0,1,1,2.7386127875258306,0" stroke="#f58518" stroke-width="2" opacity="0.7"/><path aria-label="x: 0.02; y: −0.98; type: Input" role="graphics-symbol" aria-roledescription="point" transform="translate(357,490)" d="M2.7386127875258306,0A2.7386127875258306,2.7386127875258306,0,1,1,-2.7386127875258306,0A2.7386127875258306,2.7386127875258306,0,1,1,2.7386127875258306,0" stroke="#4c78a8" stroke-width="2" opacity="0.7"/><path aria-label="x: −0.0200046381573; y: −0.979968750612; type: Output" role="graphics-symbol" aria-roledescription="point" transform="translate(342.99837664495345,489.984375305978)" d="M2.7386127875258306,0A2.7386127875258306,2.7386127875258306,0,1,1,-2.7386127875258306,0A2.7386127875258306,2.7386127875258306,0,1,1,2.7386127875258306,0" stroke="#f58518" stroke-width="2" opacity="0.7"/><path aria-label="x: 0.03; y: −0.97; type: Input" role="graphics-symbol" aria-roledescription="point" transform="translate(360.5,485)" d="M2.7386127875258306,0A2.7386127875258306,2.7386127875258306,0,1,1,-2.7386127875258306,0A2.7386127875258306,2.7386127875258306,0,1,1,2.7386127875258306,0" stroke="#4c78a8" stroke-width="2" opacity="0.7"/><path aria-label="x: −0.0300054599082; y: −0.969968874905; type: Output" role="graphics-symbol" aria-roledescription="point" transform="translate(339.4980890321227,484.98443745254565)" d="M2.7386127875258306,0A2.7386127875258306,2.7386127875258306,0,1,1,-2.7386127875258306,0A2.7386127875258306,2.7386127875258306,0,1,1,2.7386127875258306,0" stroke="#f58518" stroke-width="2" opacity="0.7"/><path aria-label="x: 0.04; y: −0.96; type: Input" role="graphics-symbol" aria-roledescription="point" transform="translate(364,480)" d="M2.7386127875258306,0A2.7386127875258306,2.7386127875258306,0,1,1,-2.7386127875258306,0A2.7386127875258306,2.7386127875258306,0,1,1,2.7386127875258306,0" stroke="#4c78a8" stroke-width="2" opacity="0.7"/><path aria-label="x: −0.0400062816592; y: −0.959968999198; type: Output" role="graphics-symbol" aria-roledescription="point" transform="translate(335.99780141929205,479.9844995991131)" d="M2.7386127875258306,0A2.7386127875258306,2.7386127875258306,0,1,1,-2.7386127875258306,0A2.7386127875258306,2.7386127875258306,0,1,1,2.7386127875258306,0" stroke="#f58518" stroke-width="2" opacity="0.7"/><path aria-label="x: 0.05; y: −0.95; type: Input" role="graphics-symbol" aria-roledescription="point" transform="translate(367.5,475)" d="M2.7386127875258306,0A2.7386127875258306,2.7386127875258306,0,1,1,-2.7386127875258306,0A2.7386127875258306,2.7386127875258306,0,1,1,2.7386127875258306,0" stroke="#4c78a8" stroke-width="2" opacity="0.7"/><path aria-label="x: −0.0500071034101; y: −0.949969123491; type: Output" role="graphics-symbol" aria-roledescription="point" transform="translate(332.4975138064612,474.9845617456807)" d="M2.7386127875258306,0A2.7386127875258306,2.7386127875258306,0,1,1,-2.7386127875258306,0A2.7386127875258306,2.7386127875258306,0,1,1,2.7386127875258306,0" stroke="#f58518" stroke-width="2" opacity="0.7"/><path aria-label="x: 0.06; y: −0.94; type: Input" role="graphics-symbol" aria-roledescription="point" transform="translate(371,470)" d="M2.7386127875258306,0A2.7386127875258306,2.7386127875258306,0,1,1,-2.7386127875258306,0A2.7386127875258306,2.7386127875258306,0,1,1,2.7386127875258306,0" stroke="#4c78a8" stroke-width="2" opacity="0.7"/><path aria-label="x: −0.0600079251611; y: −0.939969247784; type: Output" role="graphics-symbol" aria-roledescription="point" transform="translate(328.9972261936304,469.98462389224824)" d="M2.7386127875258306,0A2.7386127875258306,2.7386127875258306,0,1,1,-2.7386127875258306,0A2.7386127875258306,2.7386127875258306,0,1,1,2.7386127875258306,0" stroke="#f58518" stroke-width="2" opacity="0.7"/><path aria-label="x: 0.07; y: −0.93; type: Input" role="graphics-symbol" aria-roledescription="point" transform="translate(374.5,464.99999999999994)" d="M2.7386127875258306,0A2.7386127875258306,2.7386127875258306,0,1,1,-2.7386127875258306,0A2.7386127875258306,2.7386127875258306,0,1,1,2.7386127875258306,0" stroke="#4c78a8" stroke-width="2" opacity="0.7"/><path aria-label="x: −0.070008746912; y: −0.929969372078; type: Output" role="graphics-symbol" aria-roledescription="point" transform="translate(325.4969385807997,464.9846860388159)" d="M2.7386127875258306,0A2.7386127875258306,2.7386127875258306,0,1,1,-2.7386127875258306,0A2.7386127875258306,2.7386127875258306,0,1,1,2.7386127875258306,0" stroke="#f58518" stroke-width="2" opacity="0.7"/><path aria-label="x: 0.08; y: −0.92; type: Input" role="graphics-symbol" aria-roledescription="point" transform="translate(378,460)" d="M2.7386127875258306,0A2.7386127875258306,2.7386127875258306,0,1,1,-2.7386127875258306,0A2.7386127875258306,2.7386127875258306,0,1,1,2.7386127875258306,0" stroke="#4c78a8" stroke-width="2" opacity="0.7"/><path aria-label="x: −0.0800095686629; y: −0.919969496371; type: Output" role="graphics-symbol" aria-roledescription="point" transform="translate(321.99665096796895,459.98474818538347)" d="M2.7386127875258306,0A2.7386127875258306,2.7386127875258306,0,1,1,-2.7386127875258306,0A2.7386127875258306,2.7386127875258306,0,1,1,2.7386127875258306,0" stroke="#f58518" stroke-width="2" opacity="0.7"/><path aria-label="x: 0.09; y: −0.91; type: Input" role="graphics-symbol" aria-roledescription="point" transform="translate(381.5,455)" d="M2.7386127875258306,0A2.7386127875258306,2.7386127875258306,0,1,1,-2.7386127875258306,0A2.7386127875258306,2.7386127875258306,0,1,1,2.7386127875258306,0" stroke="#4c78a8" stroke-width="2" opacity="0.7"/><path aria-label="x: −0.0900103904139; y: −0.909969620664; type: Output" role="graphics-symbol" aria-roledescription="point" transform="translate(318.4963633551382,454.984810331951)" d="M2.7386127875258306,0A2.7386127875258306,2.7386127875258306,0,1,1,-2.7386127875258306,0A2.7386127875258306,2.7386127875258306,0,1,1,2.7386127875258306,0" stroke="#f58518" stroke-width="2" opacity="0.7"/><path aria-label="x: 0.1; y: −0.9; type: Input" role="graphics-symbol" aria-roledescription="point" transform="translate(385.00000000000006,450)" d="M2.7386127875258306,0A2.7386127875258306,2.7386127875258306,0,1,1,-2.7386127875258306,0A2.7386127875258306,2.7386127875258306,0,1,1,2.7386127875258306,0" stroke="#4c78a8" stroke-width="2" opacity="0.7"/><path aria-label="x: −0.100011212165; y: −0.899969744957; type: Output" role="graphics-symbol" aria-roledescription="point" transform="translate(314.9960757423074,449.9848724785185)" d="M2.7386127875258306,0A2.7386127875258306,2.7386127875258306,0,1,1,-2.7386127875258306,0A2.7386127875258306,2.7386127875258306,0,1,1,2.7386127875258306,0" stroke="#f58518" stroke-width="2" opacity="0.7"/><path aria-label="x: 0.11; y: −0.89; type: Input" role="graphics-symbol" aria-roledescription="point" transform="translate(388.49999999999994,445)" d="M2.7386127875258306,0A2.7386127875258306,2.7386127875258306,0,1,1,-2.7386127875258306,0A2.7386127875258306,2.7386127875258306,0,1,1,2.7386127875258306,0" stroke="#4c78a8" stroke-width="2" opacity="0.7"/><path aria-label="x: −0.110012033916; y: −0.88996986925; type: Output" role="graphics-symbol" aria-roledescription="point" transform="translate(311.49578812947664,444.9849346250861)" d="M2.7386127875258306,0A2.7386127875258306,2.7386127875258306,0,1,1,-2.7386127875258306,0A2.7386127875258306,2.7386127875258306,0,1,1,2.7386127875258306,0" stroke="#f58518" stroke-width="2" opacity="0.7"/><path aria-label="x: 0.12; y: −0.88; type: Input" role="graphics-symbol" aria-roledescription="point" transform="translate(391.99999999999994,440)" d="M2.7386127875258306,0A2.7386127875258306,2.7386127875258306,0,1,1,-2.7386127875258306,0A2.7386127875258306,2.7386127875258306,0,1,1,2.7386127875258306,0" stroke="#4c78a8" stroke-width="2" opacity="0.7"/><path aria-label="x: −0.120012855667; y: −0.879969993543; type: Output" role="graphics-symbol" aria-roledescription="point" transform="translate(307.9955005166459,439.9849967716536)" d="M2.7386127875258306,0A2.7386127875258306,2.7386127875258306,0,1,1,-2.7386127875258306,0A2.7386127875258306,2.7386127875258306,0,1,1,2.7386127875258306,0" stroke="#f58518" stroke-width="2" opacity="0.7"/><path aria-label="x: 0.13; y: −0.87; type: Input" role="graphics-symbol" aria-roledescription="point" transform="translate(395.49999999999994,435)" d="M2.7386127875258306,0A2.7386127875258306,2.7386127875258306,0,1,1,-2.7386127875258306,0A2.7386127875258306,2.7386127875258306,0,1,1,2.7386127875258306,0" stroke="#4c78a8" stroke-width="2" opacity="0.7"/><path aria-label="x: −0.130013677418; y: −0.869970117836; type: Output" role="graphics-symbol" aria-roledescription="point" transform="translate(304.4952129038152,434.9850589182213)" d="M2.7386127875258306,0A2.7386127875258306,2.7386127875258306,0,1,1,-2.7386127875258306,0A2.7386127875258306,2.7386127875258306,0,1,1,2.7386127875258306,0" stroke="#f58518" stroke-width="2" opacity="0.7"/><path aria-label="x: 0.14; y: −0.86; type: Input" role="graphics-symbol" aria-roledescription="point" transform="translate(398.99999999999994,430)" d="M2.7386127875258306,0A2.7386127875258306,2.7386127875258306,0,1,1,-2.7386127875258306,0A2.7386127875258306,2.7386127875258306,0,1,1,2.7386127875258306,0" stroke="#4c78a8" stroke-width="2" opacity="0.7"/><path aria-label="x: −0.140014499169; y: −0.85997024213; type: Output" role="graphics-symbol" aria-roledescription="point" transform="translate(300.9949252909844,429.98512106478876)" d="M2.7386127875258306,0A2.7386127875258306,2.7386127875258306,0,1,1,-2.7386127875258306,0A2.7386127875258306,2.7386127875258306,0,1,1,2.7386127875258306,0" stroke="#f58518" stroke-width="2" opacity="0.7"/><path aria-label="x: 0.15; y: −0.85; type: Input" role="graphics-symbol" aria-roledescription="point" transform="translate(402.49999999999994,425)" d="M2.7386127875258306,0A2.7386127875258306,2.7386127875258306,0,1,1,-2.7386127875258306,0A2.7386127875258306,2.7386127875258306,0,1,1,2.7386127875258306,0" stroke="#4c78a8" stroke-width="2" opacity="0.7"/><path aria-label="x: −0.15001532092; y: −0.849970366423; type: Output" role="graphics-symbol" aria-roledescription="point" transform="translate(297.49463767815365,424.98518321135634)" d="M2.7386127875258306,0A2.7386127875258306,2.7386127875258306,0,1,1,-2.7386127875258306,0A2.7386127875258306,2.7386127875258306,0,1,1,2.7386127875258306,0" stroke="#f58518" stroke-width="2" opacity="0.7"/><path aria-label="x: 0.16; y: −0.84; type: Input" role="graphics-symbol" aria-roledescription="point" transform="translate(406,420)" d="M2.7386127875258306,0A2.7386127875258306,2.7386127875258306,0,1,1,-2.7386127875258306,0A2.7386127875258306,2.7386127875258306,0,1,1,2.7386127875258306,0" stroke="#4c78a8" stroke-width="2" opacity="0.7"/><path aria-label="x: −0.160016142671; y: −0.839970490716; type: Output" role="graphics-symbol" aria-roledescription="point" transform="translate(293.99435006532286,419.985245357924)" d="M2.7386127875258306,0A2.7386127875258306,2.7386127875258306,0,1,1,-2.7386127875258306,0A2.7386127875258306,2.7386127875258306,0,1,1,2.7386127875258306,0" stroke="#f58518" stroke-width="2" opacity="0.7"/><path aria-label="x: 0.17; y: −0.83; type: Input" role="graphics-symbol" aria-roledescription="point" transform="translate(409.5,415)" d="M2.7386127875258306,0A2.7386127875258306,2.7386127875258306,0,1,1,-2.7386127875258306,0A2.7386127875258306,2.7386127875258306,0,1,1,2.7386127875258306,0" stroke="#4c78a8" stroke-width="2" opacity="0.7"/><path aria-label="x: −0.170016964421; y: −0.829970615009; type: Output" role="graphics-symbol" aria-roledescription="point" transform="translate(290.49406245249213,414.98530750449146)" d="M2.7386127875258306,0A2.7386127875258306,2.7386127875258306,0,1,1,-2.7386127875258306,0A2.7386127875258306,2.7386127875258306,0,1,1,2.7386127875258306,0" stroke="#f58518" stroke-width="2" opacity="0.7"/><path aria-label="x: 0.18; y: −0.82; type: Input" role="graphics-symbol" aria-roledescription="point" transform="translate(413,410)" d="M2.7386127875258306,0A2.7386127875258306,2.7386127875258306,0,1,1,-2.7386127875258306,0A2.7386127875258306,2.7386127875258306,0,1,1,2.7386127875258306,0" stroke="#4c78a8" stroke-width="2" opacity="0.7"/><path aria-label="x: −0.180017786172; y: −0.819970739302; type: Output" role="graphics-symbol" aria-roledescription="point" transform="translate(286.9937748396613,409.98536965105905)" d="M2.7386127875258306,0A2.7386127875258306,2.7386127875258306,0,1,1,-2.7386127875258306,0A2.7386127875258306,2.7386127875258306,0,1,1,2.7386127875258306,0" stroke="#f58518" stroke-width="2" opacity="0.7"/><path aria-label="x: 0.19; y: −0.81; type: Input" role="graphics-symbol" aria-roledescription="point" transform="translate(416.5,404.99999999999994)" d="M2.7386127875258306,0A2.7386127875258306,2.7386127875258306,0,1,1,-2.7386127875258306,0A2.7386127875258306,2.7386127875258306,0,1,1,2.7386127875258306,0" stroke="#4c78a8" stroke-width="2" opacity="0.7"/><path aria-label="x: −0.190018607923; y: −0.809970863595; type: Output" role="graphics-symbol" aria-roledescription="point" transform="translate(283.49348722683055,404.98543179762663)" d="M2.7386127875258306,0A2.7386127875258306,2.7386127875258306,0,1,1,-2.7386127875258306,0A2.7386127875258306,2.7386127875258306,0,1,1,2.7386127875258306,0" stroke="#f58518" stroke-width="2" opacity="0.7"/><path aria-label="x: 0.2; y: −0.8; type: Input" role="graphics-symbol" aria-roledescription="point" transform="translate(420,399.99999999999994)" d="M2.7386127875258306,0A2.7386127875258306,2.7386127875258306,0,1,1,-2.7386127875258306,0A2.7386127875258306,2.7386127875258306,0,1,1,2.7386127875258306,0" stroke="#4c78a8" stroke-width="2" opacity="0.7"/><path aria-label="x: −0.200019429674; y: −0.799970987888; type: Output" role="graphics-symbol" aria-roledescription="point" transform="translate(279.9931996139998,399.9854939441943)" d="M2.7386127875258306,0A2.7386127875258306,2.7386127875258306,0,1,1,-2.7386127875258306,0A2.7386127875258306,2.7386127875258306,0,1,1,2.7386127875258306,0" stroke="#f58518" stroke-width="2" opacity="0.7"/><path aria-label="x: 0.21; y: −0.79; type: Input" role="graphics-symbol" aria-roledescription="point" transform="translate(423.5,394.99999999999994)" d="M2.7386127875258306,0A2.7386127875258306,2.7386127875258306,0,1,1,-2.7386127875258306,0A2.7386127875258306,2.7386127875258306,0,1,1,2.7386127875258306,0" stroke="#4c78a8" stroke-width="2" opacity="0.7"/><path aria-label="x: −0.210020251425; y: −0.789971112182; type: Output" role="graphics-symbol" aria-roledescription="point" transform="translate(276.4929120011691,394.9855560907618)" d="M2.7386127875258306,0A2.7386127875258306,2.7386127875258306,0,1,1,-2.7386127875258306,0A2.7386127875258306,2.7386127875258306,0,1,1,2.7386127875258306,0" stroke="#f58518" stroke-width="2" opacity="0.7"/><path aria-label="x: 0.22; y: −0.78; type: Input" role="graphics-symbol" aria-roledescription="point" transform="translate(427,389.99999999999994)" d="M2.7386127875258306,0A2.7386127875258306,2.7386127875258306,0,1,1,-2.7386127875258306,0A2.7386127875258306,2.7386127875258306,0,1,1,2.7386127875258306,0" stroke="#4c78a8" stroke-width="2" opacity="0.7"/><path aria-label="x: −0.220021073176; y: −0.779971236475; type: Output" role="graphics-symbol" aria-roledescription="point" transform="translate(272.9926243883383,389.9856182373293)" d="M2.7386127875258306,0A2.7386127875258306,2.7386127875258306,0,1,1,-2.7386127875258306,0A2.7386127875258306,2.7386127875258306,0,1,1,2.7386127875258306,0" stroke="#f58518" stroke-width="2" opacity="0.7"/><path aria-label="x: 0.23; y: −0.77; type: Input" role="graphics-symbol" aria-roledescription="point" transform="translate(430.5,384.99999999999994)" d="M2.7386127875258306,0A2.7386127875258306,2.7386127875258306,0,1,1,-2.7386127875258306,0A2.7386127875258306,2.7386127875258306,0,1,1,2.7386127875258306,0" stroke="#4c78a8" stroke-width="2" opacity="0.7"/><path aria-label="x: −0.230021894927; y: −0.769971360768; type: Output" role="graphics-symbol" aria-roledescription="point" transform="translate(269.4923367755075,384.9856803838969)" d="M2.7386127875258306,0A2.7386127875258306,2.7386127875258306,0,1,1,-2.7386127875258306,0A2.7386127875258306,2.7386127875258306,0,1,1,2.7386127875258306,0" stroke="#f58518" stroke-width="2" opacity="0.7"/><path aria-label="x: 0.24; y: −0.76; type: Input" role="graphics-symbol" aria-roledescription="point" transform="translate(434,379.99999999999994)" d="M2.7386127875258306,0A2.7386127875258306,2.7386127875258306,0,1,1,-2.7386127875258306,0A2.7386127875258306,2.7386127875258306,0,1,1,2.7386127875258306,0" stroke="#4c78a8" stroke-width="2" opacity="0.7"/><path aria-label="x: −0.240022716678; y: −0.759971485061; type: Output" role="graphics-symbol" aria-roledescription="point" transform="translate(265.9920491626768,379.98574253046434)" d="M2.7386127875258306,0A2.7386127875258306,2.7386127875258306,0,1,1,-2.7386127875258306,0A2.7386127875258306,2.7386127875258306,0,1,1,2.7386127875258306,0" stroke="#f58518" stroke-width="2" opacity="0.7"/><path aria-label="x: 0.25; y: −0.75; type: Input" role="graphics-symbol" aria-roledescription="point" transform="translate(437.5,375)" d="M2.7386127875258306,0A2.7386127875258306,2.7386127875258306,0,1,1,-2.7386127875258306,0A2.7386127875258306,2.7386127875258306,0,1,1,2.7386127875258306,0" stroke="#4c78a8" stroke-width="2" opacity="0.7"/><path aria-label="x: −0.250023538429; y: −0.749971609354; type: Output" role="graphics-symbol" aria-roledescription="point" transform="translate(262.49176154984605,374.9858046770321)" d="M2.7386127875258306,0A2.7386127875258306,2.7386127875258306,0,1,1,-2.7386127875258306,0A2.7386127875258306,2.7386127875258306,0,1,1,2.7386127875258306,0" stroke="#f58518" stroke-width="2" opacity="0.7"/><path aria-label="x: 0.26; y: −0.74; type: Input" role="graphics-symbol" aria-roledescription="point" transform="translate(441,370)" d="M2.7386127875258306,0A2.7386127875258306,2.7386127875258306,0,1,1,-2.7386127875258306,0A2.7386127875258306,2.7386127875258306,0,1,1,2.7386127875258306,0" stroke="#4c78a8" stroke-width="2" opacity="0.7"/><path aria-label="x: −0.26002436018; y: −0.739971733647; type: Output" role="graphics-symbol" aria-roledescription="point" transform="translate(258.99147393701526,369.9858668235997)" d="M2.7386127875258306,0A2.7386127875258306,2.7386127875258306,0,1,1,-2.7386127875258306,0A2.7386127875258306,2.7386127875258306,0,1,1,2.7386127875258306,0" stroke="#f58518" stroke-width="2" opacity="0.7"/><path aria-label="x: 0.27; y: −0.73; type: Input" role="graphics-symbol" aria-roledescription="point" transform="translate(444.5,365)" d="M2.7386127875258306,0A2.7386127875258306,2.7386127875258306,0,1,1,-2.7386127875258306,0A2.7386127875258306,2.7386127875258306,0,1,1,2.7386127875258306,0" stroke="#4c78a8" stroke-width="2" opacity="0.7"/><path aria-label="x: −0.270025181931; y: −0.72997185794; type: Output" role="graphics-symbol" aria-roledescription="point" transform="translate(255.4911863241845,364.9859289701672)" d="M2.7386127875258306,0A2.7386127875258306,2.7386127875258306,0,1,1,-2.7386127875258306,0A2.7386127875258306,2.7386127875258306,0,1,1,2.7386127875258306,0" stroke="#f58518" stroke-width="2" opacity="0.7"/><path aria-label="x: 0.28; y: −0.72; type: Input" role="graphics-symbol" aria-roledescription="point" transform="translate(448,360)" d="M2.7386127875258306,0A2.7386127875258306,2.7386127875258306,0,1,1,-2.7386127875258306,0A2.7386127875258306,2.7386127875258306,0,1,1,2.7386127875258306,0" stroke="#4c78a8" stroke-width="2" opacity="0.7"/><path aria-label="x: −0.280026003682; y: −0.719971982233; type: Output" role="graphics-symbol" aria-roledescription="point" transform="translate(251.99089871135368,359.9859911167348)" d="M2.7386127875258306,0A2.7386127875258306,2.7386127875258306,0,1,1,-2.7386127875258306,0A2.7386127875258306,2.7386127875258306,0,1,1,2.7386127875258306,0" stroke="#f58518" stroke-width="2" opacity="0.7"/><path aria-label="x: 0.29; y: −0.71; type: Input" role="graphics-symbol" aria-roledescription="point" transform="translate(451.5,355)" d="M2.7386127875258306,0A2.7386127875258306,2.7386127875258306,0,1,1,-2.7386127875258306,0A2.7386127875258306,2.7386127875258306,0,1,1,2.7386127875258306,0" stroke="#4c78a8" stroke-width="2" opacity="0.7"/><path aria-label="x: −0.290026825433; y: −0.709972106527; type: Output" role="graphics-symbol" aria-roledescription="point" transform="translate(248.49061109852298,354.9860532633023)" d="M2.7386127875258306,0A2.7386127875258306,2.7386127875258306,0,1,1,-2.7386127875258306,0A2.7386127875258306,2.7386127875258306,0,1,1,2.7386127875258306,0" stroke="#f58518" stroke-width="2" opacity="0.7"/><path aria-label="x: 0.3; y: −0.7; type: Input" role="graphics-symbol" aria-roledescription="point" transform="translate(455,350)" d="M2.7386127875258306,0A2.7386127875258306,2.7386127875258306,0,1,1,-2.7386127875258306,0A2.7386127875258306,2.7386127875258306,0,1,1,2.7386127875258306,0" stroke="#4c78a8" stroke-width="2" opacity="0.7"/><path aria-label="x: −0.300027647184; y: −0.69997223082; type: Output" role="graphics-symbol" aria-roledescription="point" transform="translate(244.99032348569222,349.9861154098699)" d="M2.7386127875258306,0A2.7386127875258306,2.7386127875258306,0,1,1,-2.7386127875258306,0A2.7386127875258306,2.7386127875258306,0,1,1,2.7386127875258306,0" stroke="#f58518" stroke-width="2" opacity="0.7"/><path aria-label="x: 0.31; y: −0.69; type: Input" role="graphics-symbol" aria-roledescription="point" transform="translate(458.5,345)" d="M2.7386127875258306,0A2.7386127875258306,2.7386127875258306,0,1,1,-2.7386127875258306,0A2.7386127875258306,2.7386127875258306,0,1,1,2.7386127875258306,0" stroke="#4c78a8" stroke-width="2" opacity="0.7"/><path aria-label="x: −0.310028468935; y: −0.689972355113; type: Output" role="graphics-symbol" aria-roledescription="point" transform="translate(241.49003587286143,344.9861775564373)" d="M2.7386127875258306,0A2.7386127875258306,2.7386127875258306,0,1,1,-2.7386127875258306,0A2.7386127875258306,2.7386127875258306,0,1,1,2.7386127875258306,0" stroke="#f58518" stroke-width="2" opacity="0.7"/><path aria-label="x: 0.32; y: −0.68; type: Input" role="graphics-symbol" aria-roledescription="point" transform="translate(462,339.99999999999994)" d="M2.7386127875258306,0A2.7386127875258306,2.7386127875258306,0,1,1,-2.7386127875258306,0A2.7386127875258306,2.7386127875258306,0,1,1,2.7386127875258306,0" stroke="#4c78a8" stroke-width="2" opacity="0.7"/><path aria-label="x: −0.320029290686; y: −0.679972479406; type: Output" role="graphics-symbol" aria-roledescription="point" transform="translate(237.98974826003067,339.986239703005)" d="M2.7386127875258306,0A2.7386127875258306,2.7386127875258306,0,1,1,-2.7386127875258306,0A2.7386127875258306,2.7386127875258306,0,1,1,2.7386127875258306,0" stroke="#f58518" stroke-width="2" opacity="0.7"/><path aria-label="x: 0.33; y: −0.67; type: Input" role="graphics-symbol" aria-roledescription="point" transform="translate(465.5,334.99999999999994)" d="M2.7386127875258306,0A2.7386127875258306,2.7386127875258306,0,1,1,-2.7386127875258306,0A2.7386127875258306,2.7386127875258306,0,1,1,2.7386127875258306,0" stroke="#4c78a8" stroke-width="2" opacity="0.7"/><path aria-label="x: −0.330030112437; y: −0.669972603699; type: Output" role="graphics-symbol" aria-roledescription="point" transform="translate(234.48946064719996,334.98630184957256)" d="M2.7386127875258306,0A2.7386127875258306,2.7386127875258306,0,1,1,-2.7386127875258306,0A2.7386127875258306,2.7386127875258306,0,1,1,2.7386127875258306,0" stroke="#f58518" stroke-width="2" opacity="0.7"/><path aria-label="x: 0.34; y: −0.66; type: Input" role="graphics-symbol" aria-roledescription="point" transform="translate(469,329.99999999999994)" d="M2.7386127875258306,0A2.7386127875258306,2.7386127875258306,0,1,1,-2.7386127875258306,0A2.7386127875258306,2.7386127875258306,0,1,1,2.7386127875258306,0" stroke="#4c78a8" stroke-width="2" opacity="0.7"/><path aria-label="x: −0.340030934188; y: −0.659972727992; type: Output" role="graphics-symbol" aria-roledescription="point" transform="translate(230.98917303436917,329.98636399614014)" d="M2.7386127875258306,0A2.7386127875258306,2.7386127875258306,0,1,1,-2.7386127875258306,0A2.7386127875258306,2.7386127875258306,0,1,1,2.7386127875258306,0" stroke="#f58518" stroke-width="2" opacity="0.7"/><path aria-label="x: 0.35; y: −0.65; type: Input" role="graphics-symbol" aria-roledescription="point" transform="translate(472.50000000000006,324.99999999999994)" d="M2.7386127875258306,0A2.7386127875258306,2.7386127875258306,0,1,1,-2.7386127875258306,0A2.7386127875258306,2.7386127875258306,0,1,1,2.7386127875258306,0" stroke="#4c78a8" stroke-width="2" opacity="0.7"/><path aria-label="x: −0.350031755938; y: −0.649972852285; type: Output" role="graphics-symbol" aria-roledescription="point" transform="translate(227.48888542153836,324.98642614270767)" d="M2.7386127875258306,0A2.7386127875258306,2.7386127875258306,0,1,1,-2.7386127875258306,0A2.7386127875258306,2.7386127875258306,0,1,1,2.7386127875258306,0" stroke="#f58518" stroke-width="2" opacity="0.7"/><path aria-label="x: 0.36; y: −0.64; type: Input" role="graphics-symbol" aria-roledescription="point" transform="translate(476.00000000000006,319.99999999999994)" d="M2.7386127875258306,0A2.7386127875258306,2.7386127875258306,0,1,1,-2.7386127875258306,0A2.7386127875258306,2.7386127875258306,0,1,1,2.7386127875258306,0" stroke="#4c78a8" stroke-width="2" opacity="0.7"/><path aria-label="x: −0.360032577689; y: −0.639972976579; type: Output" role="graphics-symbol" aria-roledescription="point" transform="translate(223.9885978087076,319.9864882892752)" d="M2.7386127875258306,0A2.7386127875258306,2.7386127875258306,0,1,1,-2.7386127875258306,0A2.7386127875258306,2.7386127875258306,0,1,1,2.7386127875258306,0" stroke="#f58518" stroke-width="2" opacity="0.7"/><path aria-label="x: 0.37; y: −0.63; type: Input" role="graphics-symbol" aria-roledescription="point" transform="translate(479.50000000000006,314.99999999999994)" d="M2.7386127875258306,0A2.7386127875258306,2.7386127875258306,0,1,1,-2.7386127875258306,0A2.7386127875258306,2.7386127875258306,0,1,1,2.7386127875258306,0" stroke="#4c78a8" stroke-width="2" opacity="0.7"/><path aria-label="x: −0.37003339944; y: −0.629973100872; type: Output" role="graphics-symbol" aria-roledescription="point" transform="translate(220.4883101958769,314.9865504358428)" d="M2.7386127875258306,0A2.7386127875258306,2.7386127875258306,0,1,1,-2.7386127875258306,0A2.7386127875258306,2.7386127875258306,0,1,1,2.7386127875258306,0" stroke="#f58518" stroke-width="2" opacity="0.7"/><path aria-label="x: 0.38; y: −0.62; type: Input" role="graphics-symbol" aria-roledescription="point" transform="translate(483.00000000000006,309.99999999999994)" d="M2.7386127875258306,0A2.7386127875258306,2.7386127875258306,0,1,1,-2.7386127875258306,0A2.7386127875258306,2.7386127875258306,0,1,1,2.7386127875258306,0" stroke="#4c78a8" stroke-width="2" opacity="0.7"/><path aria-label="x: −0.380034221191; y: −0.619973225165; type: Output" role="graphics-symbol" aria-roledescription="point" transform="translate(216.9880225830461,309.9866125824103)" d="M2.7386127875258306,0A2.7386127875258306,2.7386127875258306,0,1,1,-2.7386127875258306,0A2.7386127875258306,2.7386127875258306,0,1,1,2.7386127875258306,0" stroke="#f58518" stroke-width="2" opacity="0.7"/><path aria-label="x: 0.39; y: −0.61; type: Input" role="graphics-symbol" aria-roledescription="point" transform="translate(486.50000000000006,304.99999999999994)" d="M2.7386127875258306,0A2.7386127875258306,2.7386127875258306,0,1,1,-2.7386127875258306,0A2.7386127875258306,2.7386127875258306,0,1,1,2.7386127875258306,0" stroke="#4c78a8" stroke-width="2" opacity="0.7"/><path aria-label="x: −0.390035042942; y: −0.609973349458; type: Output" role="graphics-symbol" aria-roledescription="point" transform="translate(213.48773497021534,304.98667472897796)" d="M2.7386127875258306,0A2.7386127875258306,2.7386127875258306,0,1,1,-2.7386127875258306,0A2.7386127875258306,2.7386127875258306,0,1,1,2.7386127875258306,0" stroke="#f58518" stroke-width="2" opacity="0.7"/><path aria-label="x: 0.4; y: −0.6; type: Input" role="graphics-symbol" aria-roledescription="point" transform="translate(490.00000000000006,299.99999999999994)" d="M2.7386127875258306,0A2.7386127875258306,2.7386127875258306,0,1,1,-2.7386127875258306,0A2.7386127875258306,2.7386127875258306,0,1,1,2.7386127875258306,0" stroke="#4c78a8" stroke-width="2" opacity="0.7"/><path aria-label="x: −0.400035864693; y: −0.599973473751; type: Output" role="graphics-symbol" aria-roledescription="point" transform="translate(209.98744735738455,299.98673687554555)" d="M2.7386127875258306,0A2.7386127875258306,2.7386127875258306,0,1,1,-2.7386127875258306,0A2.7386127875258306,2.7386127875258306,0,1,1,2.7386127875258306,0" stroke="#f58518" stroke-width="2" opacity="0.7"/><path aria-label="x: 0.41; y: −0.59; type: Input" role="graphics-symbol" aria-roledescription="point" transform="translate(493.50000000000006,294.99999999999994)" d="M2.7386127875258306,0A2.7386127875258306,2.7386127875258306,0,1,1,-2.7386127875258306,0A2.7386127875258306,2.7386127875258306,0,1,1,2.7386127875258306,0" stroke="#4c78a8" stroke-width="2" opacity="0.7"/><path aria-label="x: −0.410036686444; y: −0.589973598044; type: Output" role="graphics-symbol" aria-roledescription="point" transform="translate(206.48715974455382,294.98679902211313)" d="M2.7386127875258306,0A2.7386127875258306,2.7386127875258306,0,1,1,-2.7386127875258306,0A2.7386127875258306,2.7386127875258306,0,1,1,2.7386127875258306,0" stroke="#f58518" stroke-width="2" opacity="0.7"/><path aria-label="x: 0.42; y: −0.58; type: Input" role="graphics-symbol" aria-roledescription="point" transform="translate(497.00000000000006,289.99999999999994)" d="M2.7386127875258306,0A2.7386127875258306,2.7386127875258306,0,1,1,-2.7386127875258306,0A2.7386127875258306,2.7386127875258306,0,1,1,2.7386127875258306,0" stroke="#4c78a8" stroke-width="2" opacity="0.7"/><path aria-label="x: −0.420037508195; y: −0.579973722337; type: Output" role="graphics-symbol" aria-roledescription="point" transform="translate(202.98687213172303,289.9868611686806)" d="M2.7386127875258306,0A2.7386127875258306,2.7386127875258306,0,1,1,-2.7386127875258306,0A2.7386127875258306,2.7386127875258306,0,1,1,2.7386127875258306,0" stroke="#f58518" stroke-width="2" opacity="0.7"/><path aria-label="x: 0.43; y: −0.57; type: Input" role="graphics-symbol" aria-roledescription="point" transform="translate(500.50000000000006,284.99999999999994)" d="M2.7386127875258306,0A2.7386127875258306,2.7386127875258306,0,1,1,-2.7386127875258306,0A2.7386127875258306,2.7386127875258306,0,1,1,2.7386127875258306,0" stroke="#4c78a8" stroke-width="2" opacity="0.7"/><path aria-label="x: −0.430038329946; y: −0.56997384663; type: Output" role="graphics-symbol" aria-roledescription="point" transform="translate(199.48658451889227,284.9869233152482)" d="M2.7386127875258306,0A2.7386127875258306,2.7386127875258306,0,1,1,-2.7386127875258306,0A2.7386127875258306,2.7386127875258306,0,1,1,2.7386127875258306,0" stroke="#f58518" stroke-width="2" opacity="0.7"/><path aria-label="x: 0.44; y: −0.56; type: Input" role="graphics-symbol" aria-roledescription="point" transform="translate(504.00000000000006,279.99999999999994)" d="M2.7386127875258306,0A2.7386127875258306,2.7386127875258306,0,1,1,-2.7386127875258306,0A2.7386127875258306,2.7386127875258306,0,1,1,2.7386127875258306,0" stroke="#4c78a8" stroke-width="2" opacity="0.7"/><path aria-label="x: −0.440039151697; y: −0.559973970924; type: Output" role="graphics-symbol" aria-roledescription="point" transform="translate(195.98629690606148,279.9869854618158)" d="M2.7386127875258306,0A2.7386127875258306,2.7386127875258306,0,1,1,-2.7386127875258306,0A2.7386127875258306,2.7386127875258306,0,1,1,2.7386127875258306,0" stroke="#f58518" stroke-width="2" opacity="0.7"/><path aria-label="x: 0.45; y: −0.55; type: Input" role="graphics-symbol" aria-roledescription="point" transform="translate(507.50000000000006,274.9999999999999)" d="M2.7386127875258306,0A2.7386127875258306,2.7386127875258306,0,1,1,-2.7386127875258306,0A2.7386127875258306,2.7386127875258306,0,1,1,2.7386127875258306,0" stroke="#4c78a8" stroke-width="2" opacity="0.7"/><path aria-label="x: −0.450039973448; y: −0.549974095217; type: Output" role="graphics-symbol" aria-roledescription="point" transform="translate(192.48600929323075,274.9870476083833)" d="M2.7386127875258306,0A2.7386127875258306,2.7386127875258306,0,1,1,-2.7386127875258306,0A2.7386127875258306,2.7386127875258306,0,1,1,2.7386127875258306,0" stroke="#f58518" stroke-width="2" opacity="0.7"/><path aria-label="x: 0.46; y: −0.54; type: Input" role="graphics-symbol" aria-roledescription="point" transform="translate(511.00000000000006,269.9999999999999)" d="M2.7386127875258306,0A2.7386127875258306,2.7386127875258306,0,1,1,-2.7386127875258306,0A2.7386127875258306,2.7386127875258306,0,1,1,2.7386127875258306,0" stroke="#4c78a8" stroke-width="2" opacity="0.7"/><path aria-label="x: −0.460040795199; y: −0.53997421951; type: Output" role="graphics-symbol" aria-roledescription="point" transform="translate(188.98572168040002,269.9871097549509)" d="M2.7386127875258306,0A2.7386127875258306,2.7386127875258306,0,1,1,-2.7386127875258306,0A2.7386127875258306,2.7386127875258306,0,1,1,2.7386127875258306,0" stroke="#f58518" stroke-width="2" opacity="0.7"/><path aria-label="x: 0.47; y: −0.53; type: Input" role="graphics-symbol" aria-roledescription="point" transform="translate(514.5000000000001,264.9999999999999)" d="M2.7386127875258306,0A2.7386127875258306,2.7386127875258306,0,1,1,-2.7386127875258306,0A2.7386127875258306,2.7386127875258306,0,1,1,2.7386127875258306,0" stroke="#4c78a8" stroke-width="2" opacity="0.7"/><path aria-label="x: −0.47004161695; y: −0.529974343803; type: Output" role="graphics-symbol" aria-roledescription="point" transform="translate(185.4854340675693,264.9871719015185)" d="M2.7386127875258306,0A2.7386127875258306,2.7386127875258306,0,1,1,-2.7386127875258306,0A2.7386127875258306,2.7386127875258306,0,1,1,2.7386127875258306,0" stroke="#f58518" stroke-width="2" opacity="0.7"/><path aria-label="x: 0.48; y: −0.52; type: Input" role="graphics-symbol" aria-roledescription="point" transform="translate(518.0000000000001,259.9999999999999)" d="M2.7386127875258306,0A2.7386127875258306,2.7386127875258306,0,1,1,-2.7386127875258306,0A2.7386127875258306,2.7386127875258306,0,1,1,2.7386127875258306,0" stroke="#4c78a8" stroke-width="2" opacity="0.7"/><path aria-label="x: −0.480042438701; y: −0.519974468096; type: Output" role="graphics-symbol" aria-roledescription="point" transform="translate(181.98514645473847,259.987234048086)" d="M2.7386127875258306,0A2.7386127875258306,2.7386127875258306,0,1,1,-2.7386127875258306,0A2.7386127875258306,2.7386127875258306,0,1,1,2.7386127875258306,0" stroke="#f58518" stroke-width="2" opacity="0.7"/><path aria-label="x: 0.49; y: −0.51; type: Input" role="graphics-symbol" aria-roledescription="point" transform="translate(521.5000000000001,254.9999999999999)" d="M2.7386127875258306,0A2.7386127875258306,2.7386127875258306,0,1,1,-2.7386127875258306,0A2.7386127875258306,2.7386127875258306,0,1,1,2.7386127875258306,0" stroke="#4c78a8" stroke-width="2" opacity="0.7"/><path aria-label="x: −0.490043260452; y: −0.509974592389; type: Output" role="graphics-symbol" aria-roledescription="point" transform="translate(178.48485884190774,254.98729619465354)" d="M2.7386127875258306,0A2.7386127875258306,2.7386127875258306,0,1,1,-2.7386127875258306,0A2.7386127875258306,2.7386127875258306,0,1,1,2.7386127875258306,0" stroke="#f58518" stroke-width="2" opacity="0.7"/><path aria-label="x: 0.5; y: −0.5; type: Input" role="graphics-symbol" aria-roledescription="point" transform="translate(525.0000000000001,249.9999999999999)" d="M2.7386127875258306,0A2.7386127875258306,2.7386127875258306,0,1,1,-2.7386127875258306,0A2.7386127875258306,2.7386127875258306,0,1,1,2.7386127875258306,0" stroke="#4c78a8" stroke-width="2" opacity="0.7"/><path aria-label="x: −0.500044082203; y: −0.499974716682; type: Output" role="graphics-symbol" aria-roledescription="point" transform="translate(174.98457122907703,249.98735834122115)" d="M2.7386127875258306,0A2.7386127875258306,2.7386127875258306,0,1,1,-2.7386127875258306,0A2.7386127875258306,2.7386127875258306,0,1,1,2.7386127875258306,0" stroke="#f58518" stroke-width="2" opacity="0.7"/><path aria-label="x: 0.51; y: −0.49; type: Input" role="graphics-symbol" aria-roledescription="point" transform="translate(528.5000000000001,244.9999999999999)" d="M2.7386127875258306,0A2.7386127875258306,2.7386127875258306,0,1,1,-2.7386127875258306,0A2.7386127875258306,2.7386127875258306,0,1,1,2.7386127875258306,0" stroke="#4c78a8" stroke-width="2" opacity="0.7"/><path aria-label="x: −0.510044903954; y: −0.489974840976; type: Output" role="graphics-symbol" aria-roledescription="point" transform="translate(171.48428361624622,244.9874204877887)" d="M2.7386127875258306,0A2.7386127875258306,2.7386127875258306,0,1,1,-2.7386127875258306,0A2.7386127875258306,2.7386127875258306,0,1,1,2.7386127875258306,0" stroke="#f58518" stroke-width="2" opacity="0.7"/><path aria-label="x: 0.52; y: −0.48; type: Input" role="graphics-symbol" aria-roledescription="point" transform="translate(532.0000000000001,239.9999999999999)" d="M2.7386127875258306,0A2.7386127875258306,2.7386127875258306,0,1,1,-2.7386127875258306,0A2.7386127875258306,2.7386127875258306,0,1,1,2.7386127875258306,0" stroke="#4c78a8" stroke-width="2" opacity="0.7"/><path aria-label="x: −0.520045725705; y: −0.479974965269; type: Output" role="graphics-symbol" aria-roledescription="point" transform="translate(167.98399600341543,239.98748263435633)" d="M2.7386127875258306,0A2.7386127875258306,2.7386127875258306,0,1,1,-2.7386127875258306,0A2.7386127875258306,2.7386127875258306,0,1,1,2.7386127875258306,0" stroke="#f58518" stroke-width="2" opacity="0.7"/><path aria-label="x: 0.53; y: −0.47; type: Input" role="graphics-symbol" aria-roledescription="point" transform="translate(535.5000000000001,234.9999999999999)" d="M2.7386127875258306,0A2.7386127875258306,2.7386127875258306,0,1,1,-2.7386127875258306,0A2.7386127875258306,2.7386127875258306,0,1,1,2.7386127875258306,0" stroke="#4c78a8" stroke-width="2" opacity="0.7"/><path aria-label="x: −0.530046547455; y: −0.469975089562; type: Output" role="graphics-symbol" aria-roledescription="point" transform="translate(164.4837083905847,234.98754478092388)" d="M2.7386127875258306,0A2.7386127875258306,2.7386127875258306,0,1,1,-2.7386127875258306,0A2.7386127875258306,2.7386127875258306,0,1,1,2.7386127875258306,0" stroke="#f58518" stroke-width="2" opacity="0.7"/><path aria-label="x: 0.54; y: −0.46; type: Input" role="graphics-symbol" aria-roledescription="point" transform="translate(539.0000000000001,229.99999999999986)" d="M2.7386127875258306,0A2.7386127875258306,2.7386127875258306,0,1,1,-2.7386127875258306,0A2.7386127875258306,2.7386127875258306,0,1,1,2.7386127875258306,0" stroke="#4c78a8" stroke-width="2" opacity="0.7"/><path aria-label="x: −0.540047369206; y: −0.459975213855; type: Output" role="graphics-symbol" aria-roledescription="point" transform="translate(160.98342077775396,229.98760692749144)" d="M2.7386127875258306,0A2.7386127875258306,2.7386127875258306,0,1,1,-2.7386127875258306,0A2.7386127875258306,2.7386127875258306,0,1,1,2.7386127875258306,0" stroke="#f58518" stroke-width="2" opacity="0.7"/><path aria-label="x: 0.55; y: −0.45; type: Input" role="graphics-symbol" aria-roledescription="point" transform="translate(542.5000000000001,224.99999999999986)" d="M2.7386127875258306,0A2.7386127875258306,2.7386127875258306,0,1,1,-2.7386127875258306,0A2.7386127875258306,2.7386127875258306,0,1,1,2.7386127875258306,0" stroke="#4c78a8" stroke-width="2" opacity="0.7"/><path aria-label="x: −0.550048190957; y: −0.449975338148; type: Output" role="graphics-symbol" aria-roledescription="point" transform="translate(157.48313316492315,224.98766907405897)" d="M2.7386127875258306,0A2.7386127875258306,2.7386127875258306,0,1,1,-2.7386127875258306,0A2.7386127875258306,2.7386127875258306,0,1,1,2.7386127875258306,0" stroke="#f58518" stroke-width="2" opacity="0.7"/><path aria-label="x: 0.56; y: −0.44; type: Input" role="graphics-symbol" aria-roledescription="point" transform="translate(546.0000000000001,219.99999999999986)" d="M2.7386127875258306,0A2.7386127875258306,2.7386127875258306,0,1,1,-2.7386127875258306,0A2.7386127875258306,2.7386127875258306,0,1,1,2.7386127875258306,0" stroke="#4c78a8" stroke-width="2" opacity="0.7"/><path aria-label="x: −0.560049012708; y: −0.439975462441; type: Output" role="graphics-symbol" aria-roledescription="point" transform="translate(153.9828455520924,219.98773122062647)" d="M2.7386127875258306,0A2.7386127875258306,2.7386127875258306,0,1,1,-2.7386127875258306,0A2.7386127875258306,2.7386127875258306,0,1,1,2.7386127875258306,0" stroke="#f58518" stroke-width="2" opacity="0.7"/><path aria-label="x: 0.57; y: −0.43; type: Input" role="graphics-symbol" aria-roledescription="point" transform="translate(549.5000000000001,214.99999999999986)" d="M2.7386127875258306,0A2.7386127875258306,2.7386127875258306,0,1,1,-2.7386127875258306,0A2.7386127875258306,2.7386127875258306,0,1,1,2.7386127875258306,0" stroke="#4c78a8" stroke-width="2" opacity="0.7"/><path aria-label="x: −0.570049834459; y: −0.429975586734; type: Output" role="graphics-symbol" aria-roledescription="point" transform="translate(150.48255793926165,214.98779336719414)" d="M2.7386127875258306,0A2.7386127875258306,2.7386127875258306,0,1,1,-2.7386127875258306,0A2.7386127875258306,2.7386127875258306,0,1,1,2.7386127875258306,0" stroke="#f58518" stroke-width="2" opacity="0.7"/><path aria-label="x: 0.58; y: −0.42; type: Input" role="graphics-symbol" aria-roledescription="point" transform="translate(553.0000000000001,209.99999999999986)" d="M2.7386127875258306,0A2.7386127875258306,2.7386127875258306,0,1,1,-2.7386127875258306,0A2.7386127875258306,2.7386127875258306,0,1,1,2.7386127875258306,0" stroke="#4c78a8" stroke-width="2" opacity="0.7"/><path aria-label="x: −0.58005065621; y: −0.419975711028; type: Output" role="graphics-symbol" aria-roledescription="point" transform="translate(146.9822703264309,209.98785551376164)" d="M2.7386127875258306,0A2.7386127875258306,2.7386127875258306,0,1,1,-2.7386127875258306,0A2.7386127875258306,2.7386127875258306,0,1,1,2.7386127875258306,0" stroke="#f58518" stroke-width="2" opacity="0.7"/><path aria-label="x: 0.59; y: −0.41; type: Input" role="graphics-symbol" aria-roledescription="point" transform="translate(556.5000000000001,204.99999999999986)" d="M2.7386127875258306,0A2.7386127875258306,2.7386127875258306,0,1,1,-2.7386127875258306,0A2.7386127875258306,2.7386127875258306,0,1,1,2.7386127875258306,0" stroke="#4c78a8" stroke-width="2" opacity="0.7"/><path aria-label="x: −0.590051477961; y: −0.409975835321; type: Output" role="graphics-symbol" aria-roledescription="point" transform="translate(143.48198271360008,204.98791766032926)" d="M2.7386127875258306,0A2.7386127875258306,2.7386127875258306,0,1,1,-2.7386127875258306,0A2.7386127875258306,2.7386127875258306,0,1,1,2.7386127875258306,0" stroke="#f58518" stroke-width="2" opacity="0.7"/><path aria-label="x: 0.6; y: −0.4; type: Input" role="graphics-symbol" aria-roledescription="point" transform="translate(560.0000000000001,199.99999999999986)" d="M2.7386127875258306,0A2.7386127875258306,2.7386127875258306,0,1,1,-2.7386127875258306,0A2.7386127875258306,2.7386127875258306,0,1,1,2.7386127875258306,0" stroke="#4c78a8" stroke-width="2" opacity="0.7"/><path aria-label="x: −0.600052299712; y: −0.399975959614; type: Output" role="graphics-symbol" aria-roledescription="point" transform="translate(139.98169510076937,199.98797980689676)" d="M2.7386127875258306,0A2.7386127875258306,2.7386127875258306,0,1,1,-2.7386127875258306,0A2.7386127875258306,2.7386127875258306,0,1,1,2.7386127875258306,0" stroke="#f58518" stroke-width="2" opacity="0.7"/><path aria-label="x: 0.61; y: −0.39; type: Input" role="graphics-symbol" aria-roledescription="point" transform="translate(563.5000000000001,194.99999999999983)" d="M2.7386127875258306,0A2.7386127875258306,2.7386127875258306,0,1,1,-2.7386127875258306,0A2.7386127875258306,2.7386127875258306,0,1,1,2.7386127875258306,0" stroke="#4c78a8" stroke-width="2" opacity="0.7"/><path aria-label="x: −0.610053121463; y: −0.389976083907; type: Output" role="graphics-symbol" aria-roledescription="point" transform="translate(136.48140748793858,194.98804195346443)" d="M2.7386127875258306,0A2.7386127875258306,2.7386127875258306,0,1,1,-2.7386127875258306,0A2.7386127875258306,2.7386127875258306,0,1,1,2.7386127875258306,0" stroke="#f58518" stroke-width="2" opacity="0.7"/><path aria-label="x: 0.62; y: −0.38; type: Input" role="graphics-symbol" aria-roledescription="point" transform="translate(567.0000000000001,189.99999999999983)" d="M2.7386127875258306,0A2.7386127875258306,2.7386127875258306,0,1,1,-2.7386127875258306,0A2.7386127875258306,2.7386127875258306,0,1,1,2.7386127875258306,0" stroke="#4c78a8" stroke-width="2" opacity="0.7"/><path aria-label="x: −0.620053943214; y: −0.3799762082; type: Output" role="graphics-symbol" aria-roledescription="point" transform="translate(132.98111987510785,189.98810410003188)" d="M2.7386127875258306,0A2.7386127875258306,2.7386127875258306,0,1,1,-2.7386127875258306,0A2.7386127875258306,2.7386127875258306,0,1,1,2.7386127875258306,0" stroke="#f58518" stroke-width="2" opacity="0.7"/><path aria-label="x: 0.63; y: −0.37; type: Input" role="graphics-symbol" aria-roledescription="point" transform="translate(570.5000000000001,184.99999999999983)" d="M2.7386127875258306,0A2.7386127875258306,2.7386127875258306,0,1,1,-2.7386127875258306,0A2.7386127875258306,2.7386127875258306,0,1,1,2.7386127875258306,0" stroke="#4c78a8" stroke-width="2" opacity="0.7"/><path aria-label="x: −0.630054764965; y: −0.369976332493; type: Output" role="graphics-symbol" aria-roledescription="point" transform="translate(129.48083226227703,184.9881662465994)" d="M2.7386127875258306,0A2.7386127875258306,2.7386127875258306,0,1,1,-2.7386127875258306,0A2.7386127875258306,2.7386127875258306,0,1,1,2.7386127875258306,0" stroke="#f58518" stroke-width="2" opacity="0.7"/><path aria-label="x: 0.64; y: −0.36; type: Input" role="graphics-symbol" aria-roledescription="point" transform="translate(574.0000000000001,179.99999999999983)" d="M2.7386127875258306,0A2.7386127875258306,2.7386127875258306,0,1,1,-2.7386127875258306,0A2.7386127875258306,2.7386127875258306,0,1,1,2.7386127875258306,0" stroke="#4c78a8" stroke-width="2" opacity="0.7"/><path aria-label="x: −0.640055586716; y: −0.359976456786; type: Output" role="graphics-symbol" aria-roledescription="point" transform="translate(125.98054464944626,179.98822839316702)" d="M2.7386127875258306,0A2.7386127875258306,2.7386127875258306,0,1,1,-2.7386127875258306,0A2.7386127875258306,2.7386127875258306,0,1,1,2.7386127875258306,0" stroke="#f58518" stroke-width="2" opacity="0.7"/><path aria-label="x: 0.65; y: −0.35; type: Input" role="graphics-symbol" aria-roledescription="point" transform="translate(577.5000000000001,174.99999999999983)" d="M2.7386127875258306,0A2.7386127875258306,2.7386127875258306,0,1,1,-2.7386127875258306,0A2.7386127875258306,2.7386127875258306,0,1,1,2.7386127875258306,0" stroke="#4c78a8" stroke-width="2" opacity="0.7"/><path aria-label="x: −0.650056408467; y: −0.349976581079; type: Output" role="graphics-symbol" aria-roledescription="point" transform="translate(122.48025703661548,174.98829053973463)" d="M2.7386127875258306,0A2.7386127875258306,2.7386127875258306,0,1,1,-2.7386127875258306,0A2.7386127875258306,2.7386127875258306,0,1,1,2.7386127875258306,0" stroke="#f58518" stroke-width="2" opacity="0.7"/><path aria-label="x: 0.66; y: −0.34; type: Input" role="graphics-symbol" aria-roledescription="point" transform="translate(581.0000000000001,169.99999999999983)" d="M2.7386127875258306,0A2.7386127875258306,2.7386127875258306,0,1,1,-2.7386127875258306,0A2.7386127875258306,2.7386127875258306,0,1,1,2.7386127875258306,0" stroke="#4c78a8" stroke-width="2" opacity="0.7"/><path aria-label="x: −0.660057230218; y: −0.339976705373; type: Output" role="graphics-symbol" aria-roledescription="point" transform="translate(118.97996942378475,169.9883526863022)" d="M2.7386127875258306,0A2.7386127875258306,2.7386127875258306,0,1,1,-2.7386127875258306,0A2.7386127875258306,2.7386127875258306,0,1,1,2.7386127875258306,0" stroke="#f58518" stroke-width="2" opacity="0.7"/><path aria-label="x: 0.67; y: −0.33; type: Input" role="graphics-symbol" aria-roledescription="point" transform="translate(584.5000000000001,164.9999999999998)" d="M2.7386127875258306,0A2.7386127875258306,2.7386127875258306,0,1,1,-2.7386127875258306,0A2.7386127875258306,2.7386127875258306,0,1,1,2.7386127875258306,0" stroke="#4c78a8" stroke-width="2" opacity="0.7"/><path aria-label="x: −0.670058051969; y: −0.329976829666; type: Output" role="graphics-symbol" aria-roledescription="point" transform="translate(115.47968181095405,164.98841483286975)" d="M2.7386127875258306,0A2.7386127875258306,2.7386127875258306,0,1,1,-2.7386127875258306,0A2.7386127875258306,2.7386127875258306,0,1,1,2.7386127875258306,0" stroke="#f58518" stroke-width="2" opacity="0.7"/><path aria-label="x: 0.68; y: −0.32; type: Input" role="graphics-symbol" aria-roledescription="point" transform="translate(588.0000000000001,159.9999999999998)" d="M2.7386127875258306,0A2.7386127875258306,2.7386127875258306,0,1,1,-2.7386127875258306,0A2.7386127875258306,2.7386127875258306,0,1,1,2.7386127875258306,0" stroke="#4c78a8" stroke-width="2" opacity="0.7"/><path aria-label="x: −0.68005887372; y: −0.319976953959; type: Output" role="graphics-symbol" aria-roledescription="point" transform="translate(111.97939419812327,159.9884769794373)" d="M2.7386127875258306,0A2.7386127875258306,2.7386127875258306,0,1,1,-2.7386127875258306,0A2.7386127875258306,2.7386127875258306,0,1,1,2.7386127875258306,0" stroke="#f58518" stroke-width="2" opacity="0.7"/><path aria-label="x: 0.69; y: −0.31; type: Input" role="graphics-symbol" aria-roledescription="point" transform="translate(591.5000000000001,154.9999999999998)" d="M2.7386127875258306,0A2.7386127875258306,2.7386127875258306,0,1,1,-2.7386127875258306,0A2.7386127875258306,2.7386127875258306,0,1,1,2.7386127875258306,0" stroke="#4c78a8" stroke-width="2" opacity="0.7"/><path aria-label="x: −0.690059695471; y: −0.309977078252; type: Output" role="graphics-symbol" aria-roledescription="point" transform="translate(108.4791065852925,154.98853912600487)" d="M2.7386127875258306,0A2.7386127875258306,2.7386127875258306,0,1,1,-2.7386127875258306,0A2.7386127875258306,2.7386127875258306,0,1,1,2.7386127875258306,0" stroke="#f58518" stroke-width="2" opacity="0.7"/><path aria-label="x: 0.7; y: −0.3; type: Input" role="graphics-symbol" aria-roledescription="point" transform="translate(595.0000000000001,149.9999999999998)" d="M2.7386127875258306,0A2.7386127875258306,2.7386127875258306,0,1,1,-2.7386127875258306,0A2.7386127875258306,2.7386127875258306,0,1,1,2.7386127875258306,0" stroke="#4c78a8" stroke-width="2" opacity="0.7"/><path aria-label="x: −0.700060517222; y: −0.299977202545; type: Output" role="graphics-symbol" aria-roledescription="point" transform="translate(104.97881897246172,149.98860127257234)" d="M2.7386127875258306,0A2.7386127875258306,2.7386127875258306,0,1,1,-2.7386127875258306,0A2.7386127875258306,2.7386127875258306,0,1,1,2.7386127875258306,0" stroke="#f58518" stroke-width="2" opacity="0.7"/><path aria-label="x: 0.71; y: −0.29; type: Input" role="graphics-symbol" aria-roledescription="point" transform="translate(598.5000000000001,144.9999999999998)" d="M2.7386127875258306,0A2.7386127875258306,2.7386127875258306,0,1,1,-2.7386127875258306,0A2.7386127875258306,2.7386127875258306,0,1,1,2.7386127875258306,0" stroke="#4c78a8" stroke-width="2" opacity="0.7"/><path aria-label="x: −0.710061338972; y: −0.289977326838; type: Output" role="graphics-symbol" aria-roledescription="point" transform="translate(101.4785313596309,144.98866341913995)" d="M2.7386127875258306,0A2.7386127875258306,2.7386127875258306,0,1,1,-2.7386127875258306,0A2.7386127875258306,2.7386127875258306,0,1,1,2.7386127875258306,0" stroke="#f58518" stroke-width="2" opacity="0.7"/><path aria-label="x: 0.72; y: −0.28; type: Input" role="graphics-symbol" aria-roledescription="point" transform="translate(602.0000000000001,139.9999999999998)" d="M2.7386127875258306,0A2.7386127875258306,2.7386127875258306,0,1,1,-2.7386127875258306,0A2.7386127875258306,2.7386127875258306,0,1,1,2.7386127875258306,0" stroke="#4c78a8" stroke-width="2" opacity="0.7"/><path aria-label="x: −0.720062160723; y: −0.279977451131; type: Output" role="graphics-symbol" aria-roledescription="point" transform="translate(97.9782437468002,139.9887255657075)" d="M2.7386127875258306,0A2.7386127875258306,2.7386127875258306,0,1,1,-2.7386127875258306,0A2.7386127875258306,2.7386127875258306,0,1,1,2.7386127875258306,0" stroke="#f58518" stroke-width="2" opacity="0.7"/><path aria-label="x: 0.73; y: −0.27; type: Input" role="graphics-symbol" aria-roledescription="point" transform="translate(605.5000000000001,134.99999999999977)" d="M2.7386127875258306,0A2.7386127875258306,2.7386127875258306,0,1,1,-2.7386127875258306,0A2.7386127875258306,2.7386127875258306,0,1,1,2.7386127875258306,0" stroke="#4c78a8" stroke-width="2" opacity="0.7"/><path aria-label="x: −0.730062982474; y: −0.269977575425; type: Output" role="graphics-symbol" aria-roledescription="point" transform="translate(94.4779561339695,134.98878771227518)" d="M2.7386127875258306,0A2.7386127875258306,2.7386127875258306,0,1,1,-2.7386127875258306,0A2.7386127875258306,2.7386127875258306,0,1,1,2.7386127875258306,0" stroke="#f58518" stroke-width="2" opacity="0.7"/><path aria-label="x: 0.74; y: −0.26; type: Input" role="graphics-symbol" aria-roledescription="point" transform="translate(609.0000000000001,129.99999999999977)" d="M2.7386127875258306,0A2.7386127875258306,2.7386127875258306,0,1,1,-2.7386127875258306,0A2.7386127875258306,2.7386127875258306,0,1,1,2.7386127875258306,0" stroke="#4c78a8" stroke-width="2" opacity="0.7"/><path aria-label="x: −0.740063804225; y: −0.259977699718; type: Output" role="graphics-symbol" aria-roledescription="point" transform="translate(90.97766852113865,129.98884985884274)" d="M2.7386127875258306,0A2.7386127875258306,2.7386127875258306,0,1,1,-2.7386127875258306,0A2.7386127875258306,2.7386127875258306,0,1,1,2.7386127875258306,0" stroke="#f58518" stroke-width="2" opacity="0.7"/><path aria-label="x: 0.75; y: −0.25; type: Input" role="graphics-symbol" aria-roledescription="point" transform="translate(612.5000000000001,124.99999999999977)" d="M2.7386127875258306,0A2.7386127875258306,2.7386127875258306,0,1,1,-2.7386127875258306,0A2.7386127875258306,2.7386127875258306,0,1,1,2.7386127875258306,0" stroke="#4c78a8" stroke-width="2" opacity="0.7"/><path aria-label="x: −0.750064625976; y: −0.249977824011; type: Output" role="graphics-symbol" aria-roledescription="point" transform="translate(87.47738090830788,124.98891200541024)" d="M2.7386127875258306,0A2.7386127875258306,2.7386127875258306,0,1,1,-2.7386127875258306,0A2.7386127875258306,2.7386127875258306,0,1,1,2.7386127875258306,0" stroke="#f58518" stroke-width="2" opacity="0.7"/><path aria-label="x: 0.76; y: −0.24; type: Input" role="graphics-symbol" aria-roledescription="point" transform="translate(616.0000000000001,119.99999999999977)" d="M2.7386127875258306,0A2.7386127875258306,2.7386127875258306,0,1,1,-2.7386127875258306,0A2.7386127875258306,2.7386127875258306,0,1,1,2.7386127875258306,0" stroke="#4c78a8" stroke-width="2" opacity="0.7"/><path aria-label="x: −0.760065447727; y: −0.239977948304; type: Output" role="graphics-symbol" aria-roledescription="point" transform="translate(83.97709329547709,119.98897415197784)" d="M2.7386127875258306,0A2.7386127875258306,2.7386127875258306,0,1,1,-2.7386127875258306,0A2.7386127875258306,2.7386127875258306,0,1,1,2.7386127875258306,0" stroke="#f58518" stroke-width="2" opacity="0.7"/><path aria-label="x: 0.77; y: −0.23; type: Input" role="graphics-symbol" aria-roledescription="point" transform="translate(619.5000000000001,114.99999999999977)" d="M2.7386127875258306,0A2.7386127875258306,2.7386127875258306,0,1,1,-2.7386127875258306,0A2.7386127875258306,2.7386127875258306,0,1,1,2.7386127875258306,0" stroke="#4c78a8" stroke-width="2" opacity="0.7"/><path aria-label="x: −0.770066269478; y: −0.229978072597; type: Output" role="graphics-symbol" aria-roledescription="point" transform="translate(80.4768056826464,114.9890362985454)" d="M2.7386127875258306,0A2.7386127875258306,2.7386127875258306,0,1,1,-2.7386127875258306,0A2.7386127875258306,2.7386127875258306,0,1,1,2.7386127875258306,0" stroke="#f58518" stroke-width="2" opacity="0.7"/><path aria-label="x: 0.78; y: −0.22; type: Input" role="graphics-symbol" aria-roledescription="point" transform="translate(623.0000000000001,109.99999999999976)" d="M2.7386127875258306,0A2.7386127875258306,2.7386127875258306,0,1,1,-2.7386127875258306,0A2.7386127875258306,2.7386127875258306,0,1,1,2.7386127875258306,0" stroke="#4c78a8" stroke-width="2" opacity="0.7"/><path aria-label="x: −0.780067091229; y: −0.21997819689; type: Output" role="graphics-symbol" aria-roledescription="point" transform="translate(76.97651806981563,109.98909844511296)" d="M2.7386127875258306,0A2.7386127875258306,2.7386127875258306,0,1,1,-2.7386127875258306,0A2.7386127875258306,2.7386127875258306,0,1,1,2.7386127875258306,0" stroke="#f58518" stroke-width="2" opacity="0.7"/><path aria-label="x: 0.79; y: −0.21; type: Input" role="graphics-symbol" aria-roledescription="point" transform="translate(626.5000000000001,104.99999999999976)" d="M2.7386127875258306,0A2.7386127875258306,2.7386127875258306,0,1,1,-2.7386127875258306,0A2.7386127875258306,2.7386127875258306,0,1,1,2.7386127875258306,0" stroke="#4c78a8" stroke-width="2" opacity="0.7"/><path aria-label="x: −0.79006791298; y: −0.209978321183; type: Output" role="graphics-symbol" aria-roledescription="point" transform="translate(73.47623045698492,104.9891605916805)" d="M2.7386127875258306,0A2.7386127875258306,2.7386127875258306,0,1,1,-2.7386127875258306,0A2.7386127875258306,2.7386127875258306,0,1,1,2.7386127875258306,0" stroke="#f58518" stroke-width="2" opacity="0.7"/><path aria-label="x: 0.8; y: −0.2; type: Input" role="graphics-symbol" aria-roledescription="point" transform="translate(630.0000000000002,99.99999999999976)" d="M2.7386127875258306,0A2.7386127875258306,2.7386127875258306,0,1,1,-2.7386127875258306,0A2.7386127875258306,2.7386127875258306,0,1,1,2.7386127875258306,0" stroke="#4c78a8" stroke-width="2" opacity="0.7"/><path aria-label="x: −0.800068734731; y: −0.199978445476; type: Output" role="graphics-symbol" aria-roledescription="point" transform="translate(69.97594284415415,99.98922273824812)" d="M2.7386127875258306,0A2.7386127875258306,2.7386127875258306,0,1,1,-2.7386127875258306,0A2.7386127875258306,2.7386127875258306,0,1,1,2.7386127875258306,0" stroke="#f58518" stroke-width="2" opacity="0.7"/><path aria-label="x: 0.81; y: −0.19; type: Input" role="graphics-symbol" aria-roledescription="point" transform="translate(633.5000000000002,94.99999999999974)" d="M2.7386127875258306,0A2.7386127875258306,2.7386127875258306,0,1,1,-2.7386127875258306,0A2.7386127875258306,2.7386127875258306,0,1,1,2.7386127875258306,0" stroke="#4c78a8" stroke-width="2" opacity="0.7"/><path aria-label="x: −0.810069556482; y: −0.18997856977; type: Output" role="graphics-symbol" aria-roledescription="point" transform="translate(66.47565523132329,94.98928488481562)" d="M2.7386127875258306,0A2.7386127875258306,2.7386127875258306,0,1,1,-2.7386127875258306,0A2.7386127875258306,2.7386127875258306,0,1,1,2.7386127875258306,0" stroke="#f58518" stroke-width="2" opacity="0.7"/><path aria-label="x: 0.82; y: −0.18; type: Input" role="graphics-symbol" aria-roledescription="point" transform="translate(637.0000000000002,89.99999999999974)" d="M2.7386127875258306,0A2.7386127875258306,2.7386127875258306,0,1,1,-2.7386127875258306,0A2.7386127875258306,2.7386127875258306,0,1,1,2.7386127875258306,0" stroke="#4c78a8" stroke-width="2" opacity="0.7"/><path aria-label="x: −0.820070378233; y: −0.179978694063; type: Output" role="graphics-symbol" aria-roledescription="point" transform="translate(62.97536761849259,89.98934703138318)" d="M2.7386127875258306,0A2.7386127875258306,2.7386127875258306,0,1,1,-2.7386127875258306,0A2.7386127875258306,2.7386127875258306,0,1,1,2.7386127875258306,0" stroke="#f58518" stroke-width="2" opacity="0.7"/><path aria-label="x: 0.83; y: −0.17; type: Input" role="graphics-symbol" aria-roledescription="point" transform="translate(640.5000000000002,84.99999999999974)" d="M2.7386127875258306,0A2.7386127875258306,2.7386127875258306,0,1,1,-2.7386127875258306,0A2.7386127875258306,2.7386127875258306,0,1,1,2.7386127875258306,0" stroke="#4c78a8" stroke-width="2" opacity="0.7"/><path aria-label="x: −0.830071199984; y: −0.169978818356; type: Output" role="graphics-symbol" aria-roledescription="point" transform="translate(59.47508000566181,84.98940917795072)" d="M2.7386127875258306,0A2.7386127875258306,2.7386127875258306,0,1,1,-2.7386127875258306,0A2.7386127875258306,2.7386127875258306,0,1,1,2.7386127875258306,0" stroke="#f58518" stroke-width="2" opacity="0.7"/><path aria-label="x: 0.84; y: −0.16; type: Input" role="graphics-symbol" aria-roledescription="point" transform="translate(644.0000000000002,79.99999999999974)" d="M2.7386127875258306,0A2.7386127875258306,2.7386127875258306,0,1,1,-2.7386127875258306,0A2.7386127875258306,2.7386127875258306,0,1,1,2.7386127875258306,0" stroke="#4c78a8" stroke-width="2" opacity="0.7"/><path aria-label="x: −0.840072021735; y: −0.159978942649; type: Output" role="graphics-symbol" aria-roledescription="point" transform="translate(55.974792392830956,79.98947132451833)" d="M2.7386127875258306,0A2.7386127875258306,2.7386127875258306,0,1,1,-2.7386127875258306,0A2.7386127875258306,2.7386127875258306,0,1,1,2.7386127875258306,0" stroke="#f58518" stroke-width="2" opacity="0.7"/><path aria-label="x: 0.85; y: −0.15; type: Input" role="graphics-symbol" aria-roledescription="point" transform="translate(647.5000000000002,74.99999999999973)" d="M2.7386127875258306,0A2.7386127875258306,2.7386127875258306,0,1,1,-2.7386127875258306,0A2.7386127875258306,2.7386127875258306,0,1,1,2.7386127875258306,0" stroke="#4c78a8" stroke-width="2" opacity="0.7"/><path aria-label="x: −0.850072843486; y: −0.149979066942; type: Output" role="graphics-symbol" aria-roledescription="point" transform="translate(52.47450478000034,74.98953347108589)" d="M2.7386127875258306,0A2.7386127875258306,2.7386127875258306,0,1,1,-2.7386127875258306,0A2.7386127875258306,2.7386127875258306,0,1,1,2.7386127875258306,0" stroke="#f58518" stroke-width="2" opacity="0.7"/><path aria-label="x: 0.86; y: −0.14; type: Input" role="graphics-symbol" aria-roledescription="point" transform="translate(651.0000000000002,69.99999999999973)" d="M2.7386127875258306,0A2.7386127875258306,2.7386127875258306,0,1,1,-2.7386127875258306,0A2.7386127875258306,2.7386127875258306,0,1,1,2.7386127875258306,0" stroke="#4c78a8" stroke-width="2" opacity="0.7"/><path aria-label="x: −0.860073665237; y: −0.139979191235; type: Output" role="graphics-symbol" aria-roledescription="point" transform="translate(48.974217167169485,69.98959561765345)" d="M2.7386127875258306,0A2.7386127875258306,2.7386127875258306,0,1,1,-2.7386127875258306,0A2.7386127875258306,2.7386127875258306,0,1,1,2.7386127875258306,0" stroke="#f58518" stroke-width="2" opacity="0.7"/><path aria-label="x: 0.87; y: −0.13; type: Input" role="graphics-symbol" aria-roledescription="point" transform="translate(654.5000000000002,64.99999999999973)" d="M2.7386127875258306,0A2.7386127875258306,2.7386127875258306,0,1,1,-2.7386127875258306,0A2.7386127875258306,2.7386127875258306,0,1,1,2.7386127875258306,0" stroke="#4c78a8" stroke-width="2" opacity="0.7"/><path aria-label="x: −0.870074486988; y: −0.129979315528; type: Output" role="graphics-symbol" aria-roledescription="point" transform="translate(45.47392955433878,64.98965776422094)" d="M2.7386127875258306,0A2.7386127875258306,2.7386127875258306,0,1,1,-2.7386127875258306,0A2.7386127875258306,2.7386127875258306,0,1,1,2.7386127875258306,0" stroke="#f58518" stroke-width="2" opacity="0.7"/><path aria-label="x: 0.88; y: −0.12; type: Input" role="graphics-symbol" aria-roledescription="point" transform="translate(658.0000000000002,59.99999999999972)" d="M2.7386127875258306,0A2.7386127875258306,2.7386127875258306,0,1,1,-2.7386127875258306,0A2.7386127875258306,2.7386127875258306,0,1,1,2.7386127875258306,0" stroke="#4c78a8" stroke-width="2" opacity="0.7"/><path aria-label="x: −0.880075308739; y: −0.119979439822; type: Output" role="graphics-symbol" aria-roledescription="point" transform="translate(41.973641941508006,59.98971991078861)" d="M2.7386127875258306,0A2.7386127875258306,2.7386127875258306,0,1,1,-2.7386127875258306,0A2.7386127875258306,2.7386127875258306,0,1,1,2.7386127875258306,0" stroke="#f58518" stroke-width="2" opacity="0.7"/><path aria-label="x: 0.89; y: −0.11; type: Input" role="graphics-symbol" aria-roledescription="point" transform="translate(661.5000000000002,54.999999999999716)" d="M2.7386127875258306,0A2.7386127875258306,2.7386127875258306,0,1,1,-2.7386127875258306,0A2.7386127875258306,2.7386127875258306,0,1,1,2.7386127875258306,0" stroke="#4c78a8" stroke-width="2" opacity="0.7"/><path aria-label="x: −0.890076130489; y: −0.109979564115; type: Output" role="graphics-symbol" aria-roledescription="point" transform="translate(38.47335432867715,54.98978205735611)" d="M2.7386127875258306,0A2.7386127875258306,2.7386127875258306,0,1,1,-2.7386127875258306,0A2.7386127875258306,2.7386127875258306,0,1,1,2.7386127875258306,0" stroke="#f58518" stroke-width="2" opacity="0.7"/><path aria-label="x: 0.9; y: −0.1; type: Input" role="graphics-symbol" aria-roledescription="point" transform="translate(665.0000000000002,49.99999999999971)" d="M2.7386127875258306,0A2.7386127875258306,2.7386127875258306,0,1,1,-2.7386127875258306,0A2.7386127875258306,2.7386127875258306,0,1,1,2.7386127875258306,0" stroke="#4c78a8" stroke-width="2" opacity="0.7"/><path aria-label="x: −0.90007695224; y: −0.0999796884078; type: Output" role="graphics-symbol" aria-roledescription="point" transform="translate(34.97306671584653,49.98984420392372)" d="M2.7386127875258306,0A2.7386127875258306,2.7386127875258306,0,1,1,-2.7386127875258306,0A2.7386127875258306,2.7386127875258306,0,1,1,2.7386127875258306,0" stroke="#f58518" stroke-width="2" opacity="0.7"/><path aria-label="x: 0.91; y: −0.09; type: Input" role="graphics-symbol" aria-roledescription="point" transform="translate(668.5000000000002,44.99999999999971)" d="M2.7386127875258306,0A2.7386127875258306,2.7386127875258306,0,1,1,-2.7386127875258306,0A2.7386127875258306,2.7386127875258306,0,1,1,2.7386127875258306,0" stroke="#4c78a8" stroke-width="2" opacity="0.7"/><path aria-label="x: −0.910077773991; y: −0.089979812701; type: Output" role="graphics-symbol" aria-roledescription="point" transform="translate(31.472779103015753,44.98990635049127)" d="M2.7386127875258306,0A2.7386127875258306,2.7386127875258306,0,1,1,-2.7386127875258306,0A2.7386127875258306,2.7386127875258306,0,1,1,2.7386127875258306,0" stroke="#f58518" stroke-width="2" opacity="0.7"/><path aria-label="x: 0.92; y: −0.08; type: Input" role="graphics-symbol" aria-roledescription="point" transform="translate(672.0000000000002,39.9999999999997)" d="M2.7386127875258306,0A2.7386127875258306,2.7386127875258306,0,1,1,-2.7386127875258306,0A2.7386127875258306,2.7386127875258306,0,1,1,2.7386127875258306,0" stroke="#4c78a8" stroke-width="2" opacity="0.7"/><path aria-label="x: −0.920078595742; y: −0.0799799369941; type: Output" role="graphics-symbol" aria-roledescription="point" transform="translate(27.972491490184975,39.989968497058825)" d="M2.7386127875258306,0A2.7386127875258306,2.7386127875258306,0,1,1,-2.7386127875258306,0A2.7386127875258306,2.7386127875258306,0,1,1,2.7386127875258306,0" stroke="#f58518" stroke-width="2" opacity="0.7"/><path aria-label="x: 0.93; y: −0.07; type: Input" role="graphics-symbol" aria-roledescription="point" transform="translate(675.5000000000002,34.9999999999997)" d="M2.7386127875258306,0A2.7386127875258306,2.7386127875258306,0,1,1,-2.7386127875258306,0A2.7386127875258306,2.7386127875258306,0,1,1,2.7386127875258306,0" stroke="#4c78a8" stroke-width="2" opacity="0.7"/><path aria-label="x: −0.930079417493; y: −0.0699800612873; type: Output" role="graphics-symbol" aria-roledescription="point" transform="translate(24.472203877354197,34.99003064362638)" d="M2.7386127875258306,0A2.7386127875258306,2.7386127875258306,0,1,1,-2.7386127875258306,0A2.7386127875258306,2.7386127875258306,0,1,1,2.7386127875258306,0" stroke="#f58518" stroke-width="2" opacity="0.7"/><path aria-label="x: 0.94; y: −0.06; type: Input" role="graphics-symbol" aria-roledescription="point" transform="translate(679.0000000000002,29.999999999999694)" d="M2.7386127875258306,0A2.7386127875258306,2.7386127875258306,0,1,1,-2.7386127875258306,0A2.7386127875258306,2.7386127875258306,0,1,1,2.7386127875258306,0" stroke="#4c78a8" stroke-width="2" opacity="0.7"/><path aria-label="x: −0.940080239244; y: −0.0599801855804; type: Output" role="graphics-symbol" aria-roledescription="point" transform="translate(20.971916264523422,29.990092790193934)" d="M2.7386127875258306,0A2.7386127875258306,2.7386127875258306,0,1,1,-2.7386127875258306,0A2.7386127875258306,2.7386127875258306,0,1,1,2.7386127875258306,0" stroke="#f58518" stroke-width="2" opacity="0.7"/><path aria-label="x: 0.95; y: −0.05; type: Input" role="graphics-symbol" aria-roledescription="point" transform="translate(682.5000000000002,24.999999999999687)" d="M2.7386127875258306,0A2.7386127875258306,2.7386127875258306,0,1,1,-2.7386127875258306,0A2.7386127875258306,2.7386127875258306,0,1,1,2.7386127875258306,0" stroke="#4c78a8" stroke-width="2" opacity="0.7"/><path aria-label="x: −0.950081060995; y: −0.0499803098735; type: Output" role="graphics-symbol" aria-roledescription="point" transform="translate(17.471628651692644,24.990154936761545)" d="M2.7386127875258306,0A2.7386127875258306,2.7386127875258306,0,1,1,-2.7386127875258306,0A2.7386127875258306,2.7386127875258306,0,1,1,2.7386127875258306,0" stroke="#f58518" stroke-width="2" opacity="0.7"/><path aria-label="x: 0.96; y: −0.04; type: Input" role="graphics-symbol" aria-roledescription="point" transform="translate(686.0000000000002,19.999999999999684)" d="M2.7386127875258306,0A2.7386127875258306,2.7386127875258306,0,1,1,-2.7386127875258306,0A2.7386127875258306,2.7386127875258306,0,1,1,2.7386127875258306,0" stroke="#4c78a8" stroke-width="2" opacity="0.7"/><path aria-label="x: −0.960081882746; y: −0.0399804341667; type: Output" role="graphics-symbol" aria-roledescription="point" transform="translate(13.971341038861945,19.9902170833291)" d="M2.7386127875258306,0A2.7386127875258306,2.7386127875258306,0,1,1,-2.7386127875258306,0A2.7386127875258306,2.7386127875258306,0,1,1,2.7386127875258306,0" stroke="#f58518" stroke-width="2" opacity="0.7"/><path aria-label="x: 0.97; y: −0.03; type: Input" role="graphics-symbol" aria-roledescription="point" transform="translate(689.5000000000002,14.99999999999968)" d="M2.7386127875258306,0A2.7386127875258306,2.7386127875258306,0,1,1,-2.7386127875258306,0A2.7386127875258306,2.7386127875258306,0,1,1,2.7386127875258306,0" stroke="#4c78a8" stroke-width="2" opacity="0.7"/><path aria-label="x: −0.970082704497; y: −0.0299805584598; type: Output" role="graphics-symbol" aria-roledescription="point" transform="translate(10.47105342603109,14.990279229896652)" d="M2.7386127875258306,0A2.7386127875258306,2.7386127875258306,0,1,1,-2.7386127875258306,0A2.7386127875258306,2.7386127875258306,0,1,1,2.7386127875258306,0" stroke="#f58518" stroke-width="2" opacity="0.7"/><path aria-label="x: 0.98; y: −0.02; type: Input" role="graphics-symbol" aria-roledescription="point" transform="translate(693.0000000000002,9.999999999999677)" d="M2.7386127875258306,0A2.7386127875258306,2.7386127875258306,0,1,1,-2.7386127875258306,0A2.7386127875258306,2.7386127875258306,0,1,1,2.7386127875258306,0" stroke="#4c78a8" stroke-width="2" opacity="0.7"/><path aria-label="x: −0.980083526248; y: −0.0199806827529; type: Output" role="graphics-symbol" aria-roledescription="point" transform="translate(6.970765813200392,9.990341376464206)" d="M2.7386127875258306,0A2.7386127875258306,2.7386127875258306,0,1,1,-2.7386127875258306,0A2.7386127875258306,2.7386127875258306,0,1,1,2.7386127875258306,0" stroke="#f58518" stroke-width="2" opacity="0.7"/><path aria-label="x: 0.99; y: −0.01; type: Input" role="graphics-symbol" aria-roledescription="point" transform="translate(696.5000000000002,4.999999999999671)" d="M2.7386127875258306,0A2.7386127875258306,2.7386127875258306,0,1,1,-2.7386127875258306,0A2.7386127875258306,2.7386127875258306,0,1,1,2.7386127875258306,0" stroke="#4c78a8" stroke-width="2" opacity="0.7"/><path aria-label="x: −0.990084347999; y: −0.00998080704606; type: Output" role="graphics-symbol" aria-roledescription="point" transform="translate(3.470478200369614,4.990403523031761)" d="M2.7386127875258306,0A2.7386127875258306,2.7386127875258306,0,1,1,-2.7386127875258306,0A2.7386127875258306,2.7386127875258306,0,1,1,2.7386127875258306,0" stroke="#f58518" stroke-width="2" opacity="0.7"/></g><g class="mark-group role-legend" role="graphics-symbol" aria-roledescription="legend" aria-label="Symbol legend titled 'type' for stroke color with 2 values: Input, Output"><g transform="translate(718,0)"><path class="background" aria-hidden="true" d="M0,0h47v45h-47Z" pointer-events="none"/><g><g class="mark-group role-legend-entry"><g transform="translate(0,16)"><path class="background" aria-hidden="true" d="M0,0h0v0h0Z" pointer-events="none"/><g><g class="mark-group role-scope" role="graphics-object" aria-roledescription="group mark container"><g transform="translate(0,0)"><path class="background" aria-hidden="true" d="M0,0h46.01953125v12.5h-46.01953125Z" pointer-events="none" opacity="1"/><g><g class="mark-symbol role-legend-symbol" pointer-events="none"><path transform="translate(6,6)" d="M5,0A5,5,0,1,1,-5,0A5,5,0,1,1,5,0" stroke="#4c78a8" stroke-width="1.5" opacity="0.7"/></g><g class="mark-text role-legend-label" pointer-events="none"><text text-anchor="start" transform="translate(16,9)" font-family="sans-serif" font-size="10px" fill="#000" opacity="1">Input</text></g></g><path class="foreground" aria-hidden="true" d="" pointer-events="none" display="none"/></g><g transform="translate(0,16)"><path class="background" aria-hidden="true" d="M0,0h46.01953125v12.5h-46.01953125Z" pointer-events="none" opacity="1"/><g><g class="mark-symbol role-legend-symbol" pointer-events="none"><path transform="translate(6,6)" d="M5,0A5,5,0,1,1,-5,0A5,5,0,1,1,5,0" stroke="#f58518" stroke-width="1.5" opacity="0.7"/></g><g class="mark-text role-legend-label" pointer-events="none"><text text-anchor="start" transform="translate(16,9)" font-family="sans-serif" font-size="10px" fill="#000" opacity="1">Output</text></g></g><path class="foreground" aria-hidden="true" d="" pointer-events="none" display="none"/></g></g></g><path class="foreground" aria-hidden="true" d="" pointer-events="none" display="none"/></g></g><g class="mark-text role-legend-title" pointer-events="none"><text text-anchor="start" transform="translate(0,9)" font-family="sans-serif" font-size="11px" font-weight="bold" fill="#000" opacity="1">type</text></g></g><path class="foreground" aria-hidden="true" d="" pointer-events="none" display="none"/></g></g></g><path class="foreground" aria-hidden="true" d="" display="none"/></g></g></g></svg>