<svg xmlns="http://www.w3.org/2000/svg" xmlns:xlink="http://www.w3.org/1999/xlink" version="1.1" class="marks" width="817" height="547" viewBox="0 0 817 547"><rect width="817" height="547" fill="white"/><g fill="none" stroke-miterlimit="10" transform="translate(47,10)"><g class="mark-group role-frame root" role="graphics-object" aria-roledescription="group mark container"><g transform="translate(0,0)"><path class="background" aria-hidden="true" d="M0.5,0.5h700v500h-700Z" stroke="#ddd"/><g><g class="mark-group role-axis" aria-hidden="true"><g transform="translate(0.5,500.5)"><path class="background" aria-hidden="true" d="M0,0h0v0h0Z" pointer-events="none"/><g><g class="mark-rule role-axis-grid" pointer-events="none"><line transform="translate(0,-500)" x2="0" y2="500" stroke="#ddd" stroke-width="1" opacity="1"/><line transform="translate(35,-500)" x2="0" y2="500" stroke="#ddd" stroke-width="1" opacity="1"/><line transform="translate(70,-500)" x2="0" y2="500" stroke="#ddd" stroke-width="1" opacity="1"/><line transform="translate(105,-500)" x2="0" y2="500" stroke="#ddd" stroke-width="1" opacity="1"/><line transform="translate(140,-500)" x2="0" y2="500" stroke="#ddd" stroke-width="1" opacity="1"/><line transform="translate(175,-500)" x2="0" y2="500" stroke="#ddd" stroke-width="1" opacity="1"/><line transform="translate(210,-500)" x2="0" y2="500" stroke="#ddd" stroke-width="1" opacity="1"/><line transform="translate(245,-500)" x2="0" y2="500" stroke="#ddd" stroke-width="1" opacity="1"/><line transform="translate(280,-500)" x2="0" y2="500" stroke="#ddd" stroke-width="1" opacity="1"/><line transform="translate(315,-500)" x2="0" y2="500" stroke="#ddd" stroke-width="1" opacity="1"/><line transform="translate(350,-500)" x2="0" y2="500" stroke="#ddd" stroke-width="1" opacity="1"/><line transform="translate(385,-500)" x2="0" y2="500" stroke="#ddd" stroke-width="1" opacity="1"/><line transform="translate(420,-500)" x2="0" y2="500" stroke="#ddd" stroke-width="1" opacity="1"/><line transform="translate(455,-500)" x2="0" y2="500" stroke="#ddd" stroke-width="1" opacity="1"/><line transform="translate(490,-500)" x2="0" y2="500" stroke="#ddd" stroke-width="1" opacity="1"/><line transform="translate(525,-500)" x2="0" y2="500" stroke="#ddd" stroke-width="1" opacity="1"/><line transform="translate(560,-500)" x2="0" y2="500" stroke="#ddd" stroke-width="1" opacity="1"/><line transform="translate(595,-500)" x2="0" y2="500" stroke="#ddd" stroke-width="1" opacity="1"/><line transform="translate(630,-500)" x2="0" y2="500" stroke="#ddd" stroke-width="1" opacity="1"/><line transform="translate(665,-500)" x2="0" y2="500" stroke="#ddd" stroke-width="1" opacity="1"/><line transform="translate(700,-500)" x2="0" y2="500" stroke="#ddd" stroke-width="1" opacity="1"/></g></g><path class="foreground" aria-hidden="true" d="" pointer-events="none" display="none"/></g></g><g class="mark-group role-axis" aria-hidden="true"><g transform="translate(0.5,0.5)"><path class="background" aria-hidden="true" d="M0,0h0v0h0Z" pointer-events="none"/><g><g class="mark-rule role-axis-grid" pointer-events="none"><line transform="translate(0,500)" x2="700" y2="0" stroke="#ddd" stroke-width="1" opacity="1"/><line transform="translate(0,455)" x2="700" y2="0" stroke="#ddd" stroke-width="1" opacity="1"/><line transform="translate(0,409)" x2="700" y2="0" stroke="#ddd" stroke-width="1" opacity="1"/><line transform="translate(0,364)" x2="700" y2="0" stroke="#ddd" stroke-width="1" opacity="1"/><line transform="translate(0,318)" x2="700" y2="0" stroke="#ddd" stroke-width="1" opacity="1"/><line transform="translate(0,273)" x2="700" y2="0" stroke="#ddd" stroke-width="1" opacity="1"/><line transform="translate(0,227)" x2="700" y2="0" stroke="#ddd" stroke-width="1" opacity="1"/><line transform="translate(0,182)" x2="700" y2="0" stroke="#ddd" stroke-width="1" opacity="1"/><line transform="translate(0,136)" x2="700" y2="0" stroke="#ddd" stroke-width="1" opacity="1"/><line transform="translate(0,91)" x2="700" y2="0" stroke="#ddd" stroke-width="1" opacity="1"/><line transform="translate(0,45)" x2="700" y2="0" stroke="#ddd" stroke-width="1" opacity="1"/><line transform="translate(0,0)" x2="700" y2="0" stroke="#ddd" stroke-width="1" opacity="1"/></g></g><path class="foreground" aria-hidden="true" d="" pointer-events="none" display="none"/></g></g><g class="mark-group role-axis" role="graphics-symbol" aria-roledescription="axis" aria-label="X-axis titled 'x' for a linear scale with values from −1.0 to 1.0"><g transform="translate(0.5,500.5)"><path class="background" aria-hidden="true" d="M0,0h0v0h0Z" pointer-events="none"/><g><g class="mark-rule role-axis-tick" pointer-events="none"><line transform="translate(0,0)" x2="0" y2="5" stroke="#888" stroke-width="1" opacity="1"/><line transform="translate(35,0)" x2="0" y2="5" stroke="#888" stroke-width="1" opacity="1"/><line transform="translate(70,0)" x2="0" y2="5" stroke="#888" stroke-width="1" opacity="1"/><line transform="translate(105,0)" x2="0" y2="5" stroke="#888" stroke-width="1" opacity="1"/><line transform="translate(140,0)" x2="0" y2="5" stroke="#888" stroke-width="1" opacity="1"/><line transform="translate(175,0)" x2="0" y2="5" stroke="#888" stroke-width="1" opacity="1"/><line transform="translate(210,0)" x2="0" y2="5" stroke="#888" stroke-width="1" opacity="1"/><line transform="translate(245,0)" x2="0" y2="5" stroke="#888" stroke-width="1" opacity="1"/><line transform="translate(280,0)" x2="0" y2="5" stroke="#888" stroke-width="1" opacity="1"/><line transform="translate(315,0)" x2="0" y2="5" stroke="#888" stroke-width="1" opacity="1"/><line transform="translate(350,0)" x2="0" y2="5" stroke="#888" stroke-width="1" opacity="1"/><line transform="translate(385,0)" x2="0" y2="5" stroke="#888" stroke-width="1" opacity="1"/><line transform="translate(420,0)" x2="0" y2="5" stroke="#888" stroke-width="1" opacity="1"/><line transform="translate(455,0)" x2="0" y2="5" stroke="#888" stroke-width="1" opacity="1"/><line transform="translate(490,0)" x2="0" y2="5" stroke="#888" stroke-width="1" opacity="1"/><line transform="translate(525,0)" x2="0" y2="5" stroke="#888" stroke-width="1" opacity="1"/><line transform="translate(560,0)" x2="0" y2="5" stroke="#888" stroke-width="1" opacity="1"/><line transform="translate(595,0)" x2="0" y2="5" stroke="#888" stroke-width="1" opacity="1"/><line transform="translate(630,0)" x2="0" y2="5" stroke="#888" stroke-width="1" opacity="1"/><line transform="translate(665,0)" x2="0" y2="5" stroke="#888" stroke-width="1" opacity="1"/><line transform="translate(700,0)" x2="0" y2="5" stroke="#888" stroke-width="1" opacity="1"/></g><g class="mark-text role-axis-label" pointer-events="none"><text text-anchor="start" transform="translate(0,15)" font-family="sans-serif" font-size="10px" fill="#000" opacity="1">−1.0</text><text text-anchor="middle" transform="translate(34.99999999999999,15)" font-family="sans-serif" font-size="10px" fill="#000" opacity="1">−0.9</text><text text-anchor="middle" transform="translate(69.99999999999999,15)" font-family="sans-serif" font-size="10px" fill="#000" opacity="1">−0.8</text><text text-anchor="middle" transform="translate(105.00000000000001,15)" font-family="sans-serif" font-size="10px" fill="#000" opacity="1">−0.7</text><text text-anchor="middle" transform="translate(140,15)" font-family="sans-serif" font-size="10px" fill="#000" opacity="1">−0.6</text><text text-anchor="middle" transform="translate(175,15)" font-family="sans-serif" font-size="10px" fill="#000" opacity="1">−0.5</text><text text-anchor="middle" transform="translate(210,15)" font-family="sans-serif" font-size="10px" fill="#000" opacity="1">−0.4</text><text text-anchor="middle" transform="translate(244.99999999999997,15)" font-family="sans-serif" font-size="10px" fill="#000" opacity="1">−0.3</text><text text-anchor="middle" transform="translate(280,15)" font-family="sans-serif" font-size="10px" fill="#000" opacity="1">−0.2</text><text text-anchor="middle" transform="translate(315,15)" font-family="sans-serif" font-size="10px" fill="#000" opacity="1">−0.1</text><text text-anchor="middle" transform="translate(350,15)" font-family="sans-serif" font-size="10px" fill="#000" opacity="1">0.0</text><text text-anchor="middle" transform="translate(385.00000000000006,15)" font-family="sans-serif" font-size="10px" fill="#000" opacity="1">0.1</text><text text-anchor="middle" transform="translate(420,15)" font-family="sans-serif" font-size="10px" fill="#000" opacity="1">0.2</text><text text-anchor="middle" transform="translate(455,15)" font-family="sans-serif" font-size="10px" fill="#000" opacity="1">0.3</text><text text-anchor="middle" transform="translate(489.99999999999994,15)" font-family="sans-serif" font-size="10px" fill="#000" opacity="1">0.4</text><text text-anchor="middle" transform="translate(525,15)" font-family="sans-serif" font-size="10px" fill="#000" opacity="1">0.5</text><text text-anchor="middle" transform="translate(560,15)" font-family="sans-serif" font-size="10px" fill="#000" opacity="1">0.6</text><text text-anchor="middle" transform="translate(595,15)" font-family="sans-serif" font-size="10px" fill="#000" opacity="1">0.7</text><text text-anchor="middle" transform="translate(630,15)" font-family="sans-serif" font-size="10px" fill="#000" opacity="1">0.8</text><text text-anchor="middle" transform="translate(665,15)" font-family="sans-serif" font-size="10px" fill="#000" opacity="1">0.9</text><text text-anchor="end" transform="translate(700,15)" font-family="sans-serif" font-size="10px" fill="#000" opacity="1">1.0</text></g><g class="mark-rule role-axis-domain" pointer-events="none"><line transform="translate(0,0)" x2="700" y2="0" stroke="#888" stroke-width="1" opacity="1"/></g><g class="mark-text role-axis-title" pointer-events="none"><text text-anchor="middle" transform="translate(350,30)" font-family="sans-serif" font-size="11px" font-weight="bold" fill="#000" opacity="1">x</text></g></g><path class="foreground" aria-hidden="true" d="" pointer-events="none" display="none"/></g></g><g class="mark-group role-axis" role="graphics-symbol" aria-roledescription="axis" aria-label="Y-axis titled 'y' for a linear scale with values from −0.1 to 1.0"><g transform="translate(0.5,0.5)"><path class="background" aria-hidden="true" d="M0,0h0v0h0Z" pointer-events="none"/><g><g class="mark-rule role-axis-tick" pointer-events="none"><line transform="translate(0,500)" x2="-5" y2="0" stroke="#888" stroke-width="1" opacity="1"/><line transform="translate(0,455)" x2="-5" y2="0" stroke="#888" stroke-width="1" opacity="1"/><line transform="translate(0,409)" x2="-5" y2="0" stroke="#888" stroke-width="1" opacity="1"/><line transform="translate(0,364)" x2="-5" y2="0" stroke="#888" stroke-width="1" opacity="1"/><line transform="translate(0,318)" x2="-5" y2="0" stroke="#888" stroke-width="1" opacity="1"/><line transform="translate(0,273)" x2="-5" y2="0" stroke="#888" stroke-width="1" opacity="1"/><line transform="translate(0,227)" x2="-5" y2="0" stroke="#888" stroke-width="1" opacity="1"/><line transform="translate(0,182)" x2="-5" y2="0" stroke="#888" stroke-width="1" opacity="1"/><line transform="translate(0,136)" x2="-5" y2="0" stroke="#888" stroke-width="1" opacity="1"/><line transform="translate(0,91)" x2="-5" y2="0" stroke="#888" stroke-width="1" opacity="1"/><line transform="translate(0,45)" x2="-5" y2="0" stroke="#888" stroke-width="1" opacity="1"/><line transform="translate(0,0)" x2="-5" y2="0" stroke="#888" stroke-width="1" opacity="1"/></g><g class="mark-text role-axis-label" pointer-events="none"><text text-anchor="end" transform="translate(-7,503)" font-family="sans-serif" font-size="10px" fill="#000" opacity="1">−0.1</text><text text-anchor="end" transform="translate(-7,457.5454545454545)" font-family="sans-serif" font-size="10px" fill="#000" opacity="1">0.0</text><text text-anchor="end" transform="translate(-7,412.09090909090907)" font-family="sans-serif" font-size="10px" fill="#000" opacity="1">0.1</text><text text-anchor="end" transform="translate(-7,366.6363636363636)" font-family="sans-serif" font-size="10px" fill="#000" opacity="1">0.2</text><text text-anchor="end" transform="translate(-7,321.1818181818182)" font-family="sans-serif" font-size="10px" fill="#000" opacity="1">0.3</text><text text-anchor="end" transform="translate(-7,275.7272727272727)" font-family="sans-serif" font-size="10px" fill="#000" opacity="1">0.4</text><text text-anchor="end" transform="translate(-7,230.27272727272728)" font-family="sans-serif" font-size="10px" fill="#000" opacity="1">0.5</text><text text-anchor="end" transform="translate(-7,184.81818181818187)" font-family="sans-serif" font-size="10px" fill="#000" opacity="1">0.6</text><text text-anchor="end" transform="translate(-7,139.3636363636364)" font-family="sans-serif" font-size="10px" fill="#000" opacity="1">0.7</text><text text-anchor="end" transform="translate(-7,93.90909090909093)" font-family="sans-serif" font-size="10px" fill="#000" opacity="1">0.8</text><text text-anchor="end" transform="translate(-7,48.45454545454547)" font-family="sans-serif" font-size="10px" fill="#000" opacity="1">0.9</text><text text-anchor="end" transform="translate(-7,3)" font-family="sans-serif" font-size="10px" fill="#000" opacity="1">1.0</text></g><g class="mark-rule role-axis-domain" pointer-events="none"><line transform="translate(0,500)" x2="0" y2="-500" stroke="#888" stroke-width="1" opacity="1"/></g><g class="mark-text role-axis-title" pointer-events="none"><text text-anchor="middle" transform="translate(-30.7412109375,250) rotate(-90) translate(0,-2)" font-family="sans-serif" font-size="11px" font-weight="bold" fill="#000" opacity="1">y</text></g></g><path class="foreground" aria-hidden="true" d="" pointer-events="none" display="none"/></g></g><g class="mark-symbol role-mark marks" role="graphics-object" aria-roledescription="symbol mark container"><path aria-label="x: 0; y: 0; type: Input" role="graphics-symbol" aria-roledescription="point" transform="translate(350,454.5454545454545)" d="M2.7386127875258306,0A2.7386127875258306,2.7386127875258306,0,1,1,-2.7386127875258306,0A2.7386127875258306,2.7386127875258306,0,1,1,2.7386127875258306,0" stroke="#4c78a8" stroke-width="2" opacity="0.7"/><path aria-label="x: −0.0000225824808456; y: −0.0000085273984165; type: Output" role="graphics-symbol" aria-roledescription="point" transform="translate(349.99209613170405,454.54933063564386)" d="M2.7386127875258306,0A2.7386127875258306,2.7386127875258306,0,1,1,-2.7386127875258306,0A2.7386127875258306,2.7386127875258306,0,1,1,2.7386127875258306,0" stroke="#f58518" stroke-width="2" opacity="0.7"/><path aria-label="x: 0.01; y: 1e-8; type: Input" role="graphics-symbol" aria-roledescription="point" transform="translate(353.5,454.54545)" d="M2.7386127875258306,0A2.7386127875258306,2.7386127875258306,0,1,1,-2.7386127875258306,0A2.7386127875258306,2.7386127875258306,0,1,1,2.7386127875258306,0" stroke="#4c78a8" stroke-width="2" opacity="0.7"/><path aria-label="x: −0.0100232083537; y: −0.00000824143822453; type: Output" role="graphics-symbol" aria-roledescription="point" transform="translate(346.4918770761938,454.54920065373847)" d="M2.7386127875258306,0A2.7386127875258306,2.7386127875258306,0,1,1,-2.7386127875258306,0A2.7386127875258306,2.7386127875258306,0,1,1,2.7386127875258306,0" stroke="#f58518" stroke-width="2" opacity="0.7"/><path aria-label="x: 0.02; y: 1.6e-7; type: Input" role="graphics-symbol" aria-roledescription="point" transform="translate(357,454.54538181818185)" d="M2.7386127875258306,0A2.7386127875258306,2.7386127875258306,0,1,1,-2.7386127875258306,0A2.7386127875258306,2.7386127875258306,0,1,1,2.7386127875258306,0" stroke="#4c78a8" stroke-width="2" opacity="0.7"/><path aria-label="x: −0.0200238342294; y: −0.00000781548363621; type: Output" role="graphics-symbol" aria-roledescription="point" transform="translate(342.99165801972384,454.5490070380165)" d="M2.7386127875258306,0A2.7386127875258306,2.7386127875258306,0,1,1,-2.7386127875258306,0A2.7386127875258306,2.7386127875258306,0,1,1,2.7386127875258306,0" stroke="#f58518" stroke-width="2" opacity="0.7"/><path aria-label="x: 0.03; y: 8.1e-7; type: Input" role="graphics-symbol" aria-roledescription="point" transform="translate(360.5,454.54508636363636)" d="M2.7386127875258306,0A2.7386127875258306,2.7386127875258306,0,1,1,-2.7386127875258306,0A2.7386127875258306,2.7386127875258306,0,1,1,2.7386127875258306,0" stroke="#4c78a8" stroke-width="2" opacity="0.7"/><path aria-label="x: −0.0300244601148; y: −0.00000688954906053; type: Output" role="graphics-symbol" aria-roledescription="point" transform="translate(339.4914389598259,454.5485861586639)" d="M2.7386127875258306,0A2.7386127875258306,2.7386127875258306,0,1,1,-2.7386127875258306,0A2.7386127875258306,2.7386127875258306,0,1,1,2.7386127875258306,0" stroke="#f58518" stroke-width="2" opacity="0.7"/><path aria-label="x: 0.04; y: 0.00000256; type: Input" role="graphics-symbol" aria-roledescription="point" transform="translate(364,454.54429090909093)" d="M2.7386127875258306,0A2.7386127875258306,2.7386127875258306,0,1,1,-2.7386127875258306,0A2.7386127875258306,2.7386127875258306,0,1,1,2.7386127875258306,0" stroke="#4c78a8" stroke-width="2" opacity="0.7"/><path aria-label="x: −0.0400250860218; y: −0.00000486365851277; type: Output" role="graphics-symbol" aria-roledescription="point" transform="translate(335.99121989238677,454.547665299324)" d="M2.7386127875258306,0A2.7386127875258306,2.7386127875258306,0,1,1,-2.7386127875258306,0A2.7386127875258306,2.7386127875258306,0,1,1,2.7386127875258306,0" stroke="#f58518" stroke-width="2" opacity="0.7"/><path aria-label="x: 0.05; y: 0.00000625; type: Input" role="graphics-symbol" aria-roledescription="point" transform="translate(367.5,454.5426136363636)" d="M2.7386127875258306,0A2.7386127875258306,2.7386127875258306,0,1,1,-2.7386127875258306,0A2.7386127875258306,2.7386127875258306,0,1,1,2.7386127875258306,0" stroke="#4c78a8" stroke-width="2" opacity="0.7"/><path aria-label="x: −0.0500257119667; y: −8.97845614134e-7; type: Output" role="graphics-symbol" aria-roledescription="point" transform="translate(332.49100081164744,454.54586265709736)" d="M2.7386127875258306,0A2.7386127875258306,2.7386127875258306,0,1,1,-2.7386127875258306,0A2.7386127875258306,2.7386127875258306,0,1,1,2.7386127875258306,0" stroke="#f58518" stroke-width="2" opacity="0.7"/><path aria-label="x: 0.06; y: 0.00001296; type: Input" role="graphics-symbol" aria-roledescription="point" transform="translate(371,454.5395636363636)" d="M2.7386127875258306,0A2.7386127875258306,2.7386127875258306,0,1,1,-2.7386127875258306,0A2.7386127875258306,2.7386127875258306,0,1,1,2.7386127875258306,0" stroke="#4c78a8" stroke-width="2" opacity="0.7"/><path aria-label="x: −0.0600263379708; y: 0.00000608784640782; type: Output" role="graphics-symbol" aria-roledescription="point" transform="translate(328.9907817102038,454.5426873425419)" d="M2.7386127875258306,0A2.7386127875258306,2.7386127875258306,0,1,1,-2.7386127875258306,0A2.7386127875258306,2.7386127875258306,0,1,1,2.7386127875258306,0" stroke="#f58518" stroke-width="2" opacity="0.7"/><path aria-label="x: 0.07; y: 0.00002401; type: Input" role="graphics-symbol" aria-roledescription="point" transform="translate(374.5,454.5345409090909)" d="M2.7386127875258306,0A2.7386127875258306,2.7386127875258306,0,1,1,-2.7386127875258306,0A2.7386127875258306,2.7386127875258306,0,1,1,2.7386127875258306,0" stroke="#4c78a8" stroke-width="2" opacity="0.7"/><path aria-label="x: −0.07002696406; y: 0.0000174133647195; type: Output" role="graphics-symbol" aria-roledescription="point" transform="translate(325.49056257900617,454.537539379673)" d="M2.7386127875258306,0A2.7386127875258306,2.7386127875258306,0,1,1,-2.7386127875258306,0A2.7386127875258306,2.7386127875258306,0,1,1,2.7386127875258306,0" stroke="#f58518" stroke-width="2" opacity="0.7"/><path aria-label="x: 0.08; y: 0.00004096; type: Input" role="graphics-symbol" aria-roledescription="point" transform="translate(378,454.52683636363633)" d="M2.7386127875258306,0A2.7386127875258306,2.7386127875258306,0,1,1,-2.7386127875258306,0A2.7386127875258306,2.7386127875258306,0,1,1,2.7386127875258306,0" stroke="#4c78a8" stroke-width="2" opacity="0.7"/><path aria-label="x: −0.0800275902647; y: 0.0000346386468817; type: Output" role="graphics-symbol" aria-roledescription="point" transform="translate(321.9903434073598,454.52970970596283)" d="M2.7386127875258306,0A2.7386127875258306,2.7386127875258306,0,1,1,-2.7386127875258306,0A2.7386127875258306,2.7386127875258306,0,1,1,2.7386127875258306,0" stroke="#f58518" stroke-width="2" opacity="0.7"/><path aria-label="x: 0.09; y: 0.00006561; type: Input" role="graphics-symbol" aria-roledescription="point" transform="translate(381.5,454.5156318181818)" d="M2.7386127875258306,0A2.7386127875258306,2.7386127875258306,0,1,1,-2.7386127875258306,0A2.7386127875258306,2.7386127875258306,0,1,1,2.7386127875258306,0" stroke="#4c78a8" stroke-width="2" opacity="0.7"/><path aria-label="x: −0.0900282166202; y: 0.0000595636208484; type: Output" role="graphics-symbol" aria-roledescription="point" transform="translate(318.49012418292415,454.51838017234167)" d="M2.7386127875258306,0A2.7386127875258306,2.7386127875258306,0,1,1,-2.7386127875258306,0A2.7386127875258306,2.7386127875258306,0,1,1,2.7386127875258306,0" stroke="#f58518" stroke-width="2" opacity="0.7"/><path aria-label="x: 0.1; y: 0.0001; type: Input" role="graphics-symbol" aria-roledescription="point" transform="translate(385.00000000000006,454.5)" d="M2.7386127875258306,0A2.7386127875258306,2.7386127875258306,0,1,1,-2.7386127875258306,0A2.7386127875258306,2.7386127875258306,0,1,1,2.7386127875258306,0" stroke="#4c78a8" stroke-width="2" opacity="0.7"/><path aria-label="x: −0.100028843167; y: 0.0000942282049681; type: Output" role="graphics-symbol" aria-roledescription="point" transform="translate(314.98990489171365,454.5026235431963)" d="M2.7386127875258306,0A2.7386127875258306,2.7386127875258306,0,1,1,-2.7386127875258306,0A2.7386127875258306,2.7386127875258306,0,1,1,2.7386127875258306,0" stroke="#f58518" stroke-width="2" opacity="0.7"/><path aria-label="x: 0.11; y: 0.00014641; type: Input" role="graphics-symbol" aria-roledescription="point" transform="translate(388.49999999999994,454.47890454545455)" d="M2.7386127875258306,0A2.7386127875258306,2.7386127875258306,0,1,1,-2.7386127875258306,0A2.7386127875258306,2.7386127875258306,0,1,1,2.7386127875258306,0" stroke="#4c78a8" stroke-width="2" opacity="0.7"/><path aria-label="x: −0.110029469948; y: 0.000140912307983; type: Output" role="graphics-symbol" aria-roledescription="point" transform="translate(311.4896855180972,454.48140349637157)" d="M2.7386127875258306,0A2.7386127875258306,2.7386127875258306,0,1,1,-2.7386127875258306,0A2.7386127875258306,2.7386127875258306,0,1,1,2.7386127875258306,0" stroke="#f58518" stroke-width="2" opacity="0.7"/><path aria-label="x: 0.12; y: 0.00020736; type: Input" role="graphics-symbol" aria-roledescription="point" transform="translate(391.99999999999994,454.4512)" d="M2.7386127875258306,0A2.7386127875258306,2.7386127875258306,0,1,1,-2.7386127875258306,0A2.7386127875258306,2.7386127875258306,0,1,1,2.7386127875258306,0" stroke="#4c78a8" stroke-width="2" opacity="0.7"/><path aria-label="x: −0.120030097015; y: 0.000202135829028; type: Output" role="graphics-symbol" aria-roledescription="point" transform="translate(307.98946604479823,454.453574623169)" d="M2.7386127875258306,0A2.7386127875258306,2.7386127875258306,0,1,1,-2.7386127875258306,0A2.7386127875258306,2.7386127875258306,0,1,1,2.7386127875258306,0" stroke="#f58518" stroke-width="2" opacity="0.7"/><path aria-label="x: 0.13; y: 0.00028561; type: Input" role="graphics-symbol" aria-roledescription="point" transform="translate(395.49999999999994,454.4156318181818)" d="M2.7386127875258306,0A2.7386127875258306,2.7386127875258306,0,1,1,-2.7386127875258306,0A2.7386127875258306,2.7386127875258306,0,1,1,2.7386127875258306,0" stroke="#4c78a8" stroke-width="2" opacity="0.7"/><path aria-label="x: −0.13003072442; y: 0.000280658657635; type: Output" role="graphics-symbol" aria-roledescription="point" transform="translate(304.489246452895,454.4178824283477)" d="M2.7386127875258306,0A2.7386127875258306,2.7386127875258306,0,1,1,-2.7386127875258306,0A2.7386127875258306,2.7386127875258306,0,1,1,2.7386127875258306,0" stroke="#f58518" stroke-width="2" opacity="0.7"/><path aria-label="x: 0.14; y: 0.00038416; type: Input" role="graphics-symbol" aria-roledescription="point" transform="translate(398.99999999999994,454.37083636363633)" d="M2.7386127875258306,0A2.7386127875258306,2.7386127875258306,0,1,1,-2.7386127875258306,0A2.7386127875258306,2.7386127875258306,0,1,1,2.7386127875258306,0" stroke="#4c78a8" stroke-width="2" opacity="0.7"/><path aria-label="x: −0.140031352223; y: 0.000379480673727; type: Output" role="graphics-symbol" aria-roledescription="point" transform="translate(300.98902672182027,454.3729633301242)" d="M2.7386127875258306,0A2.7386127875258306,2.7386127875258306,0,1,1,-2.7386127875258306,0A2.7386127875258306,2.7386127875258306,0,1,1,2.7386127875258306,0" stroke="#f58518" stroke-width="2" opacity="0.7"/><path aria-label="x: 0.15; y: 0.00050625; type: Input" role="graphics-symbol" aria-roledescription="point" transform="translate(402.49999999999994,454.31534090909093)" d="M2.7386127875258306,0A2.7386127875258306,2.7386127875258306,0,1,1,-2.7386127875258306,0A2.7386127875258306,2.7386127875258306,0,1,1,2.7386127875258306,0" stroke="#4c78a8" stroke-width="2" opacity="0.7"/><path aria-label="x: −0.150031980488; y: 0.000501841747621; type: Output" role="graphics-symbol" aria-roledescription="point" transform="translate(297.48880682936147,454.3173446601722)" d="M2.7386127875258306,0A2.7386127875258306,2.7386127875258306,0,1,1,-2.7386127875258306,0A2.7386127875258306,2.7386127875258306,0,1,1,2.7386127875258306,0" stroke="#f58518" stroke-width="2" opacity="0.7"/><path aria-label="x: 0.16; y: 0.00065536; type: Input" role="graphics-symbol" aria-roledescription="point" transform="translate(406,454.2475636363636)" d="M2.7386127875258306,0A2.7386127875258306,2.7386127875258306,0,1,1,-2.7386127875258306,0A2.7386127875258306,2.7386127875258306,0,1,1,2.7386127875258306,0" stroke="#4c78a8" stroke-width="2" opacity="0.7"/><path aria-label="x: −0.160032609281; y: 0.00065122174003; type: Output" role="graphics-symbol" aria-roledescription="point" transform="translate(293.98858675166065,454.24944466362274)" d="M2.7386127875258306,0A2.7386127875258306,2.7386127875258306,0,1,1,-2.7386127875258306,0A2.7386127875258306,2.7386127875258306,0,1,1,2.7386127875258306,0" stroke="#f58518" stroke-width="2" opacity="0.7"/><path aria-label="x: 0.17; y: 0.00083521; type: Input" role="graphics-symbol" aria-roledescription="point" transform="translate(409.5,454.1658136363637)" d="M2.7386127875258306,0A2.7386127875258306,2.7386127875258306,0,1,1,-2.7386127875258306,0A2.7386127875258306,2.7386127875258306,0,1,1,2.7386127875258306,0" stroke="#4c78a8" stroke-width="2" opacity="0.7"/><path aria-label="x: −0.170033238677; y: 0.000831340502059; type: Output" role="graphics-symbol" aria-roledescription="point" transform="translate(290.48836646321433,454.16757249906414)" d="M2.7386127875258306,0A2.7386127875258306,2.7386127875258306,0,1,1,-2.7386127875258306,0A2.7386127875258306,2.7386127875258306,0,1,1,2.7386127875258306,0" stroke="#f58518" stroke-width="2" opacity="0.7"/><path aria-label="x: 0.18; y: 0.00104976; type: Input" role="graphics-symbol" aria-roledescription="point" transform="translate(413,454.0682909090909)" d="M2.7386127875258306,0A2.7386127875258306,2.7386127875258306,0,1,1,-2.7386127875258306,0A2.7386127875258306,2.7386127875258306,0,1,1,2.7386127875258306,0" stroke="#4c78a8" stroke-width="2" opacity="0.7"/><path aria-label="x: −0.180033868752; y: 0.00104615787521; type: Output" role="graphics-symbol" aria-roledescription="point" transform="translate(286.9881459368738,454.06992823854216)" d="M2.7386127875258306,0A2.7386127875258306,2.7386127875258306,0,1,1,-2.7386127875258306,0A2.7386127875258306,2.7386127875258306,0,1,1,2.7386127875258306,0" stroke="#f58518" stroke-width="2" opacity="0.7"/><path aria-label="x: 0.19; y: 0.00130321; type: Input" role="graphics-symbol" aria-roledescription="point" transform="translate(416.5,453.9530863636364)" d="M2.7386127875258306,0A2.7386127875258306,2.7386127875258306,0,1,1,-2.7386127875258306,0A2.7386127875258306,2.7386127875258306,0,1,1,2.7386127875258306,0" stroke="#4c78a8" stroke-width="2" opacity="0.7"/><path aria-label="x: −0.190034499589; y: 0.00129987369137; type: Output" role="graphics-symbol" aria-roledescription="point" transform="translate(283.48792514384525,453.9546028675597)" d="M2.7386127875258306,0A2.7386127875258306,2.7386127875258306,0,1,1,-2.7386127875258306,0A2.7386127875258306,2.7386127875258306,0,1,1,2.7386127875258306,0" stroke="#f58518" stroke-width="2" opacity="0.7"/><path aria-label="x: 0.2; y: 0.0016; type: Input" role="graphics-symbol" aria-roledescription="point" transform="translate(420,453.8181818181818)" d="M2.7386127875258306,0A2.7386127875258306,2.7386127875258306,0,1,1,-2.7386127875258306,0A2.7386127875258306,2.7386127875258306,0,1,1,2.7386127875258306,0" stroke="#4c78a8" stroke-width="2" opacity="0.7"/><path aria-label="x: −0.200035131275; y: 0.00159692777283; type: Output" role="graphics-symbol" aria-roledescription="point" transform="translate(279.98770405368884,453.819578285077)" d="M2.7386127875258306,0A2.7386127875258306,2.7386127875258306,0,1,1,-2.7386127875258306,0A2.7386127875258306,2.7386127875258306,0,1,1,2.7386127875258306,0" stroke="#f58518" stroke-width="2" opacity="0.7"/><path aria-label="x: 0.21; y: 0.00194481; type: Input" role="graphics-symbol" aria-roledescription="point" transform="translate(423.5,453.66145)" d="M2.7386127875258306,0A2.7386127875258306,2.7386127875258306,0,1,1,-2.7386127875258306,0A2.7386127875258306,2.7386127875258306,0,1,1,2.7386127875258306,0" stroke="#4c78a8" stroke-width="2" opacity="0.7"/><path aria-label="x: −0.210035763902; y: 0.00194199993227; type: Output" role="graphics-symbol" aria-roledescription="point" transform="translate(276.4874826343198,453.6627273035119)" d="M2.7386127875258306,0A2.7386127875258306,2.7386127875258306,0,1,1,-2.7386127875258306,0A2.7386127875258306,2.7386127875258306,0,1,1,2.7386127875258306,0" stroke="#f58518" stroke-width="2" opacity="0.7"/><path aria-label="x: 0.22; y: 0.00234256; type: Input" role="graphics-symbol" aria-roledescription="point" transform="translate(427,453.48065454545457)" d="M2.7386127875258306,0A2.7386127875258306,2.7386127875258306,0,1,1,-2.7386127875258306,0A2.7386127875258306,2.7386127875258306,0,1,1,2.7386127875258306,0" stroke="#4c78a8" stroke-width="2" opacity="0.7"/><path aria-label="x: −0.220036397566; y: 0.00234000997277; type: Output" role="graphics-symbol" aria-roledescription="point" transform="translate(272.987260852008,453.48181364873903)" d="M2.7386127875258306,0A2.7386127875258306,2.7386127875258306,0,1,1,-2.7386127875258306,0A2.7386127875258306,2.7386127875258306,0,1,1,2.7386127875258306,0" stroke="#f58518" stroke-width="2" opacity="0.7"/><path aria-label="x: 0.23; y: 0.00279841; type: Input" role="graphics-symbol" aria-roledescription="point" transform="translate(430.5,453.27345)" d="M2.7386127875258306,0A2.7386127875258306,2.7386127875258306,0,1,1,-2.7386127875258306,0A2.7386127875258306,2.7386127875258306,0,1,1,2.7386127875258306,0" stroke="#4c78a8" stroke-width="2" opacity="0.7"/><path aria-label="x: −0.230037032367; y: 0.0027961176878; type: Output" role="graphics-symbol" aria-roledescription="point" transform="translate(269.4870386713777,453.2744919600908)" d="M2.7386127875258306,0A2.7386127875258306,2.7386127875258306,0,1,1,-2.7386127875258306,0A2.7386127875258306,2.7386127875258306,0,1,1,2.7386127875258306,0" stroke="#f58518" stroke-width="2" opacity="0.7"/><path aria-label="x: 0.24; y: 0.00331776; type: Input" role="graphics-symbol" aria-roledescription="point" transform="translate(434,453.0373818181818)" d="M2.7386127875258306,0A2.7386127875258306,2.7386127875258306,0,1,1,-2.7386127875258306,0A2.7386127875258306,2.7386127875258306,0,1,1,2.7386127875258306,0" stroke="#4c78a8" stroke-width="2" opacity="0.7"/><path aria-label="x: −0.240037668413; y: 0.00331572286122; type: Output" role="graphics-symbol" aria-roledescription="point" transform="translate(265.9868160554081,453.0383077903568)" d="M2.7386127875258306,0A2.7386127875258306,2.7386127875258306,0,1,1,-2.7386127875258306,0A2.7386127875258306,2.7386127875258306,0,1,1,2.7386127875258306,0" stroke="#f58518" stroke-width="2" opacity="0.7"/><path aria-label="x: 0.25; y: 0.00390625; type: Input" role="graphics-symbol" aria-roledescription="point" transform="translate(437.5,452.7698863636364)" d="M2.7386127875258306,0A2.7386127875258306,2.7386127875258306,0,1,1,-2.7386127875258306,0A2.7386127875258306,2.7386127875258306,0,1,1,2.7386127875258306,0" stroke="#4c78a8" stroke-width="2" opacity="0.7"/><path aria-label="x: −0.250038305813; y: 0.00390446526728; type: Output" role="graphics-symbol" aria-roledescription="point" transform="translate(262.4865929654327,452.7706976057838)" d="M2.7386127875258306,0A2.7386127875258306,2.7386127875258306,0,1,1,-2.7386127875258306,0A2.7386127875258306,2.7386127875258306,0,1,1,2.7386127875258306,0" stroke="#f58518" stroke-width="2" opacity="0.7"/><path aria-label="x: 0.26; y: 0.00456976; type: Input" role="graphics-symbol" aria-roledescription="point" transform="translate(441,452.4682909090909)" d="M2.7386127875258306,0A2.7386127875258306,2.7386127875258306,0,1,1,-2.7386127875258306,0A2.7386127875258306,2.7386127875258306,0,1,1,2.7386127875258306,0" stroke="#4c78a8" stroke-width="2" opacity="0.7"/><path aria-label="x: −0.260038944682; y: 0.00456822467063; type: Output" role="graphics-symbol" aria-roledescription="point" transform="translate(258.9863693611396,452.4689887860761)" d="M2.7386127875258306,0A2.7386127875258306,2.7386127875258306,0,1,1,-2.7386127875258306,0A2.7386127875258306,2.7386127875258306,0,1,1,2.7386127875258306,0" stroke="#f58518" stroke-width="2" opacity="0.7"/><path aria-label="x: 0.27; y: 0.00531441; type: Input" role="graphics-symbol" aria-roledescription="point" transform="translate(444.5,452.1298136363636)" d="M2.7386127875258306,0A2.7386127875258306,2.7386127875258306,0,1,1,-2.7386127875258306,0A2.7386127875258306,2.7386127875258306,0,1,1,2.7386127875258306,0" stroke="#4c78a8" stroke-width="2" opacity="0.7"/><path aria-label="x: −0.270039585141; y: 0.00531312082633; type: Output" role="graphics-symbol" aria-roledescription="point" transform="translate(255.48614520057205,452.130399624395)" d="M2.7386127875258306,0A2.7386127875258306,2.7386127875258306,0,1,1,-2.7386127875258306,0A2.7386127875258306,2.7386127875258306,0,1,1,2.7386127875258306,0" stroke="#f58518" stroke-width="2" opacity="0.7"/><path aria-label="x: 0.28; y: 0.00614656; type: Input" role="graphics-symbol" aria-roledescription="point" transform="translate(448,451.75156363636364)" d="M2.7386127875258306,0A2.7386127875258306,2.7386127875258306,0,1,1,-2.7386127875258306,0A2.7386127875258306,2.7386127875258306,0,1,1,2.7386127875258306,0" stroke="#4c78a8" stroke-width="2" opacity="0.7"/><path aria-label="x: −0.280040227314; y: 0.00614551347981; type: Output" role="graphics-symbol" aria-roledescription="point" transform="translate(251.9859204401273,451.7520393273594)" d="M2.7386127875258306,0A2.7386127875258306,2.7386127875258306,0,1,1,-2.7386127875258306,0A2.7386127875258306,2.7386127875258306,0,1,1,2.7386127875258306,0" stroke="#f58518" stroke-width="2" opacity="0.7"/><path aria-label="x: 0.29; y: 0.00707281; type: Input" role="graphics-symbol" aria-roledescription="point" transform="translate(451.5,451.3305409090909)" d="M2.7386127875258306,0A2.7386127875258306,2.7386127875258306,0,1,1,-2.7386127875258306,0A2.7386127875258306,2.7386127875258306,0,1,1,2.7386127875258306,0" stroke="#4c78a8" stroke-width="2" opacity="0.7"/><path aria-label="x: −0.29004087133; y: 0.0070720023669; type: Output" role="graphics-symbol" aria-roledescription="point" transform="translate(248.48569503455747,451.3309080150455)" d="M2.7386127875258306,0A2.7386127875258306,2.7386127875258306,0,1,1,-2.7386127875258306,0A2.7386127875258306,2.7386127875258306,0,1,1,2.7386127875258306,0" stroke="#f58518" stroke-width="2" opacity="0.7"/><path aria-label="x: 0.3; y: 0.0081; type: Input" role="graphics-symbol" aria-roledescription="point" transform="translate(455,450.8636363636364)" d="M2.7386127875258306,0A2.7386127875258306,2.7386127875258306,0,1,1,-2.7386127875258306,0A2.7386127875258306,2.7386127875258306,0,1,1,2.7386127875258306,0" stroke="#4c78a8" stroke-width="2" opacity="0.7"/><path aria-label="x: −0.300041517323; y: 0.00809942721383; type: Output" role="graphics-symbol" aria-roledescription="point" transform="translate(244.98546893696934,450.8638967209866)" d="M2.7386127875258306,0A2.7386127875258306,2.7386127875258306,0,1,1,-2.7386127875258306,0A2.7386127875258306,2.7386127875258306,0,1,1,2.7386127875258306,0" stroke="#f58518" stroke-width="2" opacity="0.7"/><path aria-label="x: 0.31; y: 0.00923521; type: Input" role="graphics-symbol" aria-roledescription="point" transform="translate(458.5,450.3476318181818)" d="M2.7386127875258306,0A2.7386127875258306,2.7386127875258306,0,1,1,-2.7386127875258306,0A2.7386127875258306,2.7386127875258306,0,1,1,2.7386127875258306,0" stroke="#4c78a8" stroke-width="2" opacity="0.7"/><path aria-label="x: −0.310042165432; y: 0.00923486773722; type: Output" role="graphics-symbol" aria-roledescription="point" transform="translate(241.4852420988243,450.34778739217353)" d="M2.7386127875258306,0A2.7386127875258306,2.7386127875258306,0,1,1,-2.7386127875258306,0A2.7386127875258306,2.7386127875258306,0,1,1,2.7386127875258306,0" stroke="#f58518" stroke-width="2" opacity="0.7"/><path aria-label="x: 0.32; y: 0.01048576; type: Input" role="graphics-symbol" aria-roledescription="point" transform="translate(462,449.7792)" d="M2.7386127875258306,0A2.7386127875258306,2.7386127875258306,0,1,1,-2.7386127875258306,0A2.7386127875258306,2.7386127875258306,0,1,1,2.7386127875258306,0" stroke="#4c78a8" stroke-width="2" opacity="0.7"/><path aria-label="x: −0.3200428158; y: 0.0104856436441; type: Output" role="graphics-symbol" aria-roledescription="point" transform="translate(237.98501446993836,449.77925288905425)" d="M2.7386127875258306,0A2.7386127875258306,2.7386127875258306,0,1,1,-2.7386127875258306,0A2.7386127875258306,2.7386127875258306,0,1,1,2.7386127875258306,0" stroke="#f58518" stroke-width="2" opacity="0.7"/><path aria-label="x: 0.33; y: 0.01185921; type: Input" role="graphics-symbol" aria-roledescription="point" transform="translate(465.5,449.15490454545454)" d="M2.7386127875258306,0A2.7386127875258306,2.7386127875258306,0,1,1,-2.7386127875258306,0A2.7386127875258306,2.7386127875258306,0,1,1,2.7386127875258306,0" stroke="#4c78a8" stroke-width="2" opacity="0.7"/><path aria-label="x: −0.330043468576; y: 0.0118593146318; type: Output" role="graphics-symbol" aria-roledescription="point" transform="translate(234.48478599848207,449.15485698553425)" d="M2.7386127875258306,0A2.7386127875258306,2.7386127875258306,0,1,1,-2.7386127875258306,0A2.7386127875258306,2.7386127875258306,0,1,1,2.7386127875258306,0" stroke="#f58518" stroke-width="2" opacity="0.7"/><path aria-label="x: 0.34; y: 0.01336336; type: Input" role="graphics-symbol" aria-roledescription="point" transform="translate(469,448.4712)" d="M2.7386127875258306,0A2.7386127875258306,2.7386127875258306,0,1,1,-2.7386127875258306,0A2.7386127875258306,2.7386127875258306,0,1,1,2.7386127875258306,0" stroke="#4c78a8" stroke-width="2" opacity="0.7"/><path aria-label="x: −0.340044123911; y: 0.0133636803883; type: Output" role="graphics-symbol" aria-roledescription="point" transform="translate(230.98455663098076,448.4710543689762)" d="M2.7386127875258306,0A2.7386127875258306,2.7386127875258306,0,1,1,-2.7386127875258306,0A2.7386127875258306,2.7386127875258306,0,1,1,2.7386127875258306,0" stroke="#f58518" stroke-width="2" opacity="0.7"/><path aria-label="x: 0.35; y: 0.01500625; type: Input" role="graphics-symbol" aria-roledescription="point" transform="translate(472.50000000000006,447.72443181818176)" d="M2.7386127875258306,0A2.7386127875258306,2.7386127875258306,0,1,1,-2.7386127875258306,0A2.7386127875258306,2.7386127875258306,0,1,1,2.7386127875258306,0" stroke="#4c78a8" stroke-width="2" opacity="0.7"/><path aria-label="x: −0.350044781965; y: 0.0150067805916; type: Output" role="graphics-symbol" aria-roledescription="point" transform="translate(227.48432631231418,447.7241906402)" d="M2.7386127875258306,0A2.7386127875258306,2.7386127875258306,0,1,1,-2.7386127875258306,0A2.7386127875258306,2.7386127875258306,0,1,1,2.7386127875258306,0" stroke="#f58518" stroke-width="2" opacity="0.7"/><path aria-label="x: 0.36; y: 0.01679616; type: Input" role="graphics-symbol" aria-roledescription="point" transform="translate(476.00000000000006,446.91083636363635)" d="M2.7386127875258306,0A2.7386127875258306,2.7386127875258306,0,1,1,-2.7386127875258306,0A2.7386127875258306,2.7386127875258306,0,1,1,2.7386127875258306,0" stroke="#4c78a8" stroke-width="2" opacity="0.7"/><path aria-label="x: −0.360045442898; y: 0.0167968949103; type: Output" role="graphics-symbol" aria-roledescription="point" transform="translate(223.98409498571695,446.91050231348305)" d="M2.7386127875258306,0A2.7386127875258306,2.7386127875258306,0,1,1,-2.7386127875258306,0A2.7386127875258306,2.7386127875258306,0,1,1,2.7386127875258306,0" stroke="#f58518" stroke-width="2" opacity="0.7"/><path aria-label="x: 0.37; y: 0.01874161; type: Input" role="graphics-symbol" aria-roledescription="point" transform="translate(479.50000000000006,446.0265409090909)" d="M2.7386127875258306,0A2.7386127875258306,2.7386127875258306,0,1,1,-2.7386127875258306,0A2.7386127875258306,2.7386127875258306,0,1,1,2.7386127875258306,0" stroke="#4c78a8" stroke-width="2" opacity="0.7"/><path aria-label="x: −0.370046106878; y: 0.0187425430036; type: Output" role="graphics-symbol" aria-roledescription="point" transform="translate(220.48386259277802,446.02611681656)" d="M2.7386127875258306,0A2.7386127875258306,2.7386127875258306,0,1,1,-2.7386127875258306,0A2.7386127875258306,2.7386127875258306,0,1,1,2.7386127875258306,0" stroke="#f58518" stroke-width="2" opacity="0.7"/><path aria-label="x: 0.38; y: 0.02085136; type: Input" role="graphics-symbol" aria-roledescription="point" transform="translate(483.00000000000006,445.0675636363636)" d="M2.7386127875258306,0A2.7386127875258306,2.7386127875258306,0,1,1,-2.7386127875258306,0A2.7386127875258306,2.7386127875258306,0,1,1,2.7386127875258306,0" stroke="#4c78a8" stroke-width="2" opacity="0.7"/><path aria-label="x: −0.380046774076; y: 0.0208524845206; type: Output" role="graphics-symbol" aria-roledescription="point" transform="translate(216.9836290734412,445.0670524906227)" d="M2.7386127875258306,0A2.7386127875258306,2.7386127875258306,0,1,1,-2.7386127875258306,0A2.7386127875258306,2.7386127875258306,0,1,1,2.7386127875258306,0" stroke="#f58518" stroke-width="2" opacity="0.7"/><path aria-label="x: 0.39; y: 0.02313441; type: Input" role="graphics-symbol" aria-roledescription="point" transform="translate(486.50000000000006,444.0298136363636)" d="M2.7386127875258306,0A2.7386127875258306,2.7386127875258306,0,1,1,-2.7386127875258306,0A2.7386127875258306,2.7386127875258306,0,1,1,2.7386127875258306,0" stroke="#4c78a8" stroke-width="2" opacity="0.7"/><path aria-label="x: −0.390047444669; y: 0.0231357191013; type: Output" role="graphics-symbol" aria-roledescription="point" transform="translate(213.4833943660048,444.0292185903204)" d="M2.7386127875258306,0A2.7386127875258306,2.7386127875258306,0,1,1,-2.7386127875258306,0A2.7386127875258306,2.7386127875258306,0,1,1,2.7386127875258306,0" stroke="#f58518" stroke-width="2" opacity="0.7"/><path aria-label="x: 0.4; y: 0.0256; type: Input" role="graphics-symbol" aria-roledescription="point" transform="translate(490.00000000000006,442.90909090909093)" d="M2.7386127875258306,0A2.7386127875258306,2.7386127875258306,0,1,1,-2.7386127875258306,0A2.7386127875258306,2.7386127875258306,0,1,1,2.7386127875258306,0" stroke="#4c78a8" stroke-width="2" opacity="0.7"/><path aria-label="x: −0.400048118837; y: 0.0256014863757; type: Output" role="graphics-symbol" aria-roledescription="point" transform="translate(209.9831584071219,442.9084152837597)" d="M2.7386127875258306,0A2.7386127875258306,2.7386127875258306,0,1,1,-2.7386127875258306,0A2.7386127875258306,2.7386127875258306,0,1,1,2.7386127875258306,0" stroke="#f58518" stroke-width="2" opacity="0.7"/><path aria-label="x: 0.41; y: 0.02825761; type: Input" role="graphics-symbol" aria-roledescription="point" transform="translate(493.50000000000006,441.70108636363636)" d="M2.7386127875258306,0A2.7386127875258306,2.7386127875258306,0,1,1,-2.7386127875258306,0A2.7386127875258306,2.7386127875258306,0,1,1,2.7386127875258306,0" stroke="#4c78a8" stroke-width="2" opacity="0.7"/><path aria-label="x: −0.410048796766; y: 0.0282592659645; type: Output" role="graphics-symbol" aria-roledescription="point" transform="translate(206.48292113179997,441.70033365250464)" d="M2.7386127875258306,0A2.7386127875258306,2.7386127875258306,0,1,1,-2.7386127875258306,0A2.7386127875258306,2.7386127875258306,0,1,1,2.7386127875258306,0" stroke="#f58518" stroke-width="2" opacity="0.7"/><path aria-label="x: 0.42; y: 0.03111696; type: Input" role="graphics-symbol" aria-roledescription="point" transform="translate(497.00000000000006,440.4013818181818)" d="M2.7386127875258306,0A2.7386127875258306,2.7386127875258306,0,1,1,-2.7386127875258306,0A2.7386127875258306,2.7386127875258306,0,1,1,2.7386127875258306,0" stroke="#4c78a8" stroke-width="2" opacity="0.7"/><path aria-label="x: −0.420049478647; y: 0.0311187774785; type: Output" role="graphics-symbol" aria-roledescription="point" transform="translate(202.9826824734012,440.4005556915761)" d="M2.7386127875258306,0A2.7386127875258306,2.7386127875258306,0,1,1,-2.7386127875258306,0A2.7386127875258306,2.7386127875258306,0,1,1,2.7386127875258306,0" stroke="#f58518" stroke-width="2" opacity="0.7"/><path aria-label="x: 0.43; y: 0.03418801; type: Input" role="graphics-symbol" aria-roledescription="point" transform="translate(500.50000000000006,439.00544999999994)" d="M2.7386127875258306,0A2.7386127875258306,2.7386127875258306,0,1,1,-2.7386127875258306,0A2.7386127875258306,2.7386127875258306,0,1,1,2.7386127875258306,0" stroke="#4c78a8" stroke-width="2" opacity="0.7"/><path aria-label="x: −0.430050164675; y: 0.0341899805192; type: Output" role="graphics-symbol" aria-roledescription="point" transform="translate(199.4824423636426,439.0045543094528)" d="M2.7386127875258306,0A2.7386127875258306,2.7386127875258306,0,1,1,-2.7386127875258306,0A2.7386127875258306,2.7386127875258306,0,1,1,2.7386127875258306,0" stroke="#f58518" stroke-width="2" opacity="0.7"/><path aria-label="x: 0.44; y: 0.03748096; type: Input" role="graphics-symbol" aria-roledescription="point" transform="translate(504.00000000000006,437.50865454545453)" d="M2.7386127875258306,0A2.7386127875258306,2.7386127875258306,0,1,1,-2.7386127875258306,0A2.7386127875258306,2.7386127875258306,0,1,1,2.7386127875258306,0" stroke="#4c78a8" stroke-width="2" opacity="0.7"/><path aria-label="x: −0.44005085505; y: 0.0374830746782; type: Output" role="graphics-symbol" aria-roledescription="point" transform="translate(195.98220073259552,437.5076933280706)" d="M2.7386127875258306,0A2.7386127875258306,2.7386127875258306,0,1,1,-2.7386127875258306,0A2.7386127875258306,2.7386127875258306,0,1,1,2.7386127875258306,0" stroke="#f58518" stroke-width="2" opacity="0.7"/><path aria-label="x: 0.45; y: 0.04100625; type: Input" role="graphics-symbol" aria-roledescription="point" transform="translate(507.50000000000006,435.90624999999994)" d="M2.7386127875258306,0A2.7386127875258306,2.7386127875258306,0,1,1,-2.7386127875258306,0A2.7386127875258306,2.7386127875258306,0,1,1,2.7386127875258306,0" stroke="#4c78a8" stroke-width="2" opacity="0.7"/><path aria-label="x: −0.450051549975; y: 0.0410084995378; type: Output" role="graphics-symbol" aria-roledescription="point" transform="translate(192.481957508686,435.90522748282234)" d="M2.7386127875258306,0A2.7386127875258306,2.7386127875258306,0,1,1,-2.7386127875258306,0A2.7386127875258306,2.7386127875258306,0,1,1,2.7386127875258306,0" stroke="#f58518" stroke-width="2" opacity="0.7"/><path aria-label="x: 0.46; y: 0.04477456; type: Input" role="graphics-symbol" aria-roledescription="point" transform="translate(511.00000000000006,434.19338181818176)" d="M2.7386127875258306,0A2.7386127875258306,2.7386127875258306,0,1,1,-2.7386127875258306,0A2.7386127875258306,2.7386127875258306,0,1,1,2.7386127875258306,0" stroke="#4c78a8" stroke-width="2" opacity="0.7"/><path aria-label="x: −0.460052249661; y: 0.0447769346704; type: Output" role="graphics-symbol" aria-roledescription="point" transform="translate(188.98171261869484,434.1923024225588)" d="M2.7386127875258306,0A2.7386127875258306,2.7386127875258306,0,1,1,-2.7386127875258306,0A2.7386127875258306,2.7386127875258306,0,1,1,2.7386127875258306,0" stroke="#f58518" stroke-width="2" opacity="0.7"/><path aria-label="x: 0.47; y: 0.04879681; type: Input" role="graphics-symbol" aria-roledescription="point" transform="translate(514.5000000000001,432.3650863636363)" d="M2.7386127875258306,0A2.7386127875258306,2.7386127875258306,0,1,1,-2.7386127875258306,0A2.7386127875258306,2.7386127875258306,0,1,1,2.7386127875258306,0" stroke="#4c78a8" stroke-width="2" opacity="0.7"/><path aria-label="x: −0.470052954321; y: 0.0487992996389; type: Output" role="graphics-symbol" aria-roledescription="point" transform="translate(185.4814659877574,432.3639547095876)" d="M2.7386127875258306,0A2.7386127875258306,2.7386127875258306,0,1,1,-2.7386127875258306,0A2.7386127875258306,2.7386127875258306,0,1,1,2.7386127875258306,0" stroke="#f58518" stroke-width="2" opacity="0.7"/><path aria-label="x: 0.48; y: 0.05308416; type: Input" role="graphics-symbol" aria-roledescription="point" transform="translate(518.0000000000001,430.41629090909083)" d="M2.7386127875258306,0A2.7386127875258306,2.7386127875258306,0,1,1,-2.7386127875258306,0A2.7386127875258306,2.7386127875258306,0,1,1,2.7386127875258306,0" stroke="#4c78a8" stroke-width="2" opacity="0.7"/><path aria-label="x: −0.480053664173; y: 0.0530867539967; type: Output" role="graphics-symbol" aria-roledescription="point" transform="translate(181.98121753936354,430.41511181967377)" d="M2.7386127875258306,0A2.7386127875258306,2.7386127875258306,0,1,1,-2.7386127875258306,0A2.7386127875258306,2.7386127875258306,0,1,1,2.7386127875258306,0" stroke="#f58518" stroke-width="2" opacity="0.7"/><path aria-label="x: 0.49; y: 0.05764801; type: Input" role="graphics-symbol" aria-roledescription="point" transform="translate(521.5000000000001,428.3418136363636)" d="M2.7386127875258306,0A2.7386127875258306,2.7386127875258306,0,1,1,-2.7386127875258306,0A2.7386127875258306,2.7386127875258306,0,1,1,2.7386127875258306,0" stroke="#4c78a8" stroke-width="2" opacity="0.7"/><path aria-label="x: −0.490054379442; y: 0.0576506972875; type: Output" role="graphics-symbol" aria-roledescription="point" transform="translate(178.48096719535783,428.3405921420398)" d="M2.7386127875258306,0A2.7386127875258306,2.7386127875258306,0,1,1,-2.7386127875258306,0A2.7386127875258306,2.7386127875258306,0,1,1,2.7386127875258306,0" stroke="#f58518" stroke-width="2" opacity="0.7"/><path aria-label="x: 0.5; y: 0.0625; type: Input" role="graphics-symbol" aria-roledescription="point" transform="translate(525.0000000000001,426.13636363636357)" d="M2.7386127875258306,0A2.7386127875258306,2.7386127875258306,0,1,1,-2.7386127875258306,0A2.7386127875258306,2.7386127875258306,0,1,1,2.7386127875258306,0" stroke="#4c78a8" stroke-width="2" opacity="0.7"/><path aria-label="x: −0.500055100354; y: 0.0625027690454; type: Output" role="graphics-symbol" aria-roledescription="point" transform="translate(174.98071487593955,426.1351049793652)" d="M2.7386127875258306,0A2.7386127875258306,2.7386127875258306,0,1,1,-2.7386127875258306,0A2.7386127875258306,2.7386127875258306,0,1,1,2.7386127875258306,0" stroke="#f58518" stroke-width="2" opacity="0.7"/><path aria-label="x: 0.51; y: 0.06765201; type: Input" role="graphics-symbol" aria-roledescription="point" transform="translate(528.5000000000001,423.79454090909087)" d="M2.7386127875258306,0A2.7386127875258306,2.7386127875258306,0,1,1,-2.7386127875258306,0A2.7386127875258306,2.7386127875258306,0,1,1,2.7386127875258306,0" stroke="#4c78a8" stroke-width="2" opacity="0.7"/><path aria-label="x: −0.510055827144; y: 0.0676548487949; type: Output" role="graphics-symbol" aria-roledescription="point" transform="translate(171.4804604996625,423.79325054778724)" d="M2.7386127875258306,0A2.7386127875258306,2.7386127875258306,0,1,1,-2.7386127875258306,0A2.7386127875258306,2.7386127875258306,0,1,1,2.7386127875258306,0" stroke="#f58518" stroke-width="2" opacity="0.7"/><path aria-label="x: 0.52; y: 0.07311616; type: Input" role="graphics-symbol" aria-roledescription="point" transform="translate(532.0000000000001,421.3108363636363)" d="M2.7386127875258306,0A2.7386127875258306,2.7386127875258306,0,1,1,-2.7386127875258306,0A2.7386127875258306,2.7386127875258306,0,1,1,2.7386127875258306,0" stroke="#4c78a8" stroke-width="2" opacity="0.7"/><path aria-label="x: −0.520056560047; y: 0.0731190560508; type: Output" role="graphics-symbol" aria-roledescription="point" transform="translate(167.98020398343505,421.30951997690005)" d="M2.7386127875258306,0A2.7386127875258306,2.7386127875258306,0,1,1,-2.7386127875258306,0A2.7386127875258306,2.7386127875258306,0,1,1,2.7386127875258306,0" stroke="#f58518" stroke-width="2" opacity="0.7"/><path aria-label="x: 0.53; y: 0.07890481; type: Input" role="graphics-symbol" aria-roledescription="point" transform="translate(535.5000000000001,418.6796318181818)" d="M2.7386127875258306,0A2.7386127875258306,2.7386127875258306,0,1,1,-2.7386127875258306,0A2.7386127875258306,2.7386127875258306,0,1,1,2.7386127875258306,0" stroke="#4c78a8" stroke-width="2" opacity="0.7"/><path aria-label="x: −0.530057299307; y: 0.0789077503185; type: Output" role="graphics-symbol" aria-roledescription="point" transform="translate(164.47994524252036,418.6782953097553)" d="M2.7386127875258306,0A2.7386127875258306,2.7386127875258306,0,1,1,-2.7386127875258306,0A2.7386127875258306,2.7386127875258306,0,1,1,2.7386127875258306,0" stroke="#f58518" stroke-width="2" opacity="0.7"/><path aria-label="x: 0.54; y: 0.08503056; type: Input" role="graphics-symbol" aria-roledescription="point" transform="translate(539.0000000000001,415.89519999999993)" d="M2.7386127875258306,0A2.7386127875258306,2.7386127875258306,0,1,1,-2.7386127875258306,0A2.7386127875258306,2.7386127875258306,0,1,1,2.7386127875258306,0" stroke="#4c78a8" stroke-width="2" opacity="0.7"/><path aria-label="x: −0.54005804517; y: 0.0850335310937; type: Output" role="graphics-symbol" aria-roledescription="point" transform="translate(160.97968419053615,415.8938495028621)" d="M2.7386127875258306,0A2.7386127875258306,2.7386127875258306,0,1,1,-2.7386127875258306,0A2.7386127875258306,2.7386127875258306,0,1,1,2.7386127875258306,0" stroke="#f58518" stroke-width="2" opacity="0.7"/><path aria-label="x: 0.55; y: 0.09150625; type: Input" role="graphics-symbol" aria-roledescription="point" transform="translate(542.5000000000001,412.9517045454545)" d="M2.7386127875258306,0A2.7386127875258306,2.7386127875258306,0,1,1,-2.7386127875258306,0A2.7386127875258306,2.7386127875258306,0,1,1,2.7386127875258306,0" stroke="#4c78a8" stroke-width="2" opacity="0.7"/><path aria-label="x: −0.550058797887; y: 0.0915092378624; type: Output" role="graphics-symbol" aria-roledescription="point" transform="translate(157.4794207394545,412.95034642618657)" d="M2.7386127875258306,0A2.7386127875258306,2.7386127875258306,0,1,1,-2.7386127875258306,0A2.7386127875258306,2.7386127875258306,0,1,1,2.7386127875258306,0" stroke="#f58518" stroke-width="2" opacity="0.7"/><path aria-label="x: 0.56; y: 0.09834496; type: Input" role="graphics-symbol" aria-roledescription="point" transform="translate(546.0000000000001,409.8431999999999)" d="M2.7386127875258306,0A2.7386127875258306,2.7386127875258306,0,1,1,-2.7386127875258306,0A2.7386127875258306,2.7386127875258306,0,1,1,2.7386127875258306,0" stroke="#4c78a8" stroke-width="2" opacity="0.7"/><path aria-label="x: −0.560059557715; y: 0.0983479501011; type: Output" role="graphics-symbol" aria-roledescription="point" transform="translate(153.97915479960258,409.84184086315224)" d="M2.7386127875258306,0A2.7386127875258306,2.7386127875258306,0,1,1,-2.7386127875258306,0A2.7386127875258306,2.7386127875258306,0,1,1,2.7386127875258306,0" stroke="#f58518" stroke-width="2" opacity="0.7"/><path aria-label="x: 0.57; y: 0.10556001; type: Input" role="graphics-symbol" aria-roledescription="point" transform="translate(549.5000000000001,406.5636318181817)" d="M2.7386127875258306,0A2.7386127875258306,2.7386127875258306,0,1,1,-2.7386127875258306,0A2.7386127875258306,2.7386127875258306,0,1,1,2.7386127875258306,0" stroke="#4c78a8" stroke-width="2" opacity="0.7"/><path aria-label="x: −0.570060324915; y: 0.105562987277; type: Output" role="graphics-symbol" aria-roledescription="point" transform="translate(150.47888627966194,406.5622785106401)" d="M2.7386127875258306,0A2.7386127875258306,2.7386127875258306,0,1,1,-2.7386127875258306,0A2.7386127875258306,2.7386127875258306,0,1,1,2.7386127875258306,0" stroke="#f58518" stroke-width="2" opacity="0.7"/><path aria-label="x: 0.58; y: 0.11316496; type: Input" role="graphics-symbol" aria-roledescription="point" transform="translate(553.0000000000001,403.10683636363626)" d="M2.7386127875258306,0A2.7386127875258306,2.7386127875258306,0,1,1,-2.7386127875258306,0A2.7386127875258306,2.7386127875258306,0,1,1,2.7386127875258306,0" stroke="#4c78a8" stroke-width="2" opacity="0.7"/><path aria-label="x: −0.580061099752; y: 0.113167908846; type: Output" role="graphics-symbol" aria-roledescription="point" transform="translate(146.9786150866687,403.10549597898836)" d="M2.7386127875258306,0A2.7386127875258306,2.7386127875258306,0,1,1,-2.7386127875258306,0A2.7386127875258306,2.7386127875258306,0,1,1,2.7386127875258306,0" stroke="#f58518" stroke-width="2" opacity="0.7"/><path aria-label="x: 0.59; y: 0.12117361; type: Input" role="graphics-symbol" aria-roledescription="point" transform="translate(556.5000000000001,399.46654090909084)" d="M2.7386127875258306,0A2.7386127875258306,2.7386127875258306,0,1,1,-2.7386127875258306,0A2.7386127875258306,2.7386127875258306,0,1,1,2.7386127875258306,0" stroke="#4c78a8" stroke-width="2" opacity="0.7"/><path aria-label="x: −0.590061882497; y: 0.121176514258; type: Output" role="graphics-symbol" aria-roledescription="point" transform="translate(143.47834112601353,399.46522079199246)" d="M2.7386127875258306,0A2.7386127875258306,2.7386127875258306,0,1,1,-2.7386127875258306,0A2.7386127875258306,2.7386127875258306,0,1,1,2.7386127875258306,0" stroke="#f58518" stroke-width="2" opacity="0.7"/><path aria-label="x: 0.6; y: 0.1296; type: Input" role="graphics-symbol" aria-roledescription="point" transform="translate(560.0000000000001,395.6363636363635)" d="M2.7386127875258306,0A2.7386127875258306,2.7386127875258306,0,1,1,-2.7386127875258306,0A2.7386127875258306,2.7386127875258306,0,1,1,2.7386127875258306,0" stroke="#4c78a8" stroke-width="2" opacity="0.7"/><path aria-label="x: −0.600062673424; y: 0.129602842949; type: Output" role="graphics-symbol" aria-roledescription="point" transform="translate(139.97806430144217,395.6350713869054)" d="M2.7386127875258306,0A2.7386127875258306,2.7386127875258306,0,1,1,-2.7386127875258306,0A2.7386127875258306,2.7386127875258306,0,1,1,2.7386127875258306,0" stroke="#f58518" stroke-width="2" opacity="0.7"/><path aria-label="x: 0.61; y: 0.13845841; type: Input" role="graphics-symbol" aria-roledescription="point" transform="translate(563.5000000000001,391.60981363636347)" d="M2.7386127875258306,0A2.7386127875258306,2.7386127875258306,0,1,1,-2.7386127875258306,0A2.7386127875258306,2.7386127875258306,0,1,1,2.7386127875258306,0" stroke="#4c78a8" stroke-width="2" opacity="0.7"/><path aria-label="x: −0.610063472814; y: 0.138461174348; type: Output" role="graphics-symbol" aria-roledescription="point" transform="translate(136.4777845150543,391.6085571144372)" d="M2.7386127875258306,0A2.7386127875258306,2.7386127875258306,0,1,1,-2.7386127875258306,0A2.7386127875258306,2.7386127875258306,0,1,1,2.7386127875258306,0" stroke="#f58518" stroke-width="2" opacity="0.7"/><path aria-label="x: 0.62; y: 0.14776336; type: Input" role="graphics-symbol" aria-roledescription="point" transform="translate(567.0000000000001,387.3802909090908)" d="M2.7386127875258306,0A2.7386127875258306,2.7386127875258306,0,1,1,-2.7386127875258306,0A2.7386127875258306,2.7386127875258306,0,1,1,2.7386127875258306,0" stroke="#4c78a8" stroke-width="2" opacity="0.7"/><path aria-label="x: −0.620064280951; y: 0.147766027875; type: Output" role="graphics-symbol" aria-roledescription="point" transform="translate(132.9775016673049,387.37907823875526)" d="M2.7386127875258306,0A2.7386127875258306,2.7386127875258306,0,1,1,-2.7386127875258306,0A2.7386127875258306,2.7386127875258306,0,1,1,2.7386127875258306,0" stroke="#f58518" stroke-width="2" opacity="0.7"/><path aria-label="x: 0.63; y: 0.15752961; type: Input" role="graphics-symbol" aria-roledescription="point" transform="translate(570.5000000000001,382.9410863636362)" d="M2.7386127875258306,0A2.7386127875258306,2.7386127875258306,0,1,1,-2.7386127875258306,0A2.7386127875258306,2.7386127875258306,0,1,1,2.7386127875258306,0" stroke="#4c78a8" stroke-width="2" opacity="0.7"/><path aria-label="x: −0.630065098123; y: 0.157532162938; type: Output" role="graphics-symbol" aria-roledescription="point" transform="translate(129.47721565700306,382.9399259374844)" d="M2.7386127875258306,0A2.7386127875258306,2.7386127875258306,0,1,1,-2.7386127875258306,0A2.7386127875258306,2.7386127875258306,0,1,1,2.7386127875258306,0" stroke="#f58518" stroke-width="2" opacity="0.7"/><path aria-label="x: 0.64; y: 0.16777216; type: Input" role="graphics-symbol" aria-roledescription="point" transform="translate(574.0000000000001,378.2853818181817)" d="M2.7386127875258306,0A2.7386127875258306,2.7386127875258306,0,1,1,-2.7386127875258306,0A2.7386127875258306,2.7386127875258306,0,1,1,2.7386127875258306,0" stroke="#4c78a8" stroke-width="2" opacity="0.7"/><path aria-label="x: −0.640065924625; y: 0.167774578936; type: Output" role="graphics-symbol" aria-roledescription="point" transform="translate(125.97692638131286,378.28428230170687)" d="M2.7386127875258306,0A2.7386127875258306,2.7386127875258306,0,1,1,-2.7386127875258306,0A2.7386127875258306,2.7386127875258306,0,1,1,2.7386127875258306,0" stroke="#f58518" stroke-width="2" opacity="0.7"/><path aria-label="x: 0.65; y: 0.17850625; type: Input" role="graphics-symbol" aria-roledescription="point" transform="translate(577.5000000000001,373.40624999999983)" d="M2.7386127875258306,0A2.7386127875258306,2.7386127875258306,0,1,1,-2.7386127875258306,0A2.7386127875258306,2.7386127875258306,0,1,1,2.7386127875258306,0" stroke="#4c78a8" stroke-width="2" opacity="0.7"/><path aria-label="x: −0.650066760755; y: 0.178508515261; type: Output" role="graphics-symbol" aria-roledescription="point" transform="translate(122.47663373575271,373.4052203359618)" d="M2.7386127875258306,0A2.7386127875258306,2.7386127875258306,0,1,1,-2.7386127875258306,0A2.7386127875258306,2.7386127875258306,0,1,1,2.7386127875258306,0" stroke="#f58518" stroke-width="2" opacity="0.7"/><path aria-label="x: 0.66; y: 0.18974736; type: Input" role="graphics-symbol" aria-roledescription="point" transform="translate(581.0000000000001,368.2966545454544)" d="M2.7386127875258306,0A2.7386127875258306,2.7386127875258306,0,1,1,-2.7386127875258306,0A2.7386127875258306,2.7386127875258306,0,1,1,2.7386127875258306,0" stroke="#4c78a8" stroke-width="2" opacity="0.7"/><path aria-label="x: −0.660067606817; y: 0.189749451292; type: Output" role="graphics-symbol" aria-roledescription="point" transform="translate(118.97633761419581,368.29570395824607)" d="M2.7386127875258306,0A2.7386127875258306,2.7386127875258306,0,1,1,-2.7386127875258306,0A2.7386127875258306,2.7386127875258306,0,1,1,2.7386127875258306,0" stroke="#f58518" stroke-width="2" opacity="0.7"/><path aria-label="x: 0.67; y: 0.20151121; type: Input" role="graphics-symbol" aria-roledescription="point" transform="translate(584.5000000000001,362.9494499999998)" d="M2.7386127875258306,0A2.7386127875258306,2.7386127875258306,0,1,1,-2.7386127875258306,0A2.7386127875258306,2.7386127875258306,0,1,1,2.7386127875258306,0" stroke="#4c78a8" stroke-width="2" opacity="0.7"/><path aria-label="x: −0.670068463118; y: 0.2015131064; type: Output" role="graphics-symbol" aria-roledescription="point" transform="translate(115.47603790886998,362.94858800001373)" d="M2.7386127875258306,0A2.7386127875258306,2.7386127875258306,0,1,1,-2.7386127875258306,0A2.7386127875258306,2.7386127875258306,0,1,1,2.7386127875258306,0" stroke="#f58518" stroke-width="2" opacity="0.7"/><path aria-label="x: 0.68; y: 0.21381376; type: Input" role="graphics-symbol" aria-roledescription="point" transform="translate(588.0000000000001,357.3573818181816)" d="M2.7386127875258306,0A2.7386127875258306,2.7386127875258306,0,1,1,-2.7386127875258306,0A2.7386127875258306,2.7386127875258306,0,1,1,2.7386127875258306,0" stroke="#4c78a8" stroke-width="2" opacity="0.7"/><path aria-label="x: −0.68006932997; y: 0.213815439946; type: Output" role="graphics-symbol" aria-roledescription="point" transform="translate(111.97573451035765,357.35661820617605)" d="M2.7386127875258306,0A2.7386127875258306,2.7386127875258306,0,1,1,-2.7386127875258306,0A2.7386127875258306,2.7386127875258306,0,1,1,2.7386127875258306,0" stroke="#f58518" stroke-width="2" opacity="0.7"/><path aria-label="x: 0.69; y: 0.22667121; type: Input" role="graphics-symbol" aria-roledescription="point" transform="translate(591.5000000000001,351.5130863636361)" d="M2.7386127875258306,0A2.7386127875258306,2.7386127875258306,0,1,1,-2.7386127875258306,0A2.7386127875258306,2.7386127875258306,0,1,1,2.7386127875258306,0" stroke="#4c78a8" stroke-width="2" opacity="0.7"/><path aria-label="x: −0.690070207693; y: 0.226672651283; type: Output" role="graphics-symbol" aria-roledescription="point" transform="translate(108.47542730759577,351.51243123510176)" d="M2.7386127875258306,0A2.7386127875258306,2.7386127875258306,0,1,1,-2.7386127875258306,0A2.7386127875258306,2.7386127875258306,0,1,1,2.7386127875258306,0" stroke="#f58518" stroke-width="2" opacity="0.7"/><path aria-label="x: 0.7; y: 0.2401; type: Input" role="graphics-symbol" aria-roledescription="point" transform="translate(595.0000000000001,345.40909090909065)" d="M2.7386127875258306,0A2.7386127875258306,2.7386127875258306,0,1,1,-2.7386127875258306,0A2.7386127875258306,2.7386127875258306,0,1,1,2.7386127875258306,0" stroke="#4c78a8" stroke-width="2" opacity="0.7"/><path aria-label="x: −0.700071096606; y: 0.240101179751; type: Output" role="graphics-symbol" aria-roledescription="point" transform="translate(104.97511618787595,345.40855465861665)" d="M2.7386127875258306,0A2.7386127875258306,2.7386127875258306,0,1,1,-2.7386127875258306,0A2.7386127875258306,2.7386127875258306,0,1,1,2.7386127875258306,0" stroke="#f58518" stroke-width="2" opacity="0.7"/><path aria-label="x: 0.71; y: 0.25411681; type: Input" role="graphics-symbol" aria-roledescription="point" transform="translate(598.5000000000001,339.03781363636335)" d="M2.7386127875258306,0A2.7386127875258306,2.7386127875258306,0,1,1,-2.7386127875258306,0A2.7386127875258306,2.7386127875258306,0,1,1,2.7386127875258306,0" stroke="#4c78a8" stroke-width="2" opacity="0.7"/><path aria-label="x: −0.710071997038; y: 0.254117704684; type: Output" role="graphics-symbol" aria-roledescription="point" transform="translate(101.47480103684457,339.0374069620041)" d="M2.7386127875258306,0A2.7386127875258306,2.7386127875258306,0,1,1,-2.7386127875258306,0A2.7386127875258306,2.7386127875258306,0,1,1,2.7386127875258306,0" stroke="#f58518" stroke-width="2" opacity="0.7"/><path aria-label="x: 0.72; y: 0.26873856; type: Input" role="graphics-symbol" aria-roledescription="point" transform="translate(602.0000000000001,332.39156363636334)" d="M2.7386127875258306,0A2.7386127875258306,2.7386127875258306,0,1,1,-2.7386127875258306,0A2.7386127875258306,2.7386127875258306,0,1,1,2.7386127875258306,0" stroke="#4c78a8" stroke-width="2" opacity="0.7"/><path aria-label="x: −0.720072909319; y: 0.268739145403; type: Output" role="graphics-symbol" aria-roledescription="point" transform="translate(97.97448173850246,332.39129754400494)" d="M2.7386127875258306,0A2.7386127875258306,2.7386127875258306,0,1,1,-2.7386127875258306,0A2.7386127875258306,2.7386127875258306,0,1,1,2.7386127875258306,0" stroke="#f58518" stroke-width="2" opacity="0.7"/><path aria-label="x: 0.73; y: 0.28398241; type: Input" role="graphics-symbol" aria-roledescription="point" transform="translate(605.5000000000001,325.46254090909065)" d="M2.7386127875258306,0A2.7386127875258306,2.7386127875258306,0,1,1,-2.7386127875258306,0A2.7386127875258306,2.7386127875258306,0,1,1,2.7386127875258306,0" stroke="#4c78a8" stroke-width="2" opacity="0.7"/><path aria-label="x: −0.730073833785; y: 0.283982661223; type: Output" role="graphics-symbol" aria-roledescription="point" transform="translate(94.47415817520523,325.4624267168167)" d="M2.7386127875258306,0A2.7386127875258306,2.7386127875258306,0,1,1,-2.7386127875258306,0A2.7386127875258306,2.7386127875258306,0,1,1,2.7386127875258306,0" stroke="#f58518" stroke-width="2" opacity="0.7"/><path aria-label="x: 0.74; y: 0.29986576; type: Input" role="graphics-symbol" aria-roledescription="point" transform="translate(609.0000000000001,318.24283636363606)" d="M2.7386127875258306,0A2.7386127875258306,2.7386127875258306,0,1,1,-2.7386127875258306,0A2.7386127875258306,2.7386127875258306,0,1,1,2.7386127875258306,0" stroke="#4c78a8" stroke-width="2" opacity="0.7"/><path aria-label="x: −0.740074770778; y: 0.299865651447; type: Output" role="graphics-symbol" aria-roledescription="point" transform="translate(90.97383022766282,318.24288570609474)" d="M2.7386127875258306,0A2.7386127875258306,2.7386127875258306,0,1,1,-2.7386127875258306,0A2.7386127875258306,2.7386127875258306,0,1,1,2.7386127875258306,0" stroke="#f58518" stroke-width="2" opacity="0.7"/><path aria-label="x: 0.75; y: 0.31640625; type: Input" role="graphics-symbol" aria-roledescription="point" transform="translate(612.5000000000001,310.7244318181815)" d="M2.7386127875258306,0A2.7386127875258306,2.7386127875258306,0,1,1,-2.7386127875258306,0A2.7386127875258306,2.7386127875258306,0,1,1,2.7386127875258306,0" stroke="#4c78a8" stroke-width="2" opacity="0.7"/><path aria-label="x: −0.750075720643; y: 0.316405755368; type: Output" role="graphics-symbol" aria-roledescription="point" transform="translate(87.47349777494033,310.7246566509516)" d="M2.7386127875258306,0A2.7386127875258306,2.7386127875258306,0,1,1,-2.7386127875258306,0A2.7386127875258306,2.7386127875258306,0,1,1,2.7386127875258306,0" stroke="#f58518" stroke-width="2" opacity="0.7"/><path aria-label="x: 0.76; y: 0.33362176; type: Input" role="graphics-symbol" aria-roledescription="point" transform="translate(616.0000000000001,302.8991999999996)" d="M2.7386127875258306,0A2.7386127875258306,2.7386127875258306,0,1,1,-2.7386127875258306,0A2.7386127875258306,2.7386127875258306,0,1,1,2.7386127875258306,0" stroke="#4c78a8" stroke-width="2" opacity="0.7"/><path aria-label="x: −0.76007668373; y: 0.333620852271; type: Output" role="graphics-symbol" aria-roledescription="point" transform="translate(83.97316069445694,302.8996126039572)" d="M2.7386127875258306,0A2.7386127875258306,2.7386127875258306,0,1,1,-2.7386127875258306,0A2.7386127875258306,2.7386127875258306,0,1,1,2.7386127875258306,0" stroke="#f58518" stroke-width="2" opacity="0.7"/><path aria-label="x: 0.77; y: 0.35153041; type: Input" role="graphics-symbol" aria-roledescription="point" transform="translate(619.5000000000001,294.7589045454542)" d="M2.7386127875258306,0A2.7386127875258306,2.7386127875258306,0,1,1,-2.7386127875258306,0A2.7386127875258306,2.7386127875258306,0,1,1,2.7386127875258306,0" stroke="#4c78a8" stroke-width="2" opacity="0.7"/><path aria-label="x: −0.770077660394; y: 0.351529061431; type: Output" role="graphics-symbol" aria-roledescription="point" transform="translate(80.47281886198655,294.7595175311386)" d="M2.7386127875258306,0A2.7386127875258306,2.7386127875258306,0,1,1,-2.7386127875258306,0A2.7386127875258306,2.7386127875258306,0,1,1,2.7386127875258306,0" stroke="#f58518" stroke-width="2" opacity="0.7"/><path aria-label="x: 0.78; y: 0.37015056; type: Input" role="graphics-symbol" aria-roledescription="point" transform="translate(623.0000000000001,286.2951999999996)" d="M2.7386127875258306,0A2.7386127875258306,2.7386127875258306,0,1,1,-2.7386127875258306,0A2.7386127875258306,2.7386127875258306,0,1,1,2.7386127875258306,0" stroke="#4c78a8" stroke-width="2" opacity="0.7"/><path aria-label="x: −0.780078650995; y: 0.370148742114; type: Output" role="graphics-symbol" aria-roledescription="point" transform="translate(76.97247215165804,286.2960263119803)" d="M2.7386127875258306,0A2.7386127875258306,2.7386127875258306,0,1,1,-2.7386127875258306,0A2.7386127875258306,2.7386127875258306,0,1,1,2.7386127875258306,0" stroke="#f58518" stroke-width="2" opacity="0.7"/><path aria-label="x: 0.79; y: 0.38950081; type: Input" role="graphics-symbol" aria-roledescription="point" transform="translate(626.5000000000001,277.49963181818146)" d="M2.7386127875258306,0A2.7386127875258306,2.7386127875258306,0,1,1,-2.7386127875258306,0A2.7386127875258306,2.7386127875258306,0,1,1,2.7386127875258306,0" stroke="#4c78a8" stroke-width="2" opacity="0.7"/><path aria-label="x: −0.790079655897; y: 0.389498493573; type: Output" role="graphics-symbol" aria-roledescription="point" transform="translate(73.47212043595468,277.5006847394242)" d="M2.7386127875258306,0A2.7386127875258306,2.7386127875258306,0,1,1,-2.7386127875258306,0A2.7386127875258306,2.7386127875258306,0,1,1,2.7386127875258306,0" stroke="#f58518" stroke-width="2" opacity="0.7"/><path aria-label="x: 0.8; y: 0.4096; type: Input" role="graphics-symbol" aria-roledescription="point" transform="translate(630.0000000000002,268.3636363636359)" d="M2.7386127875258306,0A2.7386127875258306,2.7386127875258306,0,1,1,-2.7386127875258306,0A2.7386127875258306,2.7386127875258306,0,1,1,2.7386127875258306,0" stroke="#4c78a8" stroke-width="2" opacity="0.7"/><path aria-label="x: −0.800080675469; y: 0.409597155056; type: Output" role="graphics-symbol" aria-roledescription="point" transform="translate(69.97176358571397,268.36492951986924)" d="M2.7386127875258306,0A2.7386127875258306,2.7386127875258306,0,1,1,-2.7386127875258306,0A2.7386127875258306,2.7386127875258306,0,1,1,2.7386127875258306,0" stroke="#f58518" stroke-width="2" opacity="0.7"/><path aria-label="x: 0.81; y: 0.43046721; type: Input" role="graphics-symbol" aria-roledescription="point" transform="translate(633.5000000000002,258.8785409090905)" d="M2.7386127875258306,0A2.7386127875258306,2.7386127875258306,0,1,1,-2.7386127875258306,0A2.7386127875258306,2.7386127875258306,0,1,1,2.7386127875258306,0" stroke="#4c78a8" stroke-width="2" opacity="0.7"/><path aria-label="x: −0.810081710085; y: 0.430463805799; type: Output" role="graphics-symbol" aria-roledescription="point" transform="translate(66.47140147012874,258.880088273172)" d="M2.7386127875258306,0A2.7386127875258306,2.7386127875258306,0,1,1,-2.7386127875258306,0A2.7386127875258306,2.7386127875258306,0,1,1,2.7386127875258306,0" stroke="#f58518" stroke-width="2" opacity="0.7"/><path aria-label="x: 0.82; y: 0.45212176; type: Input" role="graphics-symbol" aria-roledescription="point" transform="translate(637.0000000000002,249.03556363636315)" d="M2.7386127875258306,0A2.7386127875258306,2.7386127875258306,0,1,1,-2.7386127875258306,0A2.7386127875258306,2.7386127875258306,0,1,1,2.7386127875258306,0" stroke="#4c78a8" stroke-width="2" opacity="0.7"/><path aria-label="x: −0.820082760124; y: 0.452117765028; type: Output" role="graphics-symbol" aria-roledescription="point" transform="translate(62.97103395674608,249.03737953264593)" d="M2.7386127875258306,0A2.7386127875258306,2.7386127875258306,0,1,1,-2.7386127875258306,0A2.7386127875258306,2.7386127875258306,0,1,1,2.7386127875258306,0" stroke="#f58518" stroke-width="2" opacity="0.7"/><path aria-label="x: 0.83; y: 0.47458321; type: Input" role="graphics-symbol" aria-roledescription="point" transform="translate(640.5000000000002,238.82581363636308)" d="M2.7386127875258306,0A2.7386127875258306,2.7386127875258306,0,1,1,-2.7386127875258306,0A2.7386127875258306,2.7386127875258306,0,1,1,2.7386127875258306,0" stroke="#4c78a8" stroke-width="2" opacity="0.7"/><path aria-label="x: −0.830083825967; y: 0.474578591961; type: Output" role="graphics-symbol" aria-roledescription="point" transform="translate(59.470660911467725,238.82791274506238)" d="M2.7386127875258306,0A2.7386127875258306,2.7386127875258306,0,1,1,-2.7386127875258306,0A2.7386127875258306,2.7386127875258306,0,1,1,2.7386127875258306,0" stroke="#f58518" stroke-width="2" opacity="0.7"/><path aria-label="x: 0.84; y: 0.49787136; type: Input" role="graphics-symbol" aria-roledescription="point" transform="translate(644.0000000000002,228.2402909090903)" d="M2.7386127875258306,0A2.7386127875258306,2.7386127875258306,0,1,1,-2.7386127875258306,0A2.7386127875258306,2.7386127875258306,0,1,1,2.7386127875258306,0" stroke="#4c78a8" stroke-width="2" opacity="0.7"/><path aria-label="x: −0.840084908004; y: 0.497866085805; type: Output" role="graphics-symbol" aria-roledescription="point" transform="translate(55.970282198549896,228.24268827064947)" d="M2.7386127875258306,0A2.7386127875258306,2.7386127875258306,0,1,1,-2.7386127875258306,0A2.7386127875258306,2.7386127875258306,0,1,1,2.7386127875258306,0" stroke="#f58518" stroke-width="2" opacity="0.7"/><path aria-label="x: 0.85; y: 0.52200625; type: Input" role="graphics-symbol" aria-roledescription="point" transform="translate(647.5000000000002,217.2698863636358)" d="M2.7386127875258306,0A2.7386127875258306,2.7386127875258306,0,1,1,-2.7386127875258306,0A2.7386127875258306,2.7386127875258306,0,1,1,2.7386127875258306,0" stroke="#4c78a8" stroke-width="2" opacity="0.7"/><path aria-label="x: −0.850086006627; y: 0.522000285757; type: Output" role="graphics-symbol" aria-roledescription="point" transform="translate(52.46989768060368,217.272597383093)" d="M2.7386127875258306,0A2.7386127875258306,2.7386127875258306,0,1,1,-2.7386127875258306,0A2.7386127875258306,2.7386127875258306,0,1,1,2.7386127875258306,0" stroke="#f58518" stroke-width="2" opacity="0.7"/><path aria-label="x: 0.86; y: 0.54700816; type: Input" role="graphics-symbol" aria-roledescription="point" transform="translate(651.0000000000002,205.90538181818118)" d="M2.7386127875258306,0A2.7386127875258306,2.7386127875258306,0,1,1,-2.7386127875258306,0A2.7386127875258306,2.7386127875258306,0,1,1,2.7386127875258306,0" stroke="#4c78a8" stroke-width="2" opacity="0.7"/><path aria-label="x: −0.860087122233; y: 0.547001471007; type: Output" role="graphics-symbol" aria-roledescription="point" transform="translate(48.96950721859483,205.90842226953592)" d="M2.7386127875258306,0A2.7386127875258306,2.7386127875258306,0,1,1,-2.7386127875258306,0A2.7386127875258306,2.7386127875258306,0,1,1,2.7386127875258306,0" stroke="#f58518" stroke-width="2" opacity="0.7"/><path aria-label="x: 0.87; y: 0.57289761; type: Input" role="graphics-symbol" aria-roledescription="point" transform="translate(654.5000000000002,194.13744999999938)" d="M2.7386127875258306,0A2.7386127875258306,2.7386127875258306,0,1,1,-2.7386127875258306,0A2.7386127875258306,2.7386127875258306,0,1,1,2.7386127875258306,0" stroke="#4c78a8" stroke-width="2" opacity="0.7"/><path aria-label="x: −0.870088255223; y: 0.572890160733; type: Output" role="graphics-symbol" aria-roledescription="point" transform="translate(45.46911067184355,194.14083603057864)" d="M2.7386127875258306,0A2.7386127875258306,2.7386127875258306,0,1,1,-2.7386127875258306,0A2.7386127875258306,2.7386127875258306,0,1,1,2.7386127875258306,0" stroke="#f58518" stroke-width="2" opacity="0.7"/><path aria-label="x: 0.88; y: 0.59969536; type: Input" role="graphics-symbol" aria-roledescription="point" transform="translate(658.0000000000002,181.95665454545383)" d="M2.7386127875258306,0A2.7386127875258306,2.7386127875258306,0,1,1,-2.7386127875258306,0A2.7386127875258306,2.7386127875258306,0,1,1,2.7386127875258306,0" stroke="#4c78a8" stroke-width="2" opacity="0.7"/><path aria-label="x: −0.879961357605; y: 0.600080620323; type: Output" role="graphics-symbol" aria-roledescription="point" transform="translate(42.01352483823207,181.78153621685317)" d="M2.7386127875258306,0A2.7386127875258306,2.7386127875258306,0,1,1,-2.7386127875258306,0A2.7386127875258306,2.7386127875258306,0,1,1,2.7386127875258306,0" stroke="#f58518" stroke-width="2" opacity="0.7"/><path aria-label="x: 0.89; y: 0.62742241; type: Input" role="graphics-symbol" aria-roledescription="point" transform="translate(661.5000000000002,169.3534499999993)" d="M2.7386127875258306,0A2.7386127875258306,2.7386127875258306,0,1,1,-2.7386127875258306,0A2.7386127875258306,2.7386127875258306,0,1,1,2.7386127875258306,0" stroke="#4c78a8" stroke-width="2" opacity="0.7"/><path aria-label="x: −0.889434445168; y: 0.629429686319; type: Output" role="graphics-symbol" aria-roledescription="point" transform="translate(38.697944191076836,168.44105167318622)" d="M2.7386127875258306,0A2.7386127875258306,2.7386127875258306,0,1,1,-2.7386127875258306,0A2.7386127875258306,2.7386127875258306,0,1,1,2.7386127875258306,0" stroke="#f58518" stroke-width="2" opacity="0.7"/><path aria-label="x: 0.9; y: 0.6561; type: Input" role="graphics-symbol" aria-roledescription="point" transform="translate(665.0000000000002,156.31818181818107)" d="M2.7386127875258306,0A2.7386127875258306,2.7386127875258306,0,1,1,-2.7386127875258306,0A2.7386127875258306,2.7386127875258306,0,1,1,2.7386127875258306,0" stroke="#4c78a8" stroke-width="2" opacity="0.7"/><path aria-label="x: −0.89979231438; y: 0.656466527866; type: Output" role="graphics-symbol" aria-roledescription="point" transform="translate(35.07268996687664,156.15157824288715)" d="M2.7386127875258306,0A2.7386127875258306,2.7386127875258306,0,1,1,-2.7386127875258306,0A2.7386127875258306,2.7386127875258306,0,1,1,2.7386127875258306,0" stroke="#f58518" stroke-width="2" opacity="0.7"/><path aria-label="x: 0.91; y: 0.68574961; type: Input" role="graphics-symbol" aria-roledescription="point" transform="translate(668.5000000000002,142.84108636363558)" d="M2.7386127875258306,0A2.7386127875258306,2.7386127875258306,0,1,1,-2.7386127875258306,0A2.7386127875258306,2.7386127875258306,0,1,1,2.7386127875258306,0" stroke="#4c78a8" stroke-width="2" opacity="0.7"/><path aria-label="x: −0.909886201937; y: 0.685732649054; type: Output" role="graphics-symbol" aria-roledescription="point" transform="translate(31.539829321939454,142.8487958846672)" d="M2.7386127875258306,0A2.7386127875258306,2.7386127875258306,0,1,1,-2.7386127875258306,0A2.7386127875258306,2.7386127875258306,0,1,1,2.7386127875258306,0" stroke="#f58518" stroke-width="2" opacity="0.7"/><path aria-label="x: 0.92; y: 0.71639296; type: Input" role="graphics-symbol" aria-roledescription="point" transform="translate(672.0000000000002,128.91229090909013)" d="M2.7386127875258306,0A2.7386127875258306,2.7386127875258306,0,1,1,-2.7386127875258306,0A2.7386127875258306,2.7386127875258306,0,1,1,2.7386127875258306,0" stroke="#4c78a8" stroke-width="2" opacity="0.7"/><path aria-label="x: −0.919880369685; y: 0.716377926896; type: Output" role="graphics-symbol" aria-roledescription="point" transform="translate(28.041870610404935,128.91912413808532)" d="M2.7386127875258306,0A2.7386127875258306,2.7386127875258306,0,1,1,-2.7386127875258306,0A2.7386127875258306,2.7386127875258306,0,1,1,2.7386127875258306,0" stroke="#f58518" stroke-width="2" opacity="0.7"/><path aria-label="x: 0.93; y: 0.74805201; type: Input" role="graphics-symbol" aria-roledescription="point" transform="translate(675.5000000000002,114.52181363636277)" d="M2.7386127875258306,0A2.7386127875258306,2.7386127875258306,0,1,1,-2.7386127875258306,0A2.7386127875258306,2.7386127875258306,0,1,1,2.7386127875258306,0" stroke="#4c78a8" stroke-width="2" opacity="0.7"/><path aria-label="x: −0.929874371803; y: 0.748038980028; type: Output" role="graphics-symbol" aria-roledescription="point" transform="translate(24.543969868783407,114.52773635087976)" d="M2.7386127875258306,0A2.7386127875258306,2.7386127875258306,0,1,1,-2.7386127875258306,0A2.7386127875258306,2.7386127875258306,0,1,1,2.7386127875258306,0" stroke="#f58518" stroke-width="2" opacity="0.7"/><path aria-label="x: 0.94; y: 0.78074896; type: Input" role="graphics-symbol" aria-roledescription="point" transform="translate(679.0000000000002,99.65956363636275)" d="M2.7386127875258306,0A2.7386127875258306,2.7386127875258306,0,1,1,-2.7386127875258306,0A2.7386127875258306,2.7386127875258306,0,1,1,2.7386127875258306,0" stroke="#4c78a8" stroke-width="2" opacity="0.7"/><path aria-label="x: −0.939868204674; y: 0.780738010095; type: Output" role="graphics-symbol" aria-roledescription="point" transform="translate(21.04612836411422,99.66454086596515)" d="M2.7386127875258306,0A2.7386127875258306,2.7386127875258306,0,1,1,-2.7386127875258306,0A2.7386127875258306,2.7386127875258306,0,1,1,2.7386127875258306,0" stroke="#f58518" stroke-width="2" opacity="0.7"/><path aria-label="x: 0.95; y: 0.81450625; type: Input" role="graphics-symbol" aria-roledescription="point" transform="translate(682.5000000000002,84.31534090908998)" d="M2.7386127875258306,0A2.7386127875258306,2.7386127875258306,0,1,1,-2.7386127875258306,0A2.7386127875258306,2.7386127875258306,0,1,1,2.7386127875258306,0" stroke="#4c78a8" stroke-width="2" opacity="0.7"/><path aria-label="x: −0.949861864637; y: 0.81449745876; type: Output" role="graphics-symbol" aria-roledescription="point" transform="translate(17.548347377135116,84.31933692726041)" d="M2.7386127875258306,0A2.7386127875258306,2.7386127875258306,0,1,1,-2.7386127875258306,0A2.7386127875258306,2.7386127875258306,0,1,1,2.7386127875258306,0" stroke="#f58518" stroke-width="2" opacity="0.7"/><path aria-label="x: 0.96; y: 0.84934656; type: Input" role="graphics-symbol" aria-roledescription="point" transform="translate(686.0000000000002,68.47883636363538)" d="M2.7386127875258306,0A2.7386127875258306,2.7386127875258306,0,1,1,-2.7386127875258306,0A2.7386127875258306,2.7386127875258306,0,1,1,2.7386127875258306,0" stroke="#4c78a8" stroke-width="2" opacity="0.7"/><path aria-label="x: −0.959855347993; y: 0.849340007705; type: Output" role="graphics-symbol" aria-roledescription="point" transform="translate(14.050628202280818,68.48181467968867)" d="M2.7386127875258306,0A2.7386127875258306,2.7386127875258306,0,1,1,-2.7386127875258306,0A2.7386127875258306,2.7386127875258306,0,1,1,2.7386127875258306,0" stroke="#f58518" stroke-width="2" opacity="0.7"/><path aria-label="x: 0.97; y: 0.88529281; type: Input" role="graphics-symbol" aria-roledescription="point" transform="translate(689.5000000000002,52.13963181818077)" d="M2.7386127875258306,0A2.7386127875258306,2.7386127875258306,0,1,1,-2.7386127875258306,0A2.7386127875258306,2.7386127875258306,0,1,1,2.7386127875258306,0" stroke="#4c78a8" stroke-width="2" opacity="0.7"/><path aria-label="x: −0.969848651007; y: 0.885288578628; type: Output" role="graphics-symbol" aria-roledescription="point" transform="translate(10.55297214768413,52.14155516917801)" d="M2.7386127875258306,0A2.7386127875258306,2.7386127875258306,0,1,1,-2.7386127875258306,0A2.7386127875258306,2.7386127875258306,0,1,1,2.7386127875258306,0" stroke="#f58518" stroke-width="2" opacity="0.7"/><path aria-label="x: 0.98; y: 0.92236816; type: Input" role="graphics-symbol" aria-roledescription="point" transform="translate(693.0000000000002,35.28719999999891)" d="M2.7386127875258306,0A2.7386127875258306,2.7386127875258306,0,1,1,-2.7386127875258306,0A2.7386127875258306,2.7386127875258306,0,1,1,2.7386127875258306,0" stroke="#4c78a8" stroke-width="2" opacity="0.7"/><path aria-label="x: −0.979841769899; y: 0.922366333246; type: Output" role="graphics-symbol" aria-roledescription="point" transform="translate(7.055380535175387,35.28803034266059)" d="M2.7386127875258306,0A2.7386127875258306,2.7386127875258306,0,1,1,-2.7386127875258306,0A2.7386127875258306,2.7386127875258306,0,1,1,2.7386127875258306,0" stroke="#f58518" stroke-width="2" opacity="0.7"/><path aria-label="x: 0.99; y: 0.96059601; type: Input" role="graphics-symbol" aria-roledescription="point" transform="translate(696.5000000000002,17.910904545453466)" d="M2.7386127875258306,0A2.7386127875258306,2.7386127875258306,0,1,1,-2.7386127875258306,0A2.7386127875258306,2.7386127875258306,0,1,1,2.7386127875258306,0" stroke="#4c78a8" stroke-width="2" opacity="0.7"/><path aria-label="x: −0.989834700856; y: 0.960596673294; type: Output" role="graphics-symbol" aria-roledescription="point" transform="translate(3.5578547002829195,17.910603048073348)" d="M2.7386127875258306,0A2.7386127875258306,2.7386127875258306,0,1,1,-2.7386127875258306,0A2.7386127875258306,2.7386127875258306,0,1,1,2.7386127875258306,0" stroke="#f58518" stroke-width="2" opacity="0.7"/></g><g class="mark-group role-legend" role="graphics-symbol" aria-roledescription="legend" aria-label="Symbol legend titled 'type' for stroke color with 2 values: Input, Output"><g transform="translate(718,0)"><path class="background" aria-hidden="true" d="M0,0h47v45h-47Z" pointer-events="none"/><g><g class="mark-group role-legend-entry"><g transform="translate(0,16)"><path class="background" aria-hidden="true" d="M0,0h0v0h0Z" pointer-events="none"/><g><g class="mark-group role-scope" role="graphics-object" aria-roledescription="group mark container"><g transform="translate(0,0)"><path class="background" aria-hidden="true" d="M0,0h46.01953125v12.5h-46.01953125Z" pointer-events="none" opacity="1"/><g><g class="mark-symbol role-legend-symbol" pointer-events="none"><path transform="translate(6,6)" d="M5,0A5,5,0,1,1,-5,0A5,5,0,1,1,5,0" stroke="#4c78a8" stroke-width="1.5" opacity="0.7"/></g><g class="mark-text role-legend-label" pointer-events="none"><text text-anchor="start" transform="translate(16,9)" font-family="sans-serif" font-size="10px" fill="#000" opacity="1">Input</text></g></g><path class="foreground" aria-hidden="true" d="" pointer-events="none" display="none"/></g><g transform="translate(0,16)"><path class="background" aria-hidden="true" d="M0,0h46.01953125v12.5h-46.01953125Z" pointer-events="none" opacity="1"/><g><g class="mark-symbol role-legend-symbol" pointer-events="none"><path transform="translate(6,6)" d="M5,0A5,5,0,1,1,-5,0A5,5,0,1,1,5,0" stroke="#f58518" stroke-width="1.5" opacity="0.7"/></g><g class="mark-text role-legend-label" pointer-events="none"><text text-anchor="start" transform="translate(16,9)" font-family="sans-serif" font-size="10px" fill="#000" opacity="1">Output</text></g></g><path class="foreground" aria-hidden="true" d="" pointer-events="none" display="none"/></g></g></g><path class="foreground" aria-hidden="true" d="" pointer-events="none" display="none"/></g></g><g class="mark-text role-legend-title" pointer-events="none"><text text-anchor="start" transform="translate(0,9)" font-family="sans-serif" font-size="11px" font-weight="bold" fill="#000" opacity="1">type</text></g></g><path class="foreground" aria-hidden="true" d="" pointer-events="none" display="none"/></g></g></g><path class="foreground" aria-hidden="true" d="" display="none"/></g></g></g></svg>